<?xml version="1.0" encoding="UTF-8" standalone="no"?>
<!-- Created with Inkscape (http://www.inkscape.org/) -->

<svg
   inkscape:version="1.4.2 (ebf0e940d0, 2025-05-08)"
   version="1.1"
   id="svg2"
   viewBox="0 0 339.81284 156.51799"
   preserveAspectRatio="xMidYMid meet"
   sodipodi:docname="3-sphere-failure.svg"
   xmlns:inkscape="http://www.inkscape.org/namespaces/inkscape"
   xmlns:sodipodi="http://sodipodi.sourceforge.net/DTD/sodipodi-0.dtd"
   xmlns:xlink="http://www.w3.org/1999/xlink"
   xmlns="http://www.w3.org/2000/svg"
   xmlns:svg="http://www.w3.org/2000/svg"
   xmlns:rdf="http://www.w3.org/1999/02/22-rdf-syntax-ns#"
   xmlns:cc="http://creativecommons.org/ns#"
   xmlns:dc="http://purl.org/dc/elements/1.1/"
   xmlns:ns0="http://www.iki.fi/pav/software/textext/">
  <sodipodi:namedview
     id="base"
     pagecolor="#2f2f2f"
     bordercolor="#666666"
     borderopacity="1.0"
     inkscape:pageopacity="0"
     inkscape:pageshadow="2"
     inkscape:zoom="3.9999998"
     inkscape:cx="107"
     inkscape:cy="82.125004"
     inkscape:document-units="px"
     inkscape:current-layer="svg2"
     showgrid="true"
     inkscape:window-width="5120"
     inkscape:window-height="1412"
     inkscape:window-x="0"
     inkscape:window-y="0"
     inkscape:window-maximized="1"
     fit-margin-top="0"
     fit-margin-left="0"
     fit-margin-right="0"
     fit-margin-bottom="0"
     inkscape:snap-object-midpoints="true"
     inkscape:object-paths="true"
     inkscape:snap-bbox="false"
     inkscape:snap-grids="true"
     showguides="true"
     inkscape:guide-bbox="true"
     inkscape:snap-global="false"
     objecttolerance="10"
     gridtolerance="10"
     inkscape:showpageshadow="2"
     inkscape:pagecheckerboard="0"
     inkscape:deskcolor="#d1d1d1">
    <inkscape:grid
       type="xygrid"
       id="grid6684"
       empspacing="5"
       visible="true"
       enabled="true"
       snapvisiblegridlinesonly="true"
       originx="-80.121175"
       originy="-237.3745"
       spacingy="1"
       spacingx="1"
       units="px" />
  </sodipodi:namedview>
  <defs
     id="defs4">
    <marker
       inkscape:isstock="true"
       style="overflow:visible"
       id="marker5796"
       refX="0"
       refY="0"
       orient="auto"
       inkscape:stockid="Arrow1Mend">
      <path
         transform="matrix(-0.4,0,0,-0.4,-4,0)"
         style="fill:#ffffff;fill-opacity:1;fill-rule:evenodd;stroke:#ffffff;stroke-width:1pt;stroke-opacity:1"
         d="M 0,0 5,-5 -12.5,0 5,5 0,0 Z"
         id="path5798"
         inkscape:connector-curvature="0" />
    </marker>
    <marker
       inkscape:isstock="true"
       style="overflow:visible"
       id="marker5678"
       refX="0"
       refY="0"
       orient="auto"
       inkscape:stockid="Arrow1Mend">
      <path
         transform="matrix(-0.4,0,0,-0.4,-4,0)"
         style="fill:#ffffff;fill-opacity:1;fill-rule:evenodd;stroke:#ffffff;stroke-width:1pt;stroke-opacity:1"
         d="M 0,0 5,-5 -12.5,0 5,5 0,0 Z"
         id="path5680"
         inkscape:connector-curvature="0" />
    </marker>
    <marker
       inkscape:isstock="true"
       style="overflow:visible"
       id="marker5566"
       refX="0"
       refY="0"
       orient="auto"
       inkscape:stockid="Arrow1Mend">
      <path
         transform="matrix(-0.4,0,0,-0.4,-4,0)"
         style="fill:#ffffff;fill-opacity:1;fill-rule:evenodd;stroke:#ffffff;stroke-width:1pt;stroke-opacity:1"
         d="M 0,0 5,-5 -12.5,0 5,5 0,0 Z"
         id="path5568"
         inkscape:connector-curvature="0" />
    </marker>
    <marker
       inkscape:isstock="true"
       style="overflow:visible"
       id="marker5472"
       refX="0"
       refY="0"
       orient="auto"
       inkscape:stockid="Arrow1Mend">
      <path
         transform="matrix(-0.4,0,0,-0.4,-4,0)"
         style="fill:#ffffff;fill-opacity:1;fill-rule:evenodd;stroke:#ffffff;stroke-width:1pt;stroke-opacity:1"
         d="M 0,0 5,-5 -12.5,0 5,5 0,0 Z"
         id="path5474"
         inkscape:connector-curvature="0" />
    </marker>
    <marker
       inkscape:isstock="true"
       style="overflow:visible"
       id="marker5384"
       refX="0"
       refY="0"
       orient="auto"
       inkscape:stockid="Arrow1Mend">
      <path
         transform="matrix(-0.4,0,0,-0.4,-4,0)"
         style="fill:#ffffff;fill-opacity:1;fill-rule:evenodd;stroke:#ffffff;stroke-width:1pt;stroke-opacity:1"
         d="M 0,0 5,-5 -12.5,0 5,5 0,0 Z"
         id="path5386"
         inkscape:connector-curvature="0" />
    </marker>
    <marker
       inkscape:isstock="true"
       style="overflow:visible"
       id="marker5302"
       refX="0"
       refY="0"
       orient="auto"
       inkscape:stockid="Arrow1Mend">
      <path
         transform="matrix(-0.4,0,0,-0.4,-4,0)"
         style="fill:#ffffff;fill-opacity:1;fill-rule:evenodd;stroke:#ffffff;stroke-width:1pt;stroke-opacity:1"
         d="M 0,0 5,-5 -12.5,0 5,5 0,0 Z"
         id="path5304"
         inkscape:connector-curvature="0" />
    </marker>
    <marker
       inkscape:isstock="true"
       style="overflow:visible"
       id="marker5226"
       refX="0"
       refY="0"
       orient="auto"
       inkscape:stockid="Arrow1Mend">
      <path
         transform="matrix(-0.4,0,0,-0.4,-4,0)"
         style="fill:#ffffff;fill-opacity:1;fill-rule:evenodd;stroke:#ffffff;stroke-width:1pt;stroke-opacity:1"
         d="M 0,0 5,-5 -12.5,0 5,5 0,0 Z"
         id="path5228"
         inkscape:connector-curvature="0" />
    </marker>
    <marker
       inkscape:isstock="true"
       style="overflow:visible"
       id="marker5216"
       refX="0"
       refY="0"
       orient="auto"
       inkscape:stockid="Arrow1Mend">
      <path
         transform="matrix(-0.4,0,0,-0.4,-4,0)"
         style="fill:#ffffff;fill-opacity:1;fill-rule:evenodd;stroke:#ffffff;stroke-width:1pt;stroke-opacity:1"
         d="M 0,0 5,-5 -12.5,0 5,5 0,0 Z"
         id="path5218"
         inkscape:connector-curvature="0" />
    </marker>
    <marker
       inkscape:isstock="true"
       style="overflow:visible"
       id="marker5070"
       refX="0"
       refY="0"
       orient="auto"
       inkscape:stockid="EmptyTriangleOutL">
      <path
         transform="matrix(0.8,0,0,0.8,-4.8,0)"
         style="fill:#ffffff;fill-rule:evenodd;stroke:#ffffff;stroke-width:1pt;stroke-opacity:1"
         d="m 5.77,0 -8.65,5 0,-10 8.65,5 z"
         id="path5072"
         inkscape:connector-curvature="0" />
    </marker>
    <marker
       inkscape:isstock="true"
       style="overflow:visible"
       id="marker5012"
       refX="0"
       refY="0"
       orient="auto"
       inkscape:stockid="EmptyTriangleOutL">
      <path
         transform="matrix(0.8,0,0,0.8,-4.8,0)"
         style="fill:#ffffff;fill-rule:evenodd;stroke:#ffffff;stroke-width:1pt;stroke-opacity:1"
         d="m 5.77,0 -8.65,5 0,-10 8.65,5 z"
         id="path5014"
         inkscape:connector-curvature="0" />
    </marker>
    <marker
       inkscape:isstock="true"
       style="overflow:visible"
       id="marker4960"
       refX="0"
       refY="0"
       orient="auto"
       inkscape:stockid="EmptyTriangleOutL">
      <path
         transform="matrix(0.8,0,0,0.8,-4.8,0)"
         style="fill:#ffffff;fill-rule:evenodd;stroke:#ffffff;stroke-width:1pt;stroke-opacity:1"
         d="m 5.77,0 -8.65,5 0,-10 8.65,5 z"
         id="path4962"
         inkscape:connector-curvature="0" />
    </marker>
    <marker
       inkscape:isstock="true"
       style="overflow:visible"
       id="marker4914"
       refX="0"
       refY="0"
       orient="auto"
       inkscape:stockid="EmptyTriangleOutL">
      <path
         transform="matrix(0.8,0,0,0.8,-4.8,0)"
         style="fill:#ffffff;fill-rule:evenodd;stroke:#ffffff;stroke-width:1pt;stroke-opacity:1"
         d="m 5.77,0 -8.65,5 0,-10 8.65,5 z"
         id="path4916"
         inkscape:connector-curvature="0" />
    </marker>
    <marker
       inkscape:isstock="true"
       style="overflow:visible"
       id="marker4874"
       refX="0"
       refY="0"
       orient="auto"
       inkscape:stockid="EmptyTriangleOutL">
      <path
         transform="matrix(0.8,0,0,0.8,-4.8,0)"
         style="fill:#ffffff;fill-rule:evenodd;stroke:#ffffff;stroke-width:1pt;stroke-opacity:1"
         d="m 5.77,0 -8.65,5 0,-10 8.65,5 z"
         id="path4876"
         inkscape:connector-curvature="0" />
    </marker>
    <marker
       inkscape:isstock="true"
       style="overflow:visible"
       id="marker4840"
       refX="0"
       refY="0"
       orient="auto"
       inkscape:stockid="EmptyTriangleOutL">
      <path
         transform="matrix(0.8,0,0,0.8,-4.8,0)"
         style="fill:#ffffff;fill-rule:evenodd;stroke:#ffffff;stroke-width:1pt;stroke-opacity:1"
         d="m 5.77,0 -8.65,5 0,-10 8.65,5 z"
         id="path4842"
         inkscape:connector-curvature="0" />
    </marker>
    <marker
       style="overflow:visible"
       id="Arrow1Mend"
       refX="0"
       refY="0"
       orient="auto"
       inkscape:stockid="Arrow1Mend">
      <path
         transform="matrix(-0.4,0,0,-0.4,-4,0)"
         style="fill-rule:evenodd;stroke:#000000;stroke-width:1pt"
         d="M 0,0 5,-5 -12.5,0 5,5 0,0 Z"
         id="path3794"
         inkscape:connector-curvature="0" />
    </marker>
    <defs
       id="defs5286">
      <g
         id="g5288">
        <symbol
           id="textext-fda823bf-0"
           overflow="visible"
           style="overflow:visible">
          <path
             id="path5291"
             d=""
             style="stroke:none"
             inkscape:connector-curvature="0" />
        </symbol>
        <symbol
           id="textext-fda823bf-1"
           overflow="visible"
           style="overflow:visible">
          <path
             id="path5294"
             d="m 2.046875,-3.984375 0.9375,0 c 0.203125,0 0.3125,0 0.3125,-0.203125 0,-0.109375 -0.109375,-0.109375 -0.28125,-0.109375 l -0.875,0 C 2.5,-5.71875 2.546875,-5.90625 2.546875,-5.96875 c 0,-0.171875 -0.125,-0.265625 -0.296875,-0.265625 -0.03125,0 -0.3125,0 -0.390625,0.359375 l -0.390625,1.578125 -0.9375,0 c -0.203125,0 -0.296875,0 -0.296875,0.1875 0,0.125 0.078125,0.125 0.28125,0.125 l 0.875,0 C 0.671875,-1.15625 0.625,-0.984375 0.625,-0.8125 0.625,-0.265625 1,0.109375 1.546875,0.109375 2.5625,0.109375 3.125,-1.34375 3.125,-1.421875 3.125,-1.53125 3.046875,-1.53125 3.015625,-1.53125 2.921875,-1.53125 2.90625,-1.5 2.859375,-1.390625 2.4375,-0.34375 1.90625,-0.109375 1.5625,-0.109375 c -0.203125,0 -0.3125,-0.125 -0.3125,-0.453125 0,-0.25 0.03125,-0.3125 0.0625,-0.484375 z"
             style="stroke:none"
             inkscape:connector-curvature="0" />
        </symbol>
      </g>
    </defs>
    <defs
       id="defs3390">
      <g
         id="g3392">
        <symbol
           style="overflow:visible"
           overflow="visible"
           id="textext-adb5ee27-0">
          <path
             inkscape:connector-curvature="0"
             style="stroke:none"
             d=""
             id="path3395" />
        </symbol>
        <symbol
           style="overflow:visible"
           overflow="visible"
           id="textext-adb5ee27-1">
          <path
             inkscape:connector-curvature="0"
             style="stroke:none"
             d="m 2.046875,-3.984375 0.9375,0 c 0.203125,0 0.3125,0 0.3125,-0.203125 0,-0.109375 -0.109375,-0.109375 -0.28125,-0.109375 l -0.875,0 C 2.5,-5.71875 2.546875,-5.90625 2.546875,-5.96875 c 0,-0.171875 -0.125,-0.265625 -0.296875,-0.265625 -0.03125,0 -0.3125,0 -0.390625,0.359375 l -0.390625,1.578125 -0.9375,0 c -0.203125,0 -0.296875,0 -0.296875,0.1875 0,0.125 0.078125,0.125 0.28125,0.125 l 0.875,0 C 0.671875,-1.15625 0.625,-0.984375 0.625,-0.8125 0.625,-0.265625 1,0.109375 1.546875,0.109375 2.5625,0.109375 3.125,-1.34375 3.125,-1.421875 3.125,-1.53125 3.046875,-1.53125 3.015625,-1.53125 2.921875,-1.53125 2.90625,-1.5 2.859375,-1.390625 2.4375,-0.34375 1.90625,-0.109375 1.5625,-0.109375 c -0.203125,0 -0.3125,-0.125 -0.3125,-0.453125 0,-0.25 0.03125,-0.3125 0.0625,-0.484375 z"
             id="path3398" />
        </symbol>
        <symbol
           style="overflow:visible"
           overflow="visible"
           id="textext-adb5ee27-2">
          <path
             inkscape:connector-curvature="0"
             style="stroke:none"
             d=""
             id="path3401" />
        </symbol>
        <symbol
           style="overflow:visible"
           overflow="visible"
           id="textext-adb5ee27-3">
          <path
             inkscape:connector-curvature="0"
             style="stroke:none"
             d="m 2.328125,-4.4375 c 0,-0.1875 0,-0.1875 -0.203125,-0.1875 -0.453125,0.4375 -1.078125,0.4375 -1.359375,0.4375 l 0,0.25 c 0.15625,0 0.625,0 1,-0.1875 l 0,3.546875 c 0,0.234375 0,0.328125 -0.6875,0.328125 l -0.265625,0 0,0.25 c 0.125,0 0.984375,-0.03125 1.234375,-0.03125 0.21875,0 1.09375,0.03125 1.25,0.03125 l 0,-0.25 -0.265625,0 c -0.703125,0 -0.703125,-0.09375 -0.703125,-0.328125 z"
             id="path3404" />
        </symbol>
      </g>
    </defs>
    <defs
       id="defs3766">
      <g
         id="g3768">
        <symbol
           id="textext-57da1479-0"
           overflow="visible"
           style="overflow:visible">
          <path
             id="path3771"
             d=""
             style="stroke:none"
             inkscape:connector-curvature="0" />
        </symbol>
        <symbol
           id="textext-57da1479-1"
           overflow="visible"
           style="overflow:visible">
          <path
             id="path3774"
             d="m 2.046875,-3.984375 0.9375,0 c 0.203125,0 0.3125,0 0.3125,-0.203125 0,-0.109375 -0.109375,-0.109375 -0.28125,-0.109375 l -0.875,0 C 2.5,-5.71875 2.546875,-5.90625 2.546875,-5.96875 c 0,-0.171875 -0.125,-0.265625 -0.296875,-0.265625 -0.03125,0 -0.3125,0 -0.390625,0.359375 l -0.390625,1.578125 -0.9375,0 c -0.203125,0 -0.296875,0 -0.296875,0.1875 0,0.125 0.078125,0.125 0.28125,0.125 l 0.875,0 C 0.671875,-1.15625 0.625,-0.984375 0.625,-0.8125 0.625,-0.265625 1,0.109375 1.546875,0.109375 2.5625,0.109375 3.125,-1.34375 3.125,-1.421875 3.125,-1.53125 3.046875,-1.53125 3.015625,-1.53125 2.921875,-1.53125 2.90625,-1.5 2.859375,-1.390625 2.4375,-0.34375 1.90625,-0.109375 1.5625,-0.109375 c -0.203125,0 -0.3125,-0.125 -0.3125,-0.453125 0,-0.25 0.03125,-0.3125 0.0625,-0.484375 z"
             style="stroke:none"
             inkscape:connector-curvature="0" />
        </symbol>
        <symbol
           id="textext-57da1479-2"
           overflow="visible"
           style="overflow:visible">
          <path
             id="path3777"
             d=""
             style="stroke:none"
             inkscape:connector-curvature="0" />
        </symbol>
        <symbol
           id="textext-57da1479-3"
           overflow="visible"
           style="overflow:visible">
          <path
             id="path3780"
             d="m 3.515625,-1.265625 -0.234375,0 c -0.015625,0.15625 -0.09375,0.5625 -0.1875,0.625 -0.046875,0.046875 -0.578125,0.046875 -0.6875,0.046875 l -1.28125,0 c 0.734375,-0.640625 0.984375,-0.84375 1.390625,-1.171875 0.515625,-0.40625 1,-0.84375 1,-1.5 0,-0.84375 -0.734375,-1.359375 -1.625,-1.359375 -0.859375,0 -1.453125,0.609375 -1.453125,1.25 0,0.34375 0.296875,0.390625 0.375,0.390625 0.15625,0 0.359375,-0.125 0.359375,-0.375 0,-0.125 -0.046875,-0.375 -0.40625,-0.375 C 0.984375,-4.21875 1.453125,-4.375 1.78125,-4.375 c 0.703125,0 1.0625,0.546875 1.0625,1.109375 0,0.609375 -0.4375,1.078125 -0.65625,1.328125 L 0.515625,-0.265625 C 0.4375,-0.203125 0.4375,-0.1875 0.4375,0 l 2.875,0 z"
             style="stroke:none"
             inkscape:connector-curvature="0" />
        </symbol>
      </g>
    </defs>
    <marker
       inkscape:isstock="true"
       style="overflow:visible"
       refX="0"
       refY="0"
       orient="auto"
       inkscape:stockid="marker57962201"
       id="marker57962201">
      <path
         transform="matrix(-0.4,0,0,-0.4,-4,0)"
         style="fill:#000000;fill-opacity:1.0;fill-rule:evenodd;stroke:#000000;stroke-width:1pt;stroke-opacity:1.0"
         d="M 0,0 5,-5 -12.5,0 5,5 0,0 Z"
         id="path5798-1"
         inkscape:connector-curvature="0" />
    </marker>
    <marker
       inkscape:isstock="true"
       style="overflow:visible"
       refX="0"
       refY="0"
       orient="auto"
       inkscape:stockid="marker579622013397"
       id="marker579622013397">
      <path
         transform="matrix(-0.4,0,0,-0.4,-4,0)"
         style="fill:#000000;fill-opacity:1.0;fill-rule:evenodd;stroke:#000000;stroke-width:1pt;stroke-opacity:1.0"
         d="M 0,0 5,-5 -12.5,0 5,5 0,0 Z"
         id="path5798-1-1"
         inkscape:connector-curvature="0" />
    </marker>
    <marker
       inkscape:stockid="marker51406904"
       orient="auto"
       refY="0"
       refX="0"
       style="overflow:visible"
       inkscape:isstock="true"
       inkscape:collect="always"
       id="marker51406904">
      <path
         id="path5142-1"
         d="M 0,0 5,-5 -12.5,0 5,5 0,0 Z"
         style="fill:#000000;fill-opacity:1.0;fill-rule:evenodd;stroke:#000000;stroke-width:1pt;stroke-opacity:1.0"
         transform="matrix(-0.4,0,0,-0.4,-4,0)"
         inkscape:connector-curvature="0" />
    </marker>
    <marker
       inkscape:stockid="marker4594616"
       orient="auto"
       refY="0"
       refX="0"
       style="overflow:visible"
       inkscape:isstock="true"
       inkscape:collect="always"
       id="marker4594616">
      <path
         id="path4321-1"
         d="M 0,0 5,-5 -12.5,0 5,5 0,0 Z"
         style="fill:#000000;fill-opacity:1.0;fill-rule:evenodd;stroke:#000000;stroke-width:1pt;stroke-opacity:1.0"
         transform="matrix(-0.4,0,0,-0.4,-4,0)"
         inkscape:connector-curvature="0" />
    </marker>
    <marker
       inkscape:isstock="true"
       style="overflow:visible"
       refX="0"
       refY="0"
       orient="auto"
       inkscape:stockid="marker56788036"
       id="marker56788036">
      <path
         transform="matrix(-0.4,0,0,-0.4,-4,0)"
         style="fill:#000000;fill-opacity:1.0;fill-rule:evenodd;stroke:#000000;stroke-width:1pt;stroke-opacity:1.0"
         d="M 0,0 5,-5 -12.5,0 5,5 0,0 Z"
         id="path5680-1"
         inkscape:connector-curvature="0" />
    </marker>
    <marker
       inkscape:isstock="true"
       style="overflow:visible"
       refX="0"
       refY="0"
       orient="auto"
       inkscape:stockid="marker52167735"
       id="marker52167735">
      <path
         transform="matrix(-0.4,0,0,-0.4,-4,0)"
         style="fill:#000000;fill-opacity:1.0;fill-rule:evenodd;stroke:#000000;stroke-width:1pt;stroke-opacity:1.0"
         d="M 0,0 5,-5 -12.5,0 5,5 0,0 Z"
         id="path5218-1"
         inkscape:connector-curvature="0" />
    </marker>
    <marker
       inkscape:isstock="true"
       style="overflow:visible"
       refX="0"
       refY="0"
       orient="auto"
       inkscape:stockid="marker52262019"
       id="marker52262019">
      <path
         transform="matrix(-0.4,0,0,-0.4,-4,0)"
         style="fill:#000000;fill-opacity:1.0;fill-rule:evenodd;stroke:#000000;stroke-width:1pt;stroke-opacity:1.0"
         d="M 0,0 5,-5 -12.5,0 5,5 0,0 Z"
         id="path5228-1"
         inkscape:connector-curvature="0" />
    </marker>
    <marker
       inkscape:isstock="true"
       style="overflow:visible"
       refX="0"
       refY="0"
       orient="auto"
       inkscape:stockid="marker54723824"
       id="marker54723824">
      <path
         transform="matrix(-0.4,0,0,-0.4,-4,0)"
         style="fill:#000000;fill-opacity:1.0;fill-rule:evenodd;stroke:#000000;stroke-width:1pt;stroke-opacity:1.0"
         d="M 0,0 5,-5 -12.5,0 5,5 0,0 Z"
         id="path5474-1"
         inkscape:connector-curvature="0" />
    </marker>
    <marker
       inkscape:isstock="true"
       style="overflow:visible"
       refX="0"
       refY="0"
       orient="auto"
       inkscape:stockid="marker55669223"
       id="marker55669223">
      <path
         transform="matrix(-0.4,0,0,-0.4,-4,0)"
         style="fill:#000000;fill-opacity:1.0;fill-rule:evenodd;stroke:#000000;stroke-width:1pt;stroke-opacity:1.0"
         d="M 0,0 5,-5 -12.5,0 5,5 0,0 Z"
         id="path5568-1"
         inkscape:connector-curvature="0" />
    </marker>
    <marker
       inkscape:isstock="true"
       style="overflow:visible"
       refX="0"
       refY="0"
       orient="auto"
       inkscape:stockid="marker53023337"
       id="marker53023337">
      <path
         transform="matrix(-0.4,0,0,-0.4,-4,0)"
         style="fill:#000000;fill-opacity:1.0;fill-rule:evenodd;stroke:#000000;stroke-width:1pt;stroke-opacity:1.0"
         d="M 0,0 5,-5 -12.5,0 5,5 0,0 Z"
         id="path5304-1"
         inkscape:connector-curvature="0" />
    </marker>
    <marker
       inkscape:isstock="true"
       style="overflow:visible"
       refX="0"
       refY="0"
       orient="auto"
       inkscape:stockid="marker53843299"
       id="marker53843299">
      <path
         transform="matrix(-0.4,0,0,-0.4,-4,0)"
         style="fill:#000000;fill-opacity:1.0;fill-rule:evenodd;stroke:#000000;stroke-width:1pt;stroke-opacity:1.0"
         d="M 0,0 5,-5 -12.5,0 5,5 0,0 Z"
         id="path5386-1"
         inkscape:connector-curvature="0" />
    </marker>
  </defs>
  <metadata
     id="metadata7">
    <rdf:RDF>
      <cc:Work
         rdf:about="">
        <dc:format>image/svg+xml</dc:format>
        <dc:type
           rdf:resource="http://purl.org/dc/dcmitype/StillImage" />
        <dc:title />
      </cc:Work>
    </rdf:RDF>
  </metadata>
  <g
     id="layer1"
     inkscape:groupmode="layer"
     inkscape:label="Layer 1"
     transform="translate(-260.16533,-34.60637)" />
  <text
     id="text3036"
     y="180.77621"
     x="-31.549744"
     style="font-style:normal;font-weight:normal;line-height:0%;font-family:sans-serif;letter-spacing:0px;word-spacing:0px;fill:#000000;fill-opacity:1;stroke:none"
     xml:space="preserve"><tspan
       y="180.77621"
       x="-31.549744"
       id="tspan3038"
       sodipodi:role="line"
       style="font-size:40px;line-height:1.25;font-family:sans-serif"> </tspan></text>
  <circle
     r="20"
     cy="20.5"
     cx="30.426142"
     id="path6688-2"
     style="fill:none;stroke:#000000;stroke-width:1px;stroke-linecap:butt;stroke-linejoin:miter;stroke-opacity:1" />
  <path
     style="fill:none;stroke:#000000;stroke-width:1px;stroke-linecap:butt;stroke-linejoin:miter;stroke-opacity:1"
     d="m 28.426142,22.500001 4.000004,-4"
     id="path4970-5"
     inkscape:connector-curvature="0" />
  <path
     style="fill:none;stroke:#000000;stroke-width:1px;stroke-linecap:butt;stroke-linejoin:miter;stroke-opacity:1"
     d="m 28.426142,18.500001 4.000004,4"
     id="path4972-5"
     inkscape:connector-curvature="0" />
  <path
     sodipodi:nodetypes="cc"
     style="fill:none;stroke:#000000;stroke-width:1px;stroke-linecap:butt;stroke-linejoin:miter;stroke-opacity:1;marker-end:url(#marker51406904)"
     d="M 30.426141,20.205689 V 37.597651"
     id="path3779-5-5"
     inkscape:connector-curvature="0" />
  <circle
     id="path6688-2-0"
     style="fill:none;stroke:#000000;stroke-width:1px;stroke-linecap:butt;stroke-linejoin:miter;stroke-opacity:1"
     cx="30.426142"
     cy="65.5"
     r="20" />
  <path
     style="fill:none;stroke:#000000;stroke-width:1px;stroke-linecap:butt;stroke-linejoin:miter;stroke-opacity:1"
     d="m 28.426142,67.500002 4.000004,-4"
     id="path4970-5-0"
     inkscape:connector-curvature="0" />
  <path
     style="fill:none;stroke:#000000;stroke-width:1px;stroke-linecap:butt;stroke-linejoin:miter;stroke-opacity:1"
     d="m 28.426142,63.500002 4.000004,4"
     id="path4972-5-7"
     inkscape:connector-curvature="0" />
  <path
     sodipodi:nodetypes="cc"
     style="fill:none;stroke:#000000;stroke-width:1px;stroke-linecap:butt;stroke-linejoin:miter;stroke-opacity:1;marker-end:url(#marker4594616)"
     d="M 30.426141,65.20569 V 75.880138"
     id="path3779-5-5-5"
     inkscape:connector-curvature="0" />
  <circle
     transform="scale(1,-1)"
     id="path6688-2-2"
     style="fill:none;stroke:#000000;stroke-width:1px;stroke-linecap:butt;stroke-linejoin:miter;stroke-opacity:1"
     cx="30.426142"
     cy="-107.25"
     r="20" />
  <path
     style="fill:none;stroke:#000000;stroke-width:1px;stroke-linecap:butt;stroke-linejoin:miter;stroke-opacity:1"
     d="m 28.426142,105.25 4.000004,4"
     id="path4970-5-8"
     inkscape:connector-curvature="0" />
  <path
     style="fill:none;stroke:#000000;stroke-width:1px;stroke-linecap:butt;stroke-linejoin:miter;stroke-opacity:1"
     d="m 28.426142,109.25 4.000004,-4"
     id="path4972-5-2"
     inkscape:connector-curvature="0" />
  <path
     sodipodi:nodetypes="cc"
     style="fill:none;stroke:#000000;stroke-width:1px;stroke-linecap:butt;stroke-linejoin:miter;stroke-opacity:1;marker-end:url(#marker56788036)"
     d="M 30.426141,107.54431 V 90.152348"
     id="path3779-5-5-4"
     inkscape:connector-curvature="0" />
  <path
     style="fill:none;stroke:#000000;stroke-width:1px;stroke-linecap:butt;stroke-linejoin:miter;stroke-opacity:1"
     d="m 300.06125,33.597658 4.00001,4"
     id="path4970-5-4-9"
     inkscape:connector-curvature="0" />
  <path
     style="fill:none;stroke:#000000;stroke-width:1px;stroke-linecap:butt;stroke-linejoin:miter;stroke-opacity:1"
     d="m 300.06125,37.597658 4.00001,-4"
     id="path4972-5-8-1"
     inkscape:connector-curvature="0" />
  <path
     sodipodi:nodetypes="cc"
     style="fill:none;stroke:#000000;stroke-width:1px;stroke-linecap:butt;stroke-linejoin:miter;stroke-opacity:1;marker-end:url(#marker55669223)"
     d="M 302.06126,35.89197 V 18.500007"
     id="path3779-5-5-2-7"
     inkscape:connector-curvature="0" />
  <circle
     id="path6688-8-6-9-0"
     style="fill:none;stroke:#000000;stroke-width:1;stroke-linecap:butt;stroke-linejoin:miter;stroke-miterlimit:4;stroke-dasharray:2, 1;stroke-dashoffset:0;stroke-opacity:1"
     cx="302.06125"
     cy="35.59766"
     r="20" />
  <circle
     r="20"
     cy="70.597656"
     cx="302.06125"
     id="path6688-8-6-9-32"
     style="fill:none;stroke:#000000;stroke-width:1;stroke-linecap:butt;stroke-linejoin:miter;stroke-miterlimit:4;stroke-dasharray:2, 1;stroke-dashoffset:0;stroke-opacity:1" />
  <path
     style="fill:none;stroke:#000000;stroke-width:1px;stroke-linecap:butt;stroke-linejoin:miter;stroke-opacity:1"
     d="m 300.06126,72.597657 4,-4"
     id="path4970-5-0-2-8"
     inkscape:connector-curvature="0" />
  <path
     style="fill:none;stroke:#000000;stroke-width:1px;stroke-linecap:butt;stroke-linejoin:miter;stroke-opacity:1"
     d="m 300.06126,68.597657 4,4"
     id="path4972-5-7-7-0"
     inkscape:connector-curvature="0" />
  <path
     sodipodi:nodetypes="cc"
     style="fill:none;stroke:#000000;stroke-width:1px;stroke-linecap:butt;stroke-linejoin:miter;stroke-opacity:1;marker-end:url(#marker53023337)"
     d="M 302.06125,70.636049 V 88.028011"
     id="path3779-5-5-5-7-1"
     inkscape:connector-curvature="0"
     inkscape:transform-center-y="8.7766694" />
  <circle
     r="20"
     cy="105.59766"
     cx="302.06125"
     id="path6688-8-6-9-3-1"
     style="fill:none;stroke:#000000;stroke-width:1;stroke-linecap:butt;stroke-linejoin:miter;stroke-miterlimit:4;stroke-dasharray:2, 1;stroke-dashoffset:0;stroke-opacity:1" />
  <path
     style="fill:none;stroke:#000000;stroke-width:1px;stroke-linecap:butt;stroke-linejoin:miter;stroke-opacity:1"
     d="m 300.06126,103.59766 4,4"
     id="path4970-5-8-8-1"
     inkscape:connector-curvature="0" />
  <path
     style="fill:none;stroke:#000000;stroke-width:1px;stroke-linecap:butt;stroke-linejoin:miter;stroke-opacity:1"
     d="m 300.06126,107.59766 4,-4"
     id="path4972-5-2-1-8"
     inkscape:connector-curvature="0" />
  <path
     inkscape:transform-center-y="8.7766714"
     inkscape:connector-curvature="0"
     id="path3779-5-5-4-7-4"
     d="M 302.06126,105.30335 V 115.9778"
     style="fill:none;stroke:#000000;stroke-width:1px;stroke-linecap:butt;stroke-linejoin:miter;stroke-opacity:1;marker-end:url(#marker53843299)"
     sodipodi:nodetypes="cc" />
  <circle
     r="20"
     cy="28.942308"
     cx="166.2437"
     id="path6688-2-1"
     style="fill:none;stroke:#000000;stroke-width:1px;stroke-linecap:butt;stroke-linejoin:miter;stroke-opacity:1" />
  <path
     style="fill:none;stroke:#000000;stroke-width:1px;stroke-linecap:butt;stroke-linejoin:miter;stroke-opacity:1"
     d="m 164.24369,30.942309 4,-4"
     id="path4970-5-4"
     inkscape:connector-curvature="0" />
  <path
     style="fill:none;stroke:#000000;stroke-width:1px;stroke-linecap:butt;stroke-linejoin:miter;stroke-opacity:1"
     d="m 164.24369,26.942309 4,4"
     id="path4972-5-8"
     inkscape:connector-curvature="0" />
  <path
     sodipodi:nodetypes="cc"
     style="fill:none;stroke:#000000;stroke-width:1px;stroke-linecap:butt;stroke-linejoin:miter;stroke-opacity:1;marker-end:url(#marker52167735)"
     d="M 166.24369,28.647997 V 46.039959"
     id="path3779-5-5-2"
     inkscape:connector-curvature="0" />
  <circle
     id="path6688-8-6-9"
     style="fill:none;stroke:#000000;stroke-width:1;stroke-linecap:butt;stroke-linejoin:miter;stroke-miterlimit:4;stroke-dasharray:2, 1;stroke-dashoffset:0;stroke-opacity:1"
     cx="166.2437"
     cy="70.597656"
     r="20" />
  <path
     style="fill:none;stroke:#000000;stroke-width:1px;stroke-linecap:butt;stroke-linejoin:miter;stroke-opacity:1"
     d="m 164.24369,72.597657 4,-4"
     id="path4970-5-0-2"
     inkscape:connector-curvature="0" />
  <path
     style="fill:none;stroke:#000000;stroke-width:1px;stroke-linecap:butt;stroke-linejoin:miter;stroke-opacity:1"
     d="m 164.24369,68.597657 4,4"
     id="path4972-5-7-7"
     inkscape:connector-curvature="0" />
  <path
     sodipodi:nodetypes="cc"
     style="fill:none;stroke:#000000;stroke-width:1px;stroke-linecap:butt;stroke-linejoin:miter;stroke-opacity:1;marker-end:url(#marker52262019)"
     d="M 166.24369,70.89197 V 53.500008"
     id="path3779-5-5-5-7"
     inkscape:connector-curvature="0"
     inkscape:transform-center-y="-8.7766694" />
  <circle
     r="20"
     cy="105.59766"
     cx="166.2437"
     id="path6688-8-6-9-3"
     style="fill:none;stroke:#000000;stroke-width:1;stroke-linecap:butt;stroke-linejoin:miter;stroke-miterlimit:4;stroke-dasharray:2, 1;stroke-dashoffset:0;stroke-opacity:1" />
  <path
     style="fill:none;stroke:#000000;stroke-width:1px;stroke-linecap:butt;stroke-linejoin:miter;stroke-opacity:1"
     d="m 164.24369,103.59766 4,4"
     id="path4970-5-8-8"
     inkscape:connector-curvature="0" />
  <path
     style="fill:none;stroke:#000000;stroke-width:1px;stroke-linecap:butt;stroke-linejoin:miter;stroke-opacity:1"
     d="m 164.24369,107.59766 4,-4"
     id="path4972-5-2-1"
     inkscape:connector-curvature="0" />
  <path
     sodipodi:nodetypes="cc"
     style="fill:none;stroke:#000000;stroke-width:1px;stroke-linecap:butt;stroke-linejoin:miter;stroke-opacity:1;marker-end:url(#marker54723824)"
     d="M 166.24369,105.30335 V 115.9778"
     id="path3779-5-5-4-7"
     inkscape:connector-curvature="0"
     inkscape:transform-center-y="8.7766714" />
  <use
     style="fill:#000000;fill-opacity:1;stroke-width:0.0000001"
     id="use5299"
     y="134.765"
     x="223.43201"
     xlink:href="#textext-fda823bf-1"
     width="183.54582"
     height="98.800972"
     transform="matrix(1.6670873,0,0,1.6670873,-38.164014,-73.809619)" />
  <path
     style="fill:none;stroke:#000000;stroke-width:1;stroke-linecap:square;stroke-linejoin:miter;stroke-miterlimit:4;stroke-dasharray:2, 4;stroke-dashoffset:0;stroke-opacity:1;marker-end:none"
     d="m 98.150253,134.8983 0,-132.6229633"
     id="path4068-4-6-5"
     inkscape:connector-curvature="0"
     sodipodi:nodetypes="cc" />
  <path
     sodipodi:nodetypes="ccccccccccccccccc"
     inkscape:connector-curvature="0"
     id="path4562"
     d="m 94.162593,75.316495 3.58731,4.959711 4.065867,-5.038138 0.61872,5.922018 5.65685,-2.03293 -3.43941,4.63577 1.93681,2.52369 -2.2945,2.78086 1.41062,4.55537 -4.77297,-2.47487 -4.419423,3.88908 -2.121321,-4.77297 -5.126524,1.76777 2.49632,-5.92462 -3.551776,-4.14797 4.511485,-0.36612 z"
     style="fill:#ffffff;stroke:#000000;stroke-width:1px;stroke-linecap:butt;stroke-linejoin:miter;stroke-opacity:1" />
  <path
     style="fill:none;stroke:#000000;stroke-width:1;stroke-linecap:square;stroke-linejoin:miter;stroke-miterlimit:4;stroke-dasharray:2, 4;stroke-dashoffset:0;stroke-opacity:1;marker-end:none"
     d="m 233.96782,135.25185 0,-132.9765133"
     id="path4068-4-6-5-5"
     inkscape:connector-curvature="0"
     sodipodi:nodetypes="cc" />
  <path
     sodipodi:nodetypes="ccccccccccccccccc"
     inkscape:connector-curvature="0"
     id="path4562-0-8"
     d="m 229.98016,37.604696 3.58731,4.959709 4.06586,-5.038136 0.61872,5.922019 5.65685,-2.032932 -3.4394,4.635769 1.9368,2.523688 -2.29449,2.780861 1.41061,4.555372 -4.77297,-2.474874 -4.41942,3.889088 -2.12132,-4.772971 -5.12652,1.767766 2.49632,-5.924621 -3.55178,-4.147971 4.51149,-0.366117 z"
     style="fill:#ffffff;stroke:#000000;stroke-width:1px;stroke-linecap:butt;stroke-linejoin:miter;stroke-opacity:1" />
  <path
     style="fill:#ffffff;fill-rule:evenodd;stroke:#000000;stroke-width:2;stroke-linecap:butt;stroke-linejoin:miter;stroke-miterlimit:4;stroke-dasharray:none;stroke-opacity:1;marker-end:url(#marker579622013397)"
     d="M 0.0052656,133.70647 335.72132,135.47424"
     id="path4268"
     inkscape:connector-curvature="0"
     sodipodi:nodetypes="cc" />
  <g
     style="fill:#000000"
     transform="matrix(2,0,0,2,-364.37938,-116.00001)"
     ns0:text="$\\Delta t_1$"
     ns0:preamble="/home/mjki2mb2/.config/inkscape/extensions/preamble.ini"
     id="g6453">
    <defs
       id="defs6455">
      <g
         id="g6457">
        <symbol
           style="overflow:visible"
           overflow="visible"
           id="textext-80e102c9-0">
          <path
             inkscape:connector-curvature="0"
             style="stroke:none"
             d=""
             id="path6460" />
        </symbol>
        <symbol
           style="overflow:visible"
           overflow="visible"
           id="textext-80e102c9-1">
          <path
             inkscape:connector-curvature="0"
             style="stroke:none"
             d="m 4.40625,-6.953125 c -0.0625,-0.140625 -0.09375,-0.1875 -0.265625,-0.1875 -0.15625,0 -0.1875,0.046875 -0.25,0.1875 l -3.375,6.75 C 0.46875,-0.109375 0.46875,-0.09375 0.46875,-0.078125 0.46875,0 0.53125,0 0.6875,0 l 6.921875,0 c 0.15625,0 0.21875,0 0.21875,-0.078125 0,-0.015625 0,-0.03125 -0.046875,-0.125 z m -0.578125,0.8125 2.6875,5.390625 -5.375,0 z m 0,0"
             id="path6463" />
        </symbol>
        <symbol
           style="overflow:visible"
           overflow="visible"
           id="textext-80e102c9-2">
          <path
             inkscape:connector-curvature="0"
             style="stroke:none"
             d=""
             id="path6466" />
        </symbol>
        <symbol
           style="overflow:visible"
           overflow="visible"
           id="textext-80e102c9-3">
          <path
             inkscape:connector-curvature="0"
             style="stroke:none"
             d="m 2.046875,-3.984375 0.9375,0 c 0.203125,0 0.3125,0 0.3125,-0.203125 0,-0.109375 -0.109375,-0.109375 -0.28125,-0.109375 l -0.875,0 C 2.5,-5.71875 2.546875,-5.90625 2.546875,-5.96875 c 0,-0.171875 -0.125,-0.265625 -0.296875,-0.265625 -0.03125,0 -0.3125,0 -0.390625,0.359375 l -0.390625,1.578125 -0.9375,0 c -0.203125,0 -0.296875,0 -0.296875,0.1875 0,0.125 0.078125,0.125 0.28125,0.125 l 0.875,0 C 0.671875,-1.15625 0.625,-0.984375 0.625,-0.8125 0.625,-0.265625 1,0.109375 1.546875,0.109375 2.5625,0.109375 3.125,-1.34375 3.125,-1.421875 3.125,-1.53125 3.046875,-1.53125 3.015625,-1.53125 2.921875,-1.53125 2.90625,-1.5 2.859375,-1.390625 2.4375,-0.34375 1.90625,-0.109375 1.5625,-0.109375 c -0.203125,0 -0.3125,-0.125 -0.3125,-0.453125 0,-0.25 0.03125,-0.3125 0.0625,-0.484375 z m 0,0"
             id="path6469" />
        </symbol>
        <symbol
           style="overflow:visible"
           overflow="visible"
           id="textext-80e102c9-4">
          <path
             inkscape:connector-curvature="0"
             style="stroke:none"
             d=""
             id="path6472" />
        </symbol>
        <symbol
           style="overflow:visible"
           overflow="visible"
           id="textext-80e102c9-5">
          <path
             inkscape:connector-curvature="0"
             style="stroke:none"
             d="m 2.328125,-4.4375 c 0,-0.1875 0,-0.1875 -0.203125,-0.1875 -0.453125,0.4375 -1.078125,0.4375 -1.359375,0.4375 l 0,0.25 c 0.15625,0 0.625,0 1,-0.1875 l 0,3.546875 c 0,0.234375 0,0.328125 -0.6875,0.328125 l -0.265625,0 0,0.25 c 0.125,0 0.984375,-0.03125 1.234375,-0.03125 0.21875,0 1.09375,0.03125 1.25,0.03125 l 0,-0.25 -0.265625,0 c -0.703125,0 -0.703125,-0.09375 -0.703125,-0.328125 z m 0,0"
             id="path6475" />
        </symbol>
      </g>
    </defs>
    <g
       style="fill:#000000"
       id="textext-80e102c9-6">
      <g
         style="fill:#000000;fill-opacity:1"
         id="g6478">
        <use
           style="fill:#000000"
           height="100%"
           width="100%"
           xlink:href="#textext-80e102c9-1"
           x="223.43201"
           y="134.765"
           id="use6480" />
      </g>
      <g
         style="fill:#000000;fill-opacity:1"
         id="g6482">
        <use
           style="fill:#000000"
           height="100%"
           width="100%"
           xlink:href="#textext-80e102c9-3"
           x="231.73399"
           y="134.765"
           id="use6484" />
      </g>
      <g
         style="fill:#000000;fill-opacity:1"
         id="g6486">
        <use
           style="fill:#000000"
           height="100%"
           width="100%"
           xlink:href="#textext-80e102c9-5"
           x="235.332"
           y="136.259"
           id="use6488" />
      </g>
    </g>
  </g>
  <g
     id="g6849"
     style="fill:#000000"
     transform="matrix(2,0,0,2,-228.78056,-116.00001)"
     ns0:preamble="/home/mjki2mb2/.config/inkscape/extensions/preamble.ini"
     ns0:text="$\\Delta t_2$">
    <defs
       id="defs6851">
      <g
         id="g6853">
        <symbol
           id="textext-16094691-0"
           overflow="visible"
           style="overflow:visible">
          <path
             id="path6856"
             d=""
             style="stroke:none"
             inkscape:connector-curvature="0" />
        </symbol>
        <symbol
           id="textext-16094691-1"
           overflow="visible"
           style="overflow:visible">
          <path
             id="path6859"
             d="m 4.40625,-6.953125 c -0.0625,-0.140625 -0.09375,-0.1875 -0.265625,-0.1875 -0.15625,0 -0.1875,0.046875 -0.25,0.1875 l -3.375,6.75 C 0.46875,-0.109375 0.46875,-0.09375 0.46875,-0.078125 0.46875,0 0.53125,0 0.6875,0 l 6.921875,0 c 0.15625,0 0.21875,0 0.21875,-0.078125 0,-0.015625 0,-0.03125 -0.046875,-0.125 z m -0.578125,0.8125 2.6875,5.390625 -5.375,0 z m 0,0"
             style="stroke:none"
             inkscape:connector-curvature="0" />
        </symbol>
        <symbol
           id="textext-16094691-2"
           overflow="visible"
           style="overflow:visible">
          <path
             id="path6862"
             d=""
             style="stroke:none"
             inkscape:connector-curvature="0" />
        </symbol>
        <symbol
           id="textext-16094691-3"
           overflow="visible"
           style="overflow:visible">
          <path
             id="path6865"
             d="m 2.046875,-3.984375 0.9375,0 c 0.203125,0 0.3125,0 0.3125,-0.203125 0,-0.109375 -0.109375,-0.109375 -0.28125,-0.109375 l -0.875,0 C 2.5,-5.71875 2.546875,-5.90625 2.546875,-5.96875 c 0,-0.171875 -0.125,-0.265625 -0.296875,-0.265625 -0.03125,0 -0.3125,0 -0.390625,0.359375 l -0.390625,1.578125 -0.9375,0 c -0.203125,0 -0.296875,0 -0.296875,0.1875 0,0.125 0.078125,0.125 0.28125,0.125 l 0.875,0 C 0.671875,-1.15625 0.625,-0.984375 0.625,-0.8125 0.625,-0.265625 1,0.109375 1.546875,0.109375 2.5625,0.109375 3.125,-1.34375 3.125,-1.421875 3.125,-1.53125 3.046875,-1.53125 3.015625,-1.53125 2.921875,-1.53125 2.90625,-1.5 2.859375,-1.390625 2.4375,-0.34375 1.90625,-0.109375 1.5625,-0.109375 c -0.203125,0 -0.3125,-0.125 -0.3125,-0.453125 0,-0.25 0.03125,-0.3125 0.0625,-0.484375 z m 0,0"
             style="stroke:none"
             inkscape:connector-curvature="0" />
        </symbol>
        <symbol
           id="textext-16094691-4"
           overflow="visible"
           style="overflow:visible">
          <path
             id="path6868"
             d=""
             style="stroke:none"
             inkscape:connector-curvature="0" />
        </symbol>
        <symbol
           id="textext-16094691-5"
           overflow="visible"
           style="overflow:visible">
          <path
             id="path6871"
             d="m 3.515625,-1.265625 -0.234375,0 c -0.015625,0.15625 -0.09375,0.5625 -0.1875,0.625 -0.046875,0.046875 -0.578125,0.046875 -0.6875,0.046875 l -1.28125,0 c 0.734375,-0.640625 0.984375,-0.84375 1.390625,-1.171875 0.515625,-0.40625 1,-0.84375 1,-1.5 0,-0.84375 -0.734375,-1.359375 -1.625,-1.359375 -0.859375,0 -1.453125,0.609375 -1.453125,1.25 0,0.34375 0.296875,0.390625 0.375,0.390625 0.15625,0 0.359375,-0.125 0.359375,-0.375 0,-0.125 -0.046875,-0.375 -0.40625,-0.375 C 0.984375,-4.21875 1.453125,-4.375 1.78125,-4.375 c 0.703125,0 1.0625,0.546875 1.0625,1.109375 0,0.609375 -0.4375,1.078125 -0.65625,1.328125 L 0.515625,-0.265625 C 0.4375,-0.203125 0.4375,-0.1875 0.4375,0 l 2.875,0 z m 0,0"
             style="stroke:none"
             inkscape:connector-curvature="0" />
        </symbol>
      </g>
    </defs>
    <g
       id="textext-16094691-6"
       style="fill:#000000">
      <g
         id="g6874"
         style="fill:#000000;fill-opacity:1">
        <use
           id="use6876"
           y="134.765"
           x="223.43201"
           xlink:href="#textext-16094691-1"
           style="fill:#000000"
           width="100%"
           height="100%" />
      </g>
      <g
         id="g6878"
         style="fill:#000000;fill-opacity:1">
        <use
           id="use6880"
           y="134.765"
           x="231.73399"
           xlink:href="#textext-16094691-3"
           style="fill:#000000"
           width="100%"
           height="100%" />
      </g>
      <g
         id="g6882"
         style="fill:#000000;fill-opacity:1">
        <use
           id="use6884"
           y="136.259"
           x="235.332"
           xlink:href="#textext-16094691-5"
           style="fill:#000000"
           width="100%"
           height="100%" />
      </g>
    </g>
  </g>
</svg>
