<?xml version="1.0" encoding="UTF-8" standalone="no"?>
<!-- Created with Inkscape (http://www.inkscape.org/) -->

<svg
   xmlns:dc="http://purl.org/dc/elements/1.1/"
   xmlns:cc="http://creativecommons.org/ns#"
   xmlns:rdf="http://www.w3.org/1999/02/22-rdf-syntax-ns#"
   xmlns:svg="http://www.w3.org/2000/svg"
   xmlns="http://www.w3.org/2000/svg"
   xmlns:sodipodi="http://sodipodi.sourceforge.net/DTD/sodipodi-0.dtd"
   xmlns:inkscape="http://www.inkscape.org/namespaces/inkscape"
   id="svg2"
   version="1.1"
   inkscape:version="0.91 r13725"
   xml:space="preserve"
   viewBox="0 0 219.75063 358.20108"
   preserveAspectRatio="xMidYMid meet"
   sodipodi:docname="Classical_limits.svg"
   width="219.75063"
   height="358.20108"><metadata
     id="metadata8"><rdf:RDF><cc:Work
         rdf:about=""><dc:format>image/svg+xml</dc:format><dc:type
           rdf:resource="http://purl.org/dc/dcmitype/StillImage" /><dc:title></dc:title></cc:Work></rdf:RDF></metadata><defs
     id="defs6"><clipPath
       clipPathUnits="userSpaceOnUse"
       id="clipPath1904"><path
         d="M 0,0 612,0 612,792 0,792 0,0 Z"
         id="path1906"
         inkscape:connector-curvature="0" /></clipPath></defs><sodipodi:namedview
     pagecolor="#767676"
     bordercolor="#666666"
     borderopacity="1"
     objecttolerance="10"
     gridtolerance="10"
     guidetolerance="10"
     inkscape:pageopacity="0"
     inkscape:pageshadow="2"
     inkscape:window-width="3200"
     inkscape:window-height="1691"
     id="namedview4"
     showgrid="false"
     inkscape:zoom="1.9070707"
     inkscape:cx="94.488778"
     inkscape:cy="141.51086"
     inkscape:window-x="0"
     inkscape:window-y="0"
     inkscape:window-maximized="1"
     inkscape:current-layer="g10"
     fit-margin-top="0"
     fit-margin-left="0"
     fit-margin-right="0"
     fit-margin-bottom="0" /><g
     id="g10"
     inkscape:groupmode="layer"
     inkscape:label="Eapen_etal_2010"
     transform="matrix(1.25,0,0,-1.25,-195.14364,911.14433)"><path
       style="fill:#ffffff"
       d="m 206.63463,512.67459 0,70.32 62.64,0 62.63999,0 0,-70.32 0,-70.31999 -62.63999,0 -62.64,0 z m 9.94069,43.64641 c 1.44031,0.84543 2.0832,2.51176 1.71869,4.45478 -0.26636,1.41978 -1.92228,2.77886 -3.38581,2.77886 -1.96257,0 -3.71357,-1.87181 -3.71357,-3.96978 0,-0.58862 0.0857,-1.07022 0.19037,-1.07022 0.10471,0 0.29371,-0.33413 0.42,-0.74251 0.133,-0.43005 0.53262,-0.90979 0.94963,-1.14 0.396,-0.21862 0.756,-0.47849 0.8,-0.57749 0.14995,-0.33738 2.31779,-0.14622 3.02069,0.26636 z m 7.33931,-0.20636 c 0,0.132 0.14415,0.24 0.32033,0.24 0.34598,0 1.38818,1.07638 1.81574,1.87529 0.48481,0.90586 0.31525,2.50948 -0.37845,3.57933 -1.0176,1.56936 -2.81005,2.14568 -4.43544,1.42609 -1.06393,-0.47101 -1.78588,-1.34363 -2.16866,-2.62122 -0.24269,-0.81003 -0.21971,-1.14295 0.15092,-2.1865 0.41015,-1.15479 0.75679,-1.55448 1.93356,-2.22946 0.59999,-0.34415 2.762,-0.40953 2.762,-0.0835 z m 7.92,-0.0385 c 0,0.11082 0.26481,0.32213 0.58846,0.4696 0.84783,0.3863 1.33963,1.51835 1.3624,3.13607 0.0217,1.54514 -0.26213,2.27161 -1.20857,3.0928 -1.1708,1.01586 -3.31584,1.00391 -4.37306,-0.0244 -1.29593,-1.26043 -1.48923,-1.65714 -1.48923,-3.05633 0,-1.03576 0.1267,-1.52673 0.52916,-2.05054 0.92287,-1.20113 1.94501,-1.73965 3.33084,-1.75487 0.693,-0.008 1.26,0.0768 1.26,0.18764 z m 7.68,0.0385 c 0,0.132 0.16132,0.24 0.3585,0.24 0.19717,0 0.68317,0.4482 1.08,0.99601 1.40816,1.94391 0.81126,4.6631 -1.2671,5.77221 -1.81443,0.96827 -3.71818,0.22987 -4.9114,-1.90497 -0.37063,-0.66311 -0.3907,-2.32533 -0.0361,-2.98796 0.42756,-0.79891 1.46976,-1.87529 1.81574,-1.87529 0.17618,0 0.32033,-0.108 0.32033,-0.24 0,-0.132 0.594,-0.24 1.32,-0.24 0.726,0 1.32,0.108 1.32,0.24 z m 7.68,-0.0586 c 0,0.0998 0.32636,0.32587 0.72524,0.50244 0.94065,0.41637 1.67476,1.92479 1.67476,3.44123 0,0.6352 -0.108,1.15492 -0.24,1.15492 -0.132,0 -0.24,0.1361 -0.24,0.30245 0,0.55068 -1.18752,1.59454 -2.13793,1.87929 -0.51467,0.1542 -1.31181,0.20982 -1.77141,0.1236 -0.91428,-0.17152 -2.57066,-1.56924 -2.57066,-2.16923 0,-0.20686 -0.108,-0.37611 -0.24,-0.37611 -0.41897,0 -0.25888,-1.79076 0.25521,-2.85482 0.27237,-0.56373 0.81169,-1.20502 1.19848,-1.42508 0.3868,-0.22005 0.70396,-0.4811 0.70479,-0.5801 7.2e-4,-0.099 0.59552,-0.18 1.32152,-0.18 0.726,0 1.32,0.0816 1.32,0.18141 z m 8.10844,0.22173 c 1.46889,0.90885 1.83596,1.51553 1.92745,3.1856 0.0782,1.42677 0.0234,1.65209 -0.59491,2.45033 -1.71033,2.20786 -4.46702,2.15128 -5.89228,-0.12092 -0.73424,-1.17055 -0.82707,-1.63253 -0.57976,-2.88539 0.20631,-1.04515 0.54,-1.52281 1.95106,-2.79276 0.4143,-0.37287 2.49414,-0.26645 3.18844,0.16314 z m 8.05451,0.12529 c 0.9648,0.67346 1.04736,0.79604 1.46696,2.17808 0.49667,1.63591 -0.0479,3.31173 -1.39288,4.286 -1.47533,1.06872 -3.06476,0.87187 -4.58586,-0.56795 -0.61003,-0.57744 -0.72237,-0.88362 -0.80598,-2.19673 -0.0692,-1.08672 0.0167,-1.76574 0.29856,-2.35969 0.80122,-1.68846 3.49102,-2.40641 5.0192,-1.33971 z m 7.11705,-0.28843 c 0,0.132 0.14149,0.24 0.31444,0.24 0.17294,0 0.65343,0.33143 1.06777,0.73652 0.91883,0.89833 1.22455,2.42229 0.78385,3.90736 -0.82101,2.76667 -4.21078,3.4036 -6.19284,1.16362 -0.69931,-0.79032 -0.85617,-1.44399 -0.72528,-3.02241 0.11078,-1.33586 0.70713,-2.24777 1.89812,-2.90251 0.68028,-0.37398 2.85394,-0.46734 2.85394,-0.12258 z m 8.25137,0.25491 c 2.51084,1.48143 2.4102,5.56498 -0.1673,6.78809 -2.92238,1.38676 -6.01804,-1.56947 -4.96972,-4.74589 0.30131,-0.91298 1.33759,-2.05711 1.86319,-2.05711 0.16635,0 0.30246,-0.108 0.30246,-0.24 0,-0.44078 2.09719,-0.26087 2.97137,0.25491 z m 7.98428,0.0828 c 1.14727,0.77959 1.52435,1.6026 1.52435,3.32706 0,1.19617 -0.11055,1.59484 -0.63164,2.27803 -0.67131,0.88013 -1.84139,1.49719 -2.83901,1.49719 -1.03209,0 -2.51848,-0.78633 -2.83406,-1.49927 -0.16086,-0.3634 -0.36208,-0.66073 -0.44717,-0.66073 -0.27318,0 -0.47508,-1.65223 -0.30966,-2.53402 0.14075,-0.75025 0.71553,-1.49865 2.05365,-2.67398 0.59326,-0.52109 2.54471,-0.37223 3.48354,0.26572 z m 7.76911,0.0253 c 0.52538,0.33165 0.95523,0.75465 0.95523,0.94 0,0.18534 0.135,0.38199 0.3,0.43699 0.20158,0.0672 0.3,0.64646 0.3,1.76563 0,1.39558 -0.0876,1.75961 -0.54,2.24525 -0.297,0.3188 -0.54,0.64726 -0.54,0.72992 0,0.28055 -1.69275,0.9592 -2.39251,0.9592 -0.99839,0 -1.77475,-0.34688 -2.61525,-1.16849 -0.8792,-0.85944 -1.08947,-1.57512 -0.93503,-3.18241 0.27029,-2.81302 3.09715,-4.22247 5.46756,-2.72609 z m 7.25763,-0.30301 c 0.76716,0.42948 1.6176,1.34875 1.87565,2.02746 0.50178,1.31978 0.14957,3.37711 -0.71625,4.18374 -1.85818,1.73116 -4.34333,1.44539 -5.60573,-0.64461 -1.56081,-2.58402 0.0229,-5.79105 2.88719,-5.84671 0.56279,-0.0109 1.2644,0.11512 1.55914,0.28012 z m 7.6176,-0.11859 c 0,0.0998 0.324,0.32483 0.72,0.50012 0.396,0.17528 0.72,0.46265 0.72,0.63858 0,0.17594 0.1231,0.36092 0.27355,0.41107 0.15045,0.0502 0.35977,0.7266 0.46516,1.50322 0.22934,1.68998 -0.0804,2.61099 -1.19314,3.54725 -2.72293,2.2912 -6.78095,-0.52758 -5.81194,-4.03707 0.26383,-0.95549 1.34556,-2.26458 1.87127,-2.26458 0.17331,0 0.3151,-0.108 0.3151,-0.24 0,-0.132 0.594,-0.24 1.32,-0.24 0.726,0 1.32,0.0816 1.32,0.18141 z m 8.3708,0.42775 c 1.17622,0.77839 1.4692,1.44723 1.4692,3.35402 0,1.44078 -0.0572,1.60278 -0.88246,2.50037 -1.1109,1.20823 -2.47923,1.50504 -3.92757,0.85192 -1.03576,-0.46706 -1.49503,-1.04086 -1.99528,-2.49285 -0.55491,-1.61063 -0.0569,-2.8576 1.80153,-4.51062 0.59866,-0.53251 2.52568,-0.3705 3.53458,0.29716 z m 7.56773,-0.11003 c 0.90131,0.53179 1.65956,1.59548 1.91747,2.68986 0.16783,0.71216 -0.22598,2.57101 -0.54469,2.57101 -0.10461,0 -0.32893,0.25922 -0.4985,0.57606 -0.44076,0.82357 -1.94341,1.44397 -3.05895,1.26294 -1.08214,-0.17561 -1.91723,-0.75658 -2.6751,-1.86107 -0.46278,-0.67444 -0.54492,-1.05142 -0.46824,-2.14884 0.10411,-1.48979 0.65981,-2.45141 1.68948,-2.9236 0.363,-0.16646 0.66,-0.3843 0.66,-0.48408 0,-0.3962 2.15882,-0.16592 2.97853,0.31772 z m -109.41852,7.90087 c 0.0816,0.132 0.33096,0.24186 0.55417,0.24414 0.50743,0.005 1.39352,0.92179 1.7192,1.77842 0.26863,0.70654 0.29101,2.3615 0.0427,3.15828 -0.0858,0.27546 -0.45486,0.85286 -0.82003,1.28311 -0.57462,0.67702 -0.85458,0.79957 -2.08059,0.91074 -1.76627,0.16016 -2.90735,-0.44576 -3.62095,-1.92275 -0.46327,-0.95885 -0.66018,-3.05194 -0.28712,-3.05194 0.10306,0 0.30595,-0.31414 0.45087,-0.69808 0.34965,-0.92631 1.88414,-1.90989 3.00758,-1.9278 0.48721,-0.008 0.95258,0.0939 1.03416,0.22588 z m 8.3176,0.16541 c 0.50538,0.22297 0.98095,0.60097 1.05681,0.84 0.0759,0.23902 0.22133,0.43459 0.32324,0.43459 0.32986,0 0.74235,1.19782 0.74235,2.15566 0,1.21586 -0.26586,1.85911 -1.19214,2.88434 -0.73336,0.8117 -0.81703,0.84 -2.48403,0.84 -1.63526,0 -1.76412,-0.0408 -2.47444,-0.78419 -1.01018,-1.05714 -1.45102,-2.64993 -1.078,-3.89494 0.2985,-0.99631 1.51948,-2.40087 2.08707,-2.40087 0.18785,0 0.34154,-0.108 0.34154,-0.24 0,-0.38167 1.67169,-0.2784 2.6776,0.16541 z m 7.59425,-0.0335 c 0.41008,0.20457 1.02067,0.69886 1.35687,1.09841 0.53283,0.63323 0.61128,0.95124 0.61128,2.47788 0,1.67165 -0.0388,1.7938 -0.852,2.68159 -0.83204,0.90837 -0.89087,0.93017 -2.5113,0.93017 l -1.65931,0 -0.96869,-1.0704 c -0.96101,-1.0619 -1.10959,-1.52634 -0.99599,-3.11329 0.072,-1.00559 1.15073,-2.60869 1.88729,-2.80467 0.297,-0.079 0.54,-0.23997 0.54,-0.35766 0,-0.3514 1.78942,-0.24234 2.59185,0.15797 z m 7.90067,0.0249 c 2.03629,1.16867 2.63965,3.91086 1.27501,5.79469 -0.94748,1.30796 -1.48981,1.56048 -3.10111,1.44393 -1.35504,-0.098 -2.42642,-0.68474 -2.42642,-1.32878 0,-0.16867 -0.081,-0.30751 -0.18,-0.30854 -0.30867,-0.003 -0.78,-1.25686 -0.78,-2.07468 0,-1.36541 0.9208,-2.86529 2.18607,-3.56086 0.81311,-0.44701 2.21558,-0.43114 3.02645,0.0342 z m 7.8194,-10e-4 c 0.76573,0.39453 1.21928,0.89454 1.78808,1.97125 0.35706,0.67601 0.40314,2.91313 0.06,2.91313 -0.132,0 -0.24,0.16298 -0.24,0.36218 0,0.1992 -0.32383,0.70104 -0.71962,1.11519 -0.56613,0.59241 -0.97286,0.77735 -1.90698,0.8671 -0.65305,0.0628 -1.43847,0.0511 -1.74538,-0.026 -0.75028,-0.1883 -2.10802,-1.54538 -2.10802,-2.10699 0,-0.24834 -0.108,-0.45152 -0.24,-0.45152 -0.132,0 -0.24,-0.54 -0.24,-1.2 0,-0.66 0.0949,-1.2 0.21088,-1.2 0.11599,0 0.34887,-0.33311 0.5175,-0.74024 0.66127,-1.59644 2.98013,-2.35076 4.62354,-1.50402 z m 7.36808,-0.18164 c 0,0.11769 0.243,0.28044 0.54,0.36166 0.297,0.0812 0.84644,0.55193 1.22098,1.04602 0.61827,0.81561 0.67299,1.04431 0.59413,2.48343 -0.0732,1.33682 -0.19872,1.71876 -0.80098,2.43845 -0.78932,0.94319 -2.06073,1.30883 -3.66743,1.05469 -1.62332,-0.25677 -3.16572,-2.80799 -2.69337,-4.45499 0.30858,-1.07593 1.28466,-2.42193 1.86667,-2.57409 0.297,-0.0777 0.54,-0.23748 0.54,-0.35517 0,-0.11769 0.54,-0.21398 1.2,-0.21398 0.66,0 1.2,0.0963 1.2,0.21398 z m 8.51044,0.45909 c 0.7367,0.50934 1.0504,0.95533 1.39491,1.98316 0.43964,1.31158 0.43895,1.34082 -0.0633,2.6833 -0.69613,1.86056 -1.63934,2.45453 -3.61351,2.27552 -1.2144,-0.11012 -1.51608,-0.24087 -2.14941,-0.93158 -0.90286,-0.98465 -1.04445,-1.50099 -0.91236,-3.32717 0.0852,-1.17819 0.22577,-1.55112 0.80822,-2.14459 0.38778,-0.39511 0.89405,-0.72138 1.12505,-0.72505 0.231,-0.004 0.42,-0.11466 0.42,-0.24666 0,-0.52499 2.02994,-0.23101 2.99044,0.43307 z m 7.32162,-0.28775 c 1.36052,0.60026 2.04794,1.80052 2.04794,3.57577 0,1.25305 -0.10336,1.61178 -0.68359,2.37249 -0.8709,1.14181 -1.61177,1.42186 -3.35933,1.26983 -1.04936,-0.0913 -1.48922,-0.24526 -1.74535,-0.61094 -0.18833,-0.26888 -0.52902,-0.67547 -0.75708,-0.90353 -0.31985,-0.31985 -0.41465,-0.83011 -0.41465,-2.2318 0,-1.66218 0.0559,-1.87214 0.6558,-2.46203 1.39029,-1.36717 2.7273,-1.68437 4.25626,-1.00979 z m 7.79618,0.0174 c 1.24698,0.59465 2.05176,1.94987 2.05176,3.4551 0,1.09567 -0.53372,2.60127 -0.99781,2.81478 -0.0868,0.0399 -0.4108,0.29315 -0.72,0.5627 -0.4664,0.40658 -0.8124,0.47441 -2.03055,0.39804 -1.33642,-0.0838 -1.54564,-0.17401 -2.3285,-1.00408 -2.85884,-3.03126 0.34207,-7.98285 4.0251,-6.22654 z m 7.61158,-0.10272 c 1.51484,0.79077 2.12018,1.83575 2.12018,3.66 0,1.4901 -0.24256,2.10645 -1.17651,2.98953 -0.8049,0.76106 -3.30635,1.01333 -3.92395,0.39573 -0.21189,-0.2119 -0.49717,-0.38526 -0.63396,-0.38526 -0.13678,0 -0.37666,-0.243 -0.53307,-0.54 -0.1564,-0.297 -0.39523,-0.61214 -0.53073,-0.7003 -0.1355,-0.0882 -0.25433,-0.85186 -0.26407,-1.6971 -0.0134,-1.16059 0.0851,-1.63963 0.40229,-1.95684 0.231,-0.23103 0.42,-0.51876 0.42,-0.63941 0,-0.12065 0.405,-0.48458 0.9,-0.80874 0.99839,-0.65381 2.32509,-0.78468 3.21982,-0.31761 z m 7.89026,0.12 c 2.59528,1.2284 2.85026,5.08649 0.44553,6.74124 -0.67595,0.46513 -1.04684,0.54507 -2.16592,0.46683 -0.81151,-0.0567 -1.5041,-0.24819 -1.73572,-0.47981 -0.21197,-0.21197 -0.46833,-0.42205 -0.56969,-0.46683 -0.49853,-0.22029 -1.02428,-1.70116 -1.02428,-2.88506 0,-1.62999 0.59626,-2.61407 2.04192,-3.36998 0.97128,-0.50787 1.94431,-0.50994 3.00816,-0.006 z m 7.64927,-0.0317 c 1.24757,0.56285 1.9952,1.60623 2.12595,2.96693 0.14087,1.46613 -0.24339,2.6207 -1.16661,3.5052 -0.65777,0.63018 -0.88937,0.69959 -2.33445,0.69959 -1.84119,0 -2.42062,-0.34688 -3.18228,-1.90508 -0.64745,-1.32454 -0.58955,-2.54414 0.18137,-3.82045 1.01098,-1.67374 2.66214,-2.21941 4.37602,-1.44619 z m 7.85321,-0.0317 c 0.97805,0.5074 2.00182,1.75999 2.03993,2.4959 0.11263,2.17495 -0.15472,3.0297 -1.30854,4.18352 -0.43884,0.43884 -0.79696,0.52396 -2.20453,0.52396 -1.59731,0 -1.71909,-0.0403 -2.45796,-0.81346 -1.1916,-1.2469 -1.52291,-2.77624 -0.91607,-4.22861 0.8927,-2.13654 3.04501,-3.09623 4.84717,-2.16131 z m 7.94759,0.14807 c 1.34416,0.71747 1.73984,1.5185 1.73984,3.52217 0,1.57773 -0.0478,1.72503 -0.84168,2.5917 -0.7743,0.84534 -0.96162,0.92642 -2.34,1.01287 -1.26028,0.079 -1.58994,0.0141 -2.07504,-0.40873 -0.3172,-0.27649 -0.64183,-0.5027 -0.72141,-0.5027 -0.1726,0 -0.68089,-1.11055 -0.97054,-2.1205 -0.21785,-0.75963 0.17485,-2.29887 0.82236,-3.22332 0.94962,-1.35578 2.79303,-1.72203 4.38647,-0.87149 z m 7.83548,-0.007 c 0.46369,0.27358 0.90914,0.70558 0.98989,0.96 0.0808,0.25442 0.23044,0.46258 0.33265,0.46258 0.10222,0 0.31518,0.43169 0.47326,0.95932 0.60631,2.02369 -0.83399,4.46452 -2.78921,4.72677 -1.69058,0.22675 -2.59103,-0.0766 -3.45126,-1.16275 -1.32869,-1.6776 -1.22102,-4.01487 0.24611,-5.3426 1.31587,-1.19085 2.83322,-1.40888 4.19856,-0.60332 z m -108.73746,8.19455 c 2.22492,1.13926 2.50588,4.95503 0.47772,6.48803 -0.70118,0.52999 -1.12749,0.66 -2.16425,0.66 -1.55643,0 -2.53072,-0.61388 -3.21403,-2.02508 -0.48136,-0.99415 -0.62722,-3.01492 -0.21761,-3.01492 0.132,0 0.24,-0.16926 0.24,-0.37612 0,-0.55366 1.61592,-1.9816 2.35857,-2.0842 0.78648,-0.10866 1.93227,0.0515 2.5196,0.35229 z m 8.26208,0.35263 c 1.76608,1.31329 2.0138,3.73426 0.56879,5.55874 -0.85867,1.08416 -1.72834,1.37806 -3.49012,1.17948 -1.96066,-0.22099 -3.42237,-2.68982 -2.80753,-4.74195 0.3331,-1.11181 1.49135,-2.34516 2.38716,-2.54195 0.3528,-0.0775 0.74945,-0.17258 0.88145,-0.21128 0.53356,-0.15645 1.72483,0.21008 2.46025,0.75696 z m 7.06497,-0.4952 c 0.22287,0.0625 0.73587,0.49015 1.14,0.95043 0.68153,0.77622 0.73478,0.96875 0.73478,2.65675 0,1.79401 -0.0133,1.83314 -0.93176,2.75165 -0.88509,0.88509 -1.00749,0.93177 -2.44323,0.93177 -1.48907,0 -1.52683,-0.0165 -2.54823,-1.11333 -1.03496,-1.11136 -1.18145,-1.55059 -1.06407,-3.19036 0.0674,-0.94144 1.11495,-2.54522 1.82729,-2.79753 0.264,-0.0935 0.696,-0.25229 0.96,-0.35285 0.44649,-0.17007 1.36566,-0.10545 2.32522,0.16347 z m 7.87478,0.11549 c 0.33,0.12799 0.897,0.651 1.26,1.16225 0.52999,0.74643 0.66,1.19321 0.66,2.268 0,1.06984 -0.13245,1.52908 -0.66,2.28837 -0.83681,1.20438 -1.63643,1.54441 -3.30626,1.40594 -1.2856,-0.10661 -2.27374,-0.70609 -2.27374,-1.37942 0,-0.13752 -0.0907,-0.25003 -0.20147,-0.25003 -0.33827,0 -0.75858,-1.1713 -0.75763,-2.1113 4.8e-4,-0.48878 0.23125,-1.2667 0.51279,-1.7287 1.20021,-1.96952 2.65403,-2.47436 4.76631,-1.65511 z m 8.16,0.20041 c 0.33,0.23173 0.762,0.73484 0.96,1.11801 0.198,0.38318 0.441,0.73269 0.54,0.77669 0.099,0.044 0.18,0.61314 0.18,1.26477 0,0.84494 -0.16923,1.45284 -0.59,2.11938 -0.84931,1.34539 -1.4669,1.69585 -2.98855,1.69585 -1.58249,0 -2.76346,-0.68808 -3.19239,-1.86 -0.15702,-0.429 -0.37179,-0.78 -0.47727,-0.78 -0.10549,0 -0.19179,-0.486 -0.19179,-1.08 0,-0.594 0.0994,-1.08 0.22093,-1.08 0.12151,0 0.28843,-0.30733 0.37093,-0.68295 0.16007,-0.72877 1.22057,-1.65179 2.2569,-1.96431 0.85158,-0.25681 2.17956,-0.0412 2.91124,0.47256 z m 7.44,-0.197 c 1.04527,0.39946 1.92,1.91291 1.92,3.32196 0,1.43739 -0.40847,2.34493 -1.4498,3.22115 -0.62658,0.52723 -0.98224,0.62859 -2.20578,0.62859 -1.38804,0 -1.50271,-0.0462 -2.36592,-0.95365 -1.51093,-1.58832 -1.5691,-3.75945 -0.14471,-5.40169 1.07182,-1.23575 2.45361,-1.5014 4.24621,-0.81636 z m 7.2,-0.27102 c 0.74406,0.008 1.86087,1.30565 2.22861,2.5896 0.3281,1.14555 0.32543,1.3839 -0.0279,2.48872 -0.52875,1.65343 -1.55509,2.3644 -3.41323,2.3644 -1.12632,0 -1.45774,-0.10569 -2.06975,-0.66 -1.03327,-0.93587 -1.27776,-1.52138 -1.27776,-3.06 0,-1.43097 0.24392,-2.11158 1.02475,-2.85936 0.61842,-0.59223 2.07952,-1.12312 2.69525,-0.97931 0.264,0.0617 0.642,0.11384 0.84,0.11595 z m 7.56,0.0271 c 2.90767,0.79254 3.73808,4.58642 1.46317,6.68477 -0.50514,0.46595 -0.96133,0.60967 -2.18184,0.68739 -1.53884,0.098 -1.54604,0.0954 -2.57225,-0.9105 -1.02427,-1.00404 -1.02908,-1.01688 -1.02908,-2.74452 0,-1.32467 0.0982,-1.83399 0.4147,-2.15047 0.22809,-0.22809 0.50579,-0.57747 0.61712,-0.7764 0.11133,-0.19893 0.62671,-0.51286 1.14529,-0.69762 1.15962,-0.41314 0.99344,-0.40596 2.14289,-0.0926 z m 8.63504,0.28737 c 1.12798,0.5796 1.80496,1.80606 1.80496,3.26998 0,1.45954 -0.5765,2.66488 -1.61724,3.38134 -0.6535,0.44987 -1.01133,0.51812 -2.24761,0.4287 -1.351,-0.0977 -1.53517,-0.18134 -2.26859,-1.03002 -1.36799,-1.58299 -1.37127,-3.82998 -0.008,-5.2758 1.14081,-1.20961 2.88334,-1.52073 4.33617,-0.7742 z m 7.08496,-0.31443 c 0.45156,0.005 1.77271,1.15001 2.13071,1.84694 0.35028,0.68188 0.34692,3.07908 -0.005,3.75155 -0.15099,0.28832 -0.60244,0.82123 -1.00322,1.18423 -0.61181,0.55413 -0.94312,0.65985 -2.06547,0.6591 -1.43309,-9.6e-4 -2.78244,-0.60825 -3.06732,-1.38048 -0.0849,-0.23024 -0.26235,-0.49076 -0.39423,-0.57892 -0.36348,-0.24299 -0.34129,-3.3776 0.0248,-3.49967 0.165,-0.055 0.3,-0.22903 0.3,-0.3867 0,-0.72173 2.2928,-1.93323 3.24,-1.712 0.264,0.0617 0.642,0.11384 0.84,0.11595 z m 8.4177,0.30736 c 0.76803,0.31717 1.57806,1.52231 1.79288,2.6674 0.26651,1.4206 -0.067,2.48436 -1.10397,3.52134 -0.88026,0.88026 -1.04231,0.94662 -2.31176,0.94662 -2.30326,0 -3.67485,-1.39594 -3.67485,-3.74007 0,-1.74429 1.03696,-3.31326 2.38425,-3.60746 0.33866,-0.0739 0.72374,-0.1678 0.85574,-0.20855 0.31458,-0.0971 1.28346,0.10099 2.05771,0.42072 z m 6.96971,-0.30102 c 2.86022,0.79449 3.55908,4.79144 1.1868,6.78758 -1.03429,0.8703 -3.02201,0.92271 -4.12633,0.1088 -0.8732,-0.64358 -1.64789,-2.13851 -1.64789,-3.18 0,-1.63589 1.42958,-3.51173 2.88315,-3.78318 0.32827,-0.0613 0.65085,-0.12556 0.71685,-0.1428 0.066,-0.0172 0.51034,0.0771 0.98742,0.2096 z m 9.50807,1.12022 c 0.43148,0.47107 0.7983,1.03191 0.81514,1.24632 0.0168,0.21441 0.0624,0.65984 0.10121,0.98984 0.11839,1.00633 -0.37001,2.42407 -1.10656,3.21218 -0.66016,0.70637 -0.79703,0.74782 -2.46975,0.74782 -1.69701,0 -1.80197,-0.0333 -2.51712,-0.79889 -0.70421,-0.75386 -1.23408,-2.03406 -1.23707,-2.98882 -0.004,-1.29897 1.42786,-3.17858 2.61996,-3.43908 0.34029,-0.0744 0.7267,-0.16199 0.8587,-0.19472 0.72615,-0.1801 2.2189,0.44301 2.93549,1.22535 z m 6.09351,-1.12384 c 0.25835,0 0.89752,0.42353 1.42037,0.94118 0.94363,0.93425 0.95063,0.95478 0.95063,2.78823 0,1.82557 -0.0109,1.8579 -0.93176,2.77882 -0.86837,0.86837 -1.02657,0.93177 -2.32515,0.93177 -1.58493,0 -2.8251,-0.65475 -3.18214,-1.68 -0.58292,-1.67389 -0.66625,-2.09703 -0.49814,-2.52944 0.10062,-0.25881 0.24576,-0.76376 0.32252,-1.1221 0.17863,-0.83389 1.16541,-1.82258 2.00313,-2.00701 0.35835,-0.0789 0.75954,-0.17944 0.89154,-0.22343 0.132,-0.044 0.38383,-0.0345 0.55963,0.021 0.1758,0.0555 0.53101,0.10098 0.78937,0.10098 z m 8.41894,0.30667 c 0.35637,0.15391 0.77962,0.52586 0.94056,0.82658 0.16094,0.30071 0.36833,0.54675 0.46087,0.54675 0.0925,0 0.30172,0.47672 0.46486,1.05938 0.31755,1.13418 0.0441,2.53658 -0.62511,3.20578 -0.17513,0.17514 -0.48242,0.55257 -0.68286,0.83874 -0.30143,0.43035 -0.65606,0.53678 -2.05116,0.61561 l -1.68672,0.0953 -0.85503,-0.9066 c -0.98397,-1.04331 -1.29335,-1.72941 -1.29335,-2.86822 0,-1.15183 0.32937,-1.87337 1.29672,-2.84072 1.12555,-1.12555 2.34861,-1.29927 4.03122,-0.57261 z m -134.72135,-81.2844 c -0.0184,0.25146 -0.0102,1.13219 0.0181,1.95719 0.0283,0.825 0.0164,1.52468 -0.0266,1.55483 -0.0429,0.0301 -5.96407,0.11115 -13.15807,0.18 l -13.08,0.12517 0,4.32 0,4.32 13.01594,0.0621 13.01595,0.0621 0.0985,0.53794 c 0.0542,0.29586 0.10433,1.17128 0.11149,1.94536 0.007,0.77409 0.0596,1.45405 0.1166,1.51103 0.057,0.057 0.64312,-0.41437 1.30254,-1.04743 0.65942,-0.63307 2.61646,-2.49568 4.34897,-4.13915 1.73252,-1.64347 3.15004,-3.10946 3.15004,-3.25776 0,-0.14829 -1.25262,-1.44963 -2.7836,-2.89187 -6.88616,-6.48699 -6.08847,-5.80517 -6.12983,-5.23944 z m 16.83342,170.61763 0,66.84045 62.22,-0.0605 62.21999,-0.0605 0.0604,-66.77999 0.0604,-66.78 -62.28042,0 -62.28042,0 0,66.84045 z m 12.67192,-58.10332 c 0.35645,0.18542 0.91808,0.64442 1.24808,1.02 0.50843,0.57865 0.6,0.92097 0.6,2.24287 0,1.37808 -0.0801,1.64924 -0.68651,2.32524 -2.01169,2.24235 -4.63979,1.81757 -6.12187,-0.98949 -0.83689,-1.58507 -0.0698,-3.57473 1.7961,-4.65845 0.64041,-0.37197 2.39801,-0.33874 3.1642,0.0598 z m 8.10323,2.48676 c 0.26612,0.14242 0.63283,0.53731 0.81491,0.87753 0.18208,0.34022 0.4208,0.61858 0.5305,0.61858 0.10969,0 0.19944,0.702 0.19944,1.56 0,0.858 -0.0907,1.56 -0.20147,1.56 -0.11082,0 -0.32738,0.27633 -0.48126,0.61405 -0.38717,0.84974 -2.21995,1.64014 -3.32322,1.43317 -1.45531,-0.27302 -2.0181,-0.67063 -2.61417,-1.84693 -0.72784,-1.43633 -0.72631,-1.96692 0.0101,-3.49346 0.58607,-1.21488 1.0099,-1.5033 2.65,-1.80337 0.58136,-0.10636 1.75492,0.12708 2.41515,0.48043 z m 8.22735,0.49861 c 0.51817,0.51817 0.99106,1.26528 1.07891,1.70455 0.17799,0.88996 -0.0452,2.65295 -0.33591,2.65295 -0.10623,0 -0.25415,0.189 -0.32871,0.42 -0.17878,0.55393 -1.38853,1.22423 -2.54251,1.40876 -0.68878,0.11013 -1.20543,0.0125 -2.01989,-0.38179 -0.60192,-0.29138 -1.09439,-0.64665 -1.09439,-0.78948 0,-0.14283 -0.18514,-0.46427 -0.41143,-0.71431 -0.27797,-0.30716 -0.41142,-0.86103 -0.41142,-1.70749 0,-1.01407 0.13329,-1.42762 0.69932,-2.16973 0.85427,-1.12 1.29453,-1.31124 3.06353,-1.33074 1.28936,-0.0142 1.44059,0.0454 2.3025,0.90728 z m -16.35954,6.80572 c 0.43838,0.15851 0.79704,0.35415 0.79704,0.43474 0,0.0806 0.243,0.40765 0.54,0.7268 0.44653,0.47982 0.53937,0.85116 0.53635,2.14525 -0.004,1.72896 -0.48098,2.55283 -1.88266,3.25208 -2.97145,1.48235 -6.32251,-1.87056 -4.83988,-4.84256 0.38151,-0.76475 1.22633,-1.62306 1.80619,-1.83503 0.6484,-0.23703 2.2298,-0.17533 3.04296,0.11872 z m 8.35995,0.67452 c 0.33522,0.31491 0.7687,0.89172 0.96329,1.28179 0.38365,0.76905 0.48805,3.03547 0.13982,3.03547 -0.11769,0 -0.27504,0.243 -0.34967,0.54 -0.0746,0.297 -0.59934,0.84485 -1.16602,1.21745 -0.85851,0.56447 -1.20114,0.65519 -2.05463,0.544 -1.8135,-0.23626 -3.4157,-1.97528 -3.4157,-3.70739 0,-0.92052 0.96624,-2.6027 1.83409,-3.19307 0.98555,-0.67043 3.19925,-0.51638 4.04882,0.28175 z m 7.74957,0.11274 c 0.42213,0.37612 0.76752,0.81901 0.76752,0.98419 0,0.16518 0.135,0.34546 0.3,0.40061 0.39921,0.13344 0.38687,2.87076 -0.0135,3.00424 -0.15756,0.0525 -0.28647,0.25086 -0.28647,0.44077 0,0.48509 -2.11872,1.77471 -2.91569,1.77471 -1.21742,0 -2.0433,-0.52419 -3.38713,-2.14982 -0.15905,-0.1924 -0.28918,-0.95058 -0.28918,-1.68485 0,-1.18791 0.0921,-1.43675 0.836,-2.25795 1.06012,-1.17032 1.51064,-1.36042 3.00848,-1.26943 0.92929,0.0565 1.39174,0.23338 1.98,0.75753 z m -8.02196,7.44727 c 1.48191,0.97099 2.04577,3.47577 1.13396,5.03725 -1.01995,1.74666 -3.25503,2.32461 -4.84533,1.2529 -0.9589,-0.6462 -1.88964,-2.17965 -1.8952,-3.12246 -0.008,-1.31066 1.41487,-3.31475 2.5524,-3.59571 0.81458,-0.2012 2.44192,0.0269 3.05417,0.42802 z m 7.98688,0.2495 c 0.44143,0.3367 0.8026,0.75968 0.8026,0.93997 0,0.18028 0.13114,0.3715 0.29143,0.42493 0.35197,0.11732 0.40472,2.76972 0.06,3.0169 -0.12729,0.0913 -0.34956,0.38195 -0.49395,0.64595 -0.46242,0.84551 -1.77116,1.56 -2.85748,1.56 -1.08631,0 -2.39506,-0.71449 -2.85748,-1.56 -0.14439,-0.264 -0.36666,-0.55468 -0.49395,-0.64595 -0.34471,-0.24718 -0.29196,-2.89958 0.06,-3.0169 0.16029,-0.0534 0.29143,-0.23132 0.29143,-0.39531 0,-0.39928 0.93668,-1.25843 1.68012,-1.54106 0.9799,-0.37251 2.63145,-0.10418 3.51728,0.57147 z m -15.23752,2.03822 c 1.02906,0.96016 1.04005,0.98759 1.03328,2.58 -0.006,1.45194 -0.0767,1.683 -0.72,2.3599 -1.19837,1.26091 -2.98913,1.55616 -4.60533,0.75929 -1.41995,-0.70011 -2.35141,-3.70036 -1.43372,-4.61805 0.20595,-0.20595 0.43471,-0.56281 0.50836,-0.79303 0.22799,-0.71263 1.36856,-1.21326 2.81741,-1.23664 1.27048,-0.0205 1.42824,0.0419 2.4,0.94853 z m 7.40779,5.67224 c 0.37495,0.22149 0.74468,0.65349 0.82161,0.96 0.0769,0.30651 0.24581,0.55729 0.37529,0.55729 0.12949,0 0.23543,0.60374 0.23543,1.34165 0,1.07476 -0.12881,1.52085 -0.64749,2.24244 -1.57404,2.18977 -4.69793,2.0045 -5.99316,-0.35545 -0.28636,-0.52175 -0.52936,-1.24345 -0.54,-1.60378 -0.0321,-1.08513 0.71074,-2.59794 1.51696,-3.08957 0.96709,-0.58972 3.27353,-0.61839 4.23136,-0.0526 z m 7.85233,0.0747 c 0.429,0.26157 0.78,0.63016 0.78,0.8191 0,0.18894 0.1332,0.38793 0.296,0.4422 0.19055,0.0635 0.296,0.6086 0.296,1.53008 0,1.22687 -0.0937,1.53251 -0.656,2.13888 -0.3608,0.3891 -0.656,0.77647 -0.656,0.8608 0,0.28318 -1.407,0.73957 -2.28,0.73957 -0.873,0 -2.28,-0.45639 -2.28,-0.73957 0,-0.0843 -0.28945,-0.4655 -0.64323,-0.84704 -1.18598,-1.27902 -0.71225,-4.0457 0.85983,-5.02162 0.91595,-0.5686 3.29422,-0.52552 4.2834,0.0776 z m -16.16643,1.28867 c 0.34564,0.17932 0.92238,0.63832 1.28165,1.02 0.57943,0.61558 0.65386,0.88141 0.659,2.35361 0.004,1.11856 -0.092,1.69236 -0.29422,1.76 -0.165,0.0552 -0.3,0.22714 -0.3,0.3821 0,0.42107 -2.08321,1.59815 -2.82978,1.59892 -1.58422,0.002 -3.29096,-1.56521 -3.7439,-3.43701 -0.22596,-0.93379 0.69819,-2.71805 1.77333,-3.4238 0.96789,-0.63534 2.50134,-0.74803 3.45392,-0.25382 z m 7.92191,6.14464 c 1.00543,0.38226 1.82452,1.9466 1.82452,3.48455 0,0.72862 -0.081,1.32545 -0.18,1.32629 -0.099,7.2e-4 -0.364,0.32487 -0.58888,0.72008 -0.22489,0.39521 -0.71089,0.83997 -1.08,0.98836 -0.36912,0.14839 -0.89426,0.37198 -1.16698,0.49686 -0.37044,0.16962 -0.82648,0.0758 -1.80291,-0.3708 -1.08259,-0.49519 -1.39927,-0.7877 -1.84413,-1.70336 -0.29541,-0.60803 -0.5371,-1.37691 -0.5371,-1.70864 0,-0.93664 0.89866,-2.47364 1.74968,-2.99254 0.83823,-0.51109 2.60608,-0.6285 3.6258,-0.2408 z m 7.77644,0.10593 c 1.17967,0.61271 1.83638,1.78603 1.83833,3.28453 0.001,0.95413 -0.11829,1.46119 -0.41425,1.75714 -0.2288,0.22881 -0.416,0.51313 -0.416,0.63183 0,0.1187 -0.61123,0.4954 -1.35828,0.83711 l -1.35828,0.62129 -1.08376,-0.44476 c -0.60518,-0.24836 -1.40586,-0.84273 -1.81315,-1.34595 -0.60774,-0.75087 -0.72938,-1.11366 -0.72938,-2.1752 0,-0.88513 0.12606,-1.4001 0.41299,-1.68703 0.22715,-0.22715 0.52736,-0.62667 0.66712,-0.88782 0.13977,-0.26116 0.49006,-0.56989 0.77843,-0.68608 0.81838,-0.32973 2.76074,-0.27668 3.47623,0.0949 z m -15.4417,3.68164 c 0.59938,0.36204 1.08978,0.78504 1.08978,0.94 0,0.15496 0.135,0.32691 0.3,0.3821 0.20194,0.0675 0.29873,0.64288 0.29612,1.76 -0.004,1.51887 -0.0646,1.72065 -0.72,2.37885 -1.48159,1.48797 -3.06082,1.74049 -4.64209,0.74228 -1.16319,-0.73429 -2.04688,-2.59516 -1.73275,-3.64881 0.38572,-1.29376 0.94189,-2.07753 1.8614,-2.62313 1.24945,-0.74137 2.2381,-0.72222 3.54754,0.0687 z m 7.67343,4.03007 c 1.0432,0.49503 1.81635,1.98245 1.81635,3.49436 0,0.64753 -0.0963,1.17732 -0.21398,1.17732 -0.11769,0 -0.27939,0.2606 -0.35933,0.5791 -0.17602,0.70133 -2.05848,1.8209 -3.06168,1.8209 -1.50831,0 -3.56501,-2.14229 -3.56501,-3.71337 0,-0.60489 0.5424,-1.9596 1.01601,-2.53764 0.9817,-1.19816 2.83737,-1.54683 4.36764,-0.82067 z m 7.70406,-0.0206 c 0.45776,0.19126 0.83229,0.44089 0.83229,0.55474 0,0.11384 0.24164,0.46636 0.53698,0.78337 0.43601,0.468 0.53337,0.84175 0.5178,1.98772 -0.0105,0.77625 -0.12801,1.48224 -0.26105,1.56888 -0.13303,0.0866 -0.35635,0.37532 -0.49626,0.64151 -0.35432,0.67408 -2.10011,1.55602 -3.08015,1.55602 -0.44953,0 -0.81732,-0.088 -0.81732,-0.19555 0,-0.10755 -0.378,-0.37581 -0.84,-0.59612 -0.462,-0.22031 -0.84,-0.5026 -0.84,-0.62731 0,-0.1247 -0.18514,-0.41188 -0.41143,-0.63816 -0.28257,-0.28258 -0.41015,-0.79531 -0.40735,-1.63715 0.009,-2.8484 2.59272,-4.51513 5.26649,-3.39796 z m -15.47406,5.68744 c 0.54364,0.28336 1.05209,0.68836 1.12989,0.9 0.0778,0.21164 0.25733,0.46206 0.39896,0.55648 0.14163,0.0944 0.25731,0.90442 0.25706,1.8 -4.8e-4,1.48298 -0.0647,1.69486 -0.72,2.37379 -0.88943,0.92146 -2.16124,1.35752 -3.38736,1.16139 -1.16955,-0.18708 -1.82341,-0.71168 -2.58315,-2.07251 -0.47748,-0.85523 -0.56019,-1.23549 -0.41185,-1.89325 0.28479,-1.26271 0.78207,-2.05265 1.7028,-2.70491 1.06293,-0.75301 2.32033,-0.79511 3.61365,-0.12099 z m 8.31138,2.67852 c 0.43724,0.39787 0.79497,0.86805 0.79497,1.04484 0,0.17679 0.108,0.32144 0.24,0.32144 0.13334,0 0.24,0.64 0.24,1.44 0,0.792 -0.0824,1.44 -0.18309,1.44 -0.1007,0 -0.2897,0.24035 -0.42,0.5341 -0.76119,1.71608 -3.90828,2.18881 -5.30083,0.79626 -0.30418,-0.30418 -0.9502,-1.50064 -1.28327,-2.37666 -0.28839,-0.75855 0.63851,-2.78121 1.58256,-3.45344 1.3567,-0.96606 3.10177,-0.8639 4.32966,0.25346 z m 7.69497,-0.12658 c 0.429,0.32441 0.78,0.73002 0.78,0.90135 0,0.17133 0.13114,0.35523 0.29143,0.40866 0.36848,0.12282 0.397,2.78333 0.0324,3.0169 -0.1425,0.0913 -0.32811,0.38195 -0.41247,0.64595 -0.39818,1.24604 -3.18678,2.02278 -4.52359,1.26 -0.65684,-0.37478 -1.36918,-1.16987 -1.37973,-1.54 -0.004,-0.154 -0.13913,-0.32371 -0.29942,-0.37714 -0.18434,-0.0615 -0.29142,-0.61367 -0.29142,-1.50286 0,-0.88919 0.10708,-1.44141 0.29142,-1.50285 0.16029,-0.0534 0.29143,-0.24465 0.29143,-0.42493 0,-0.18029 0.351,-0.59429 0.78,-0.92001 1.31295,-0.99686 3.0941,-0.98285 4.44,0.0349 z m -16.05442,7.16009 c 0.0849,0.11702 0.36059,0.32634 0.61257,0.46514 1.51371,0.83384 1.77304,3.97122 0.43664,5.2823 -1.03407,1.01447 -1.61316,1.30533 -2.59885,1.30533 -1.97452,0 -3.69594,-1.80681 -3.69594,-3.87928 0,-1.33216 1.068,-2.84464 2.4,-3.39883 0.49651,-0.20657 2.65625,-0.0355 2.84558,0.22534 z m 8.23733,0.65929 c 0.4384,0.44358 0.93209,0.97903 1.09709,1.18987 0.35571,0.45453 0.40675,3.04361 0.06,3.04361 -0.132,0 -0.24,0.14547 -0.24,0.32327 0,0.55482 -0.89983,1.3926 -1.8446,1.7174 -1.09169,0.37531 -2.35927,0.21402 -3.25889,-0.41467 -0.76404,-0.53393 -1.61651,-2.14775 -1.61651,-3.06023 0,-0.89659 0.98628,-2.72465 1.62,-3.00268 0.297,-0.1303 0.54,-0.3193 0.54,-0.42 0,-0.1007 0.64031,-0.18309 1.42291,-0.18309 1.29681,0 1.49356,0.0715 2.22,0.80651 z m 7.62118,-0.15902 c 1.50208,1.07971 2.0578,2.99904 1.28552,4.43994 -0.81636,1.52315 -1.71574,2.13556 -3.16567,2.15557 -1.77797,0.0245 -2.48893,-0.43202 -3.40267,-2.18507 -0.74385,-1.4271 -0.47413,-2.6577 0.87908,-4.01092 0.96318,-0.96318 1.14535,-1.04702 2.27499,-1.04702 0.95126,0 1.43095,0.14591 2.12875,0.6475 z m -14.91609,8.1651 c 0.8494,0.84996 0.89197,0.9683 0.89139,2.47776 -4.8e-4,1.18819 -0.10564,1.69018 -0.42,2.00454 -0.23067,0.23066 -0.41939,0.49966 -0.41939,0.59779 0,0.34779 -1.71002,0.98731 -2.64,0.98731 -2.88222,0 -4.55269,-3.06038 -3.00698,-5.50894 0.7956,-1.26032 1.16811,-1.43522 3.07498,-1.44377 1.56299,-0.007 1.66363,0.0284 2.52,0.8853 z m 6.71493,-0.63653 c 1.14373,0.3987 1.97707,1.85659 1.97707,3.45878 0,0.72883 -0.10594,1.32515 -0.23543,1.32515 -0.12948,0 -0.30137,0.26275 -0.38197,0.5839 -0.172,0.68527 -1.86171,1.5761 -2.98954,1.5761 -1.4054,0 -3.09171,-1.27944 -3.21593,-2.44 -0.009,-0.088 -0.0981,-0.241 -0.19713,-0.34 -0.33337,-0.33338 -0.18352,-1.55221 0.30968,-2.51898 0.85393,-1.67383 2.75509,-2.33455 4.73325,-1.64496 z m 7.81285,0.0165 c 0.6391,0.33227 1.36422,1.0644 1.36422,1.37741 0,0.12652 0.1332,0.27444 0.296,0.3287 0.48325,0.16109 0.38683,2.89279 -0.12,3.39962 -0.2288,0.2288 -0.416,0.50538 -0.416,0.61463 0,0.35675 -1.91588,1.20722 -2.70739,1.20182 -0.87439,-0.006 -2.81261,-0.80938 -2.81261,-1.16586 0,-0.12902 -0.17928,-0.41387 -0.3984,-0.63299 -0.27288,-0.27288 -0.40429,-0.83199 -0.41709,-1.77464 -0.016,-1.17781 0.0803,-1.49484 0.66809,-2.19874 0.37774,-0.45238 0.91643,-0.95368 1.1971,-1.114 0.64908,-0.37077 2.66052,-0.39238 3.34608,-0.036 z m -7.50925,7.94745 c 0.43863,0.297 0.98671,0.864 1.21795,1.26 0.57478,0.9843 0.57314,2.79499 -0.003,3.74301 -0.55256,0.9086 -2.20441,1.89698 -3.17037,1.89698 -1.566,0 -3.57073,-2.07681 -3.57073,-3.69914 0,-0.70639 0.40486,-1.70548 1.02962,-2.54085 0.91151,-1.21881 3.17993,-1.55174 4.49691,-0.66 z m 7.54533,-0.13555 c 0.46648,0.22244 0.84814,0.47208 0.84814,0.55474 0,0.0827 0.2412,0.40919 0.536,0.72562 0.42776,0.45915 0.536,0.85828 0.536,1.97649 0,0.77063 -0.10869,1.47709 -0.24154,1.56992 -0.13285,0.0928 -0.43054,0.46577 -0.66153,0.82877 -0.231,0.363 -0.56628,0.66 -0.74507,0.66 -0.1788,0 -0.45953,0.162 -0.62386,0.36 -0.47078,0.56727 -2.03377,0.44571 -3.12477,-0.243 -0.52537,-0.33166 -0.95523,-0.70195 -0.95523,-0.82286 0,-0.12092 -0.17928,-0.39913 -0.3984,-0.61825 -0.27256,-0.27256 -0.40332,-0.82755 -0.41399,-1.75714 -0.0157,-1.36904 0.21185,-1.85392 1.35774,-2.89303 0.88068,-0.79862 2.60916,-0.95039 3.88651,-0.34126 z m -15.91909,1.67502 c 0.1463,0.17629 0.39693,0.32053 0.55695,0.32053 0.16002,0 0.60579,0.351 0.99061,0.78 0.62114,0.69244 0.69967,0.9551 0.69967,2.33999 0,1.31967 -0.0924,1.6665 -0.6,2.25125 -1.12306,1.29384 -3.13638,1.72494 -4.57692,0.98 -0.99072,-0.51232 -2.09877,-2.35099 -1.98835,-3.2994 0.11741,-1.00835 1.01542,-2.81184 1.40009,-2.81184 0.17161,0 0.56697,-0.21126 0.8786,-0.46947 0.6518,-0.54007 2.22175,-0.59424 2.63935,-0.0911 z m 8.49543,6.38052 c 0.46281,0.297 0.905,0.783 0.98265,1.08 0.0777,0.297 0.23748,0.54 0.35517,0.54 0.11769,0 0.21398,0.648 0.21398,1.44 0,0.8 -0.10666,1.44 -0.24,1.44 -0.132,0 -0.24,0.12804 -0.24,0.28454 0,0.39573 -0.97564,1.39546 -1.36183,1.39546 -0.17499,0 -0.31817,0.108 -0.31817,0.24 0,0.32232 -2.56928,0.30859 -2.76915,-0.0148 -0.0866,-0.14015 -0.39006,-0.34324 -0.67432,-0.45131 -0.64693,-0.24597 -1.59653,-1.9864 -1.59653,-2.92613 0,-0.9463 0.78809,-2.4398 1.61151,-3.05396 0.95086,-0.7092 2.91056,-0.69648 4.03669,0.0262 z m 7.31332,-0.36 c 7.2e-4,0.099 0.32483,0.36398 0.72,0.58884 0.39517,0.22486 0.71848,0.57586 0.71848,0.78 0,0.20414 0.10311,0.37116 0.22913,0.37116 0.3341,0 0.56476,1.51724 0.36732,2.41619 -0.0993,0.45196 -0.61709,1.20829 -1.24522,1.81876 -0.99551,0.96752 -1.16994,1.04505 -2.35123,1.04505 -1.18123,0 -1.35574,-0.0775 -2.35092,-1.04475 -1.38681,-1.34783 -1.63404,-2.47995 -0.89556,-4.10101 0.28979,-0.63613 0.76044,-1.22935 1.09701,-1.3827 0.32421,-0.14772 0.58947,-0.35925 0.58947,-0.47006 0,-0.11081 0.702,-0.20148 1.56,-0.20148 0.858,0 1.56069,0.081 1.56152,0.18 z m -14.46137,4.76406 c 1.06897,1.11563 1.07153,1.1225 0.97649,2.61504 -0.0817,1.28349 -0.19763,1.59499 -0.8144,2.18869 -1.0565,1.01698 -1.6555,1.29221 -2.81235,1.29221 -2.50102,0 -4.34234,-3.01616 -3.19401,-5.23191 0.34621,-0.66803 1.48648,-1.78903 2.08494,-2.0497 0.18655,-0.0813 0.86757,-0.0994 1.51337,-0.0403 1.02124,0.0934 1.31379,0.25312 2.24596,1.22599 z m 6.53985,2.97594 c 0,0.132 0.15416,0.24 0.34258,0.24 0.18842,0 0.56525,0.297 0.83739,0.66 0.27215,0.363 0.60398,0.79045 0.73742,0.94987 0.31454,0.37582 0.31682,2.95013 0.003,2.95013 -0.132,0 -0.24,0.13611 -0.24,0.30246 0,0.56977 -1.20279,1.5998 -2.17331,1.86113 -0.96487,0.25981 -1.42993,0.20407 -2.68191,-0.32149 -0.75604,-0.31736 -1.87054,-2.26765 -1.85393,-3.24425 0.0159,-0.93631 0.98173,-2.62737 1.79841,-3.14889 0.76305,-0.48727 3.23074,-0.67742 3.23074,-0.24896 z m 8.24295,0.29134 c 0.41638,0.29223 0.79369,0.61816 0.83848,0.72428 0.0448,0.10612 0.25898,0.37051 0.476,0.58753 0.4872,0.48719 0.567,3.22205 0.0986,3.37819 -0.1628,0.0543 -0.296,0.23551 -0.296,0.40277 0,0.44037 -1.36907,1.4283 -2.24721,1.62159 -2.96188,0.65195 -5.34669,-2.677 -3.87535,-5.4096 0.26259,-0.48769 0.77559,-1.01868 1.14,-1.17999 0.36441,-0.1613 0.66256,-0.37491 0.66256,-0.47469 0,-0.0998 0.55033,-0.18142 1.22295,-0.18142 0.87437,0 1.43874,0.15145 1.98,0.53134 z m -16.01739,5.52398 c 0.35648,0.16242 0.96981,0.61698 1.36296,1.01012 0.59522,0.59522 0.73446,0.95966 0.83229,2.1784 0.0861,1.07234 0.0259,1.55616 -0.22509,1.80988 -0.18842,0.19045 -0.40883,0.52143 -0.48981,0.73551 -0.18652,0.49311 -2.05922,1.41077 -2.879,1.41077 -0.97111,0 -2.54382,-0.96751 -3.09906,-1.90652 -0.50211,-0.84914 -0.67624,-2.8184 -0.2754,-3.11441 0.10358,-0.0765 0.33307,-0.42051 0.50999,-0.7645 0.68431,-1.33051 2.82688,-2.01365 4.26312,-1.35925 z m 7.53444,1.83866 c 0,0.1177 0.26994,0.28174 0.59985,0.36454 0.92752,0.23279 1.80015,1.81151 1.80015,3.25671 0,0.66263 -0.108,1.20477 -0.24,1.20477 -0.132,0 -0.24,0.1452 -0.24,0.32267 0,0.41488 -0.9276,1.46029 -1.60422,1.80796 -1.14435,0.58802 -3.28998,0.11307 -4.09977,-0.90751 -0.48964,-0.6171 -1.01601,-1.95476 -1.01601,-2.58199 0,-0.94849 0.90611,-2.43864 1.86457,-3.06641 0.88875,-0.5821 2.93543,-0.86151 2.93543,-0.40074 z m 8.40477,0.38903 c 0.52538,0.33166 0.95523,0.70194 0.95523,0.82286 0,0.12092 0.18355,0.4034 0.40789,0.62774 0.65489,0.65488 0.56585,2.66541 -0.16604,3.7492 -2.06733,3.06133 -6.56868,1.58598 -6.58063,-2.15686 -0.002,-0.70073 0.10256,-1.34873 0.2329,-1.44 0.13033,-0.0913 0.42484,-0.46123 0.65446,-0.82214 0.22962,-0.3609 0.68613,-0.72361 1.01446,-0.80601 0.32833,-0.0824 0.59696,-0.24612 0.59696,-0.36382 0,-0.46711 1.94379,-0.20498 2.88477,0.38903 z m -15.79903,7.62707 c 0.35516,0.15904 0.98667,0.72117 1.40335,1.24917 0.69724,0.88352 0.74947,1.07363 0.6556,2.38622 -0.0567,0.79276 -0.22696,1.46787 -0.38334,1.52 -0.15474,0.0516 -0.28135,0.22689 -0.28135,0.38959 0,0.52265 -1.79505,1.34487 -2.91267,1.33413 -3.43997,-0.033 -4.817,-4.10763 -2.1628,-6.39966 0.9128,-0.78825 2.52327,-0.998 3.68121,-0.47945 z m 8.30519,0.314 c 0.30301,0.19831 0.67135,0.62485 0.81852,0.94787 0.14718,0.32301 0.35826,0.5873 0.46908,0.5873 0.41822,0 0.2092,2.59948 -0.27502,3.42016 -0.91022,1.5427 -3.4015,2.10702 -4.99983,1.13254 -1.02406,-0.62434 -1.83004,-2.3643 -1.63939,-3.53913 0.20997,-1.29389 1.2453,-2.61359 2.27499,-2.89985 1.07105,-0.29776 2.60587,-0.13698 3.35165,0.35111 z m 6.90279,-0.35634 c 0.58646,0.14767 1.06628,0.33778 1.06628,0.42246 0,0.0847 0.2952,0.47232 0.656,0.86142 0.55322,0.59662 0.656,0.91918 0.656,2.05869 0,0.96193 -0.11985,1.47108 -0.416,1.76723 -0.2288,0.2288 -0.416,0.51787 -0.416,0.64238 0,0.50371 -1.57936,1.17754 -2.76,1.17754 -1.18064,0 -2.76,-0.67383 -2.76,-1.17754 0,-0.12451 -0.17704,-0.40343 -0.39343,-0.61981 -0.25798,-0.25798 -0.39966,-0.82503 -0.41155,-1.64708 -0.0148,-1.02374 0.11238,-1.43555 0.69343,-2.24549 0.99086,-1.38116 2.13949,-1.72975 4.08527,-1.2398 z m -15.72307,7.6505 c 0.46785,0.12998 1.21468,0.61191 1.65961,1.07096 0.67016,0.69143 0.82766,1.05999 0.91788,2.14788 0.0875,1.0553 0.007,1.47867 -0.41172,2.1556 -1.12843,1.82584 -3.46646,2.3996 -5.04188,1.23729 -1.63292,-1.20473 -2.15466,-2.87633 -1.39647,-4.47411 0.66526,-1.40191 1.51104,-2.00404 3.30193,-2.3507 0.066,-0.0128 0.50279,0.0831 0.97065,0.21308 z m 9.28072,0.91472 c 0.29225,0.35546 0.53525,0.78129 0.54,0.94629 0.005,0.165 0.11663,0.3 0.24863,0.3 0.34678,0 0.2957,2.58951 -0.06,3.04135 -0.165,0.2096 -0.6721,0.74505 -1.1269,1.18987 -0.70943,0.69389 -0.99251,0.80878 -1.99273,0.80878 -1.98792,0 -3.74842,-1.71259 -3.77222,-3.66956 -0.0112,-0.91704 0.80017,-2.42975 1.61397,-3.00922 1.29597,-0.92281 3.63366,-0.72113 4.54925,0.39249 z m 7.14863,-0.45314 c 1.0748,0.602 1.8516,2.27794 1.6672,3.5969 -0.0813,0.5816 -0.29106,1.20068 -0.46609,1.37571 -0.17504,0.17504 -0.3549,0.40118 -0.39968,0.50254 -0.27624,0.62517 -1.7109,1.26428 -2.83803,1.26428 -1.11332,0 -1.30342,-0.0874 -2.25064,-1.0346 -1.4471,-1.44711 -1.66006,-2.90166 -0.65671,-4.4854 0.70764,-1.11697 1.20477,-1.51237 2.11575,-1.68284 1.08982,-0.20393 1.86294,-0.0773 2.8282,0.46341 z m -45.52948,-61.59984 -0.0705,1.74 -13.08,0.12 -13.08,0.12 -0.0704,3.48 c -0.0387,1.914 -0.01,3.723 0.0646,4.02 l 0.13492,0.54 12.92975,0 c 11.56885,0 12.94509,0.04 13.07543,0.37963 0.0801,0.20879 0.14568,1.07279 0.14568,1.92 0,0.8472 0.0922,1.54037 0.20495,1.54037 0.11273,0 0.47117,-0.243 0.79655,-0.54 0.32538,-0.297 1.44815,-1.29192 2.49505,-2.21093 1.0469,-0.91901 2.33545,-2.07508 2.86345,-2.56903 0.528,-0.49396 1.311,-1.2234 1.74,-1.62098 0.429,-0.39759 0.78,-0.78754 0.78,-0.86656 0,-0.17084 -1.71842,-1.83531 -3.95673,-3.8325 -0.88761,-0.792 -1.79147,-1.61736 -2.00856,-1.83414 -0.77514,-0.77402 -2.48376,-2.12586 -2.68691,-2.12586 -0.11372,0 -0.23851,0.783 -0.27729,1.74 z"
       id="path6999"
       inkscape:connector-curvature="0"
       sodipodi:nodetypes="cccccccccsssssccsscsssssssccsscscsscsscsssscsssccscssssssscccsssccssssssssscsssssssssssssssssssssssscscscssssccsssccscscscssssssscsscsssssssscssccccssssscccscsssscsssscsssscsccsccscscssccccsscccsssscccscsccsscssscccsscscsccssssssscssscccssssscsccccssscscscssccsssssssssssssssscccscssscsssssscsssssscssssscscsscscscscssssssscsscssssssssssscsssscsscscsssscccccscscsscccsscsccccccsscccscccsssssccscssscccsccssscccsssscssssccssccsscsscssscccscsccccccccsssscccccccccccccsscsccccssssssssscccsscccscsssccsscsssccsscssssccsccsssscccccsscscsssccscccscscccsscscccsssscsccsscscssssssssccscsssssccsccsssscccsscsssscccccscccsssccsssssssscsscccssssccccsscccsscsscsssssscsccsccscccscssccccssscccsssssssssccsscsssscccsssscccsscsccscccscsscssscccccscssscccsssccsccsscsccssscscssccscssssssccssscssscsscsssscccssscccccsccsssccsccccscssscssccsscccsscsssssssssssssssscccssscsscscscscsssssssssssssscsssssccsscsscsscscssccscssssccccccccscsssssssssscc" /><text
       xml:space="preserve"
       style="font-style:normal;font-variant:normal;font-weight:normal;font-stretch:normal;font-size:18px;line-height:125%;font-family:'Times New Roman';-inkscape-font-specification:'Times New Roman, ';letter-spacing:0px;word-spacing:0px;fill:#ffffff;fill-opacity:1;stroke:none;stroke-width:1px;stroke-linecap:butt;stroke-linejoin:miter;stroke-opacity:1;"
       x="160.47429"
       y="-638.93085"
       id="text7001"
       sodipodi:linespacing="125%"
       transform="scale(1,-1)"><tspan
         sodipodi:role="line"
         id="tspan7003"
         x="160.47429"
         y="-638.93085"
         style="font-size:16px;fill:#ffffff;">Series</tspan></text>
<text
       xml:space="preserve"
       style="font-style:normal;font-variant:normal;font-weight:normal;font-stretch:normal;font-size:18px;line-height:125%;font-family:'Times New Roman';-inkscape-font-specification:'Times New Roman, ';letter-spacing:0px;word-spacing:0px;fill:#ffffff;fill-opacity:1;stroke:none;stroke-width:1px;stroke-linecap:butt;stroke-linejoin:miter;stroke-opacity:1;"
       x="155.84929"
       y="-477.68307"
       id="text7001-0"
       sodipodi:linespacing="125%"
       transform="scale(1,-1)"><tspan
         sodipodi:role="line"
         id="tspan7003-6"
         x="155.84929"
         y="-477.68307"
         style="font-size:16px;fill:#ffffff;">Parallel</tspan></text>
<text
       xml:space="preserve"
       style="font-style:normal;font-weight:normal;font-size:16px;line-height:125%;font-family:sans-serif;letter-spacing:0px;word-spacing:0px;fill:#000000;fill-opacity:1;stroke:none;stroke-width:1px;stroke-linecap:butt;stroke-linejoin:miter;stroke-opacity:1;"
       x="261.3432"
       y="-658.81146"
       id="text7023"
       sodipodi:linespacing="125%"
       transform="scale(1,-1)"><tspan
         sodipodi:role="line"
         id="tspan7025"
         x="261.3432"
         y="-658.81146"
         style="font-style:normal;font-variant:normal;font-weight:normal;font-stretch:normal;font-family:'Times New Roman';-inkscape-font-specification:'Times New Roman, ';fill:#000000;">Liquid</tspan></text>
<text
       xml:space="preserve"
       style="font-style:normal;font-weight:normal;font-size:16px;line-height:125%;font-family:sans-serif;letter-spacing:0px;word-spacing:0px;fill:#000000;fill-opacity:1;stroke:none;stroke-width:1px;stroke-linecap:butt;stroke-linejoin:miter;stroke-opacity:1;"
       x="248.33011"
       y="-499.54608"
       id="text7023-6"
       sodipodi:linespacing="125%"
       transform="scale(1,-1)"><tspan
         sodipodi:role="line"
         id="tspan7025-3"
         x="248.33011"
         y="-499.54608"
         style="font-style:normal;font-variant:normal;font-weight:normal;font-stretch:normal;font-family:'Times New Roman';-inkscape-font-specification:'Times New Roman, ';fill:#000000;">Liquid</tspan></text>
</g></svg>