<?xml version="1.0" encoding="UTF-8" standalone="no"?>
<!-- Created with Inkscape (http://www.inkscape.org/) -->

<svg
   xmlns:dc="http://purl.org/dc/elements/1.1/"
   xmlns:cc="http://creativecommons.org/ns#"
   xmlns:rdf="http://www.w3.org/1999/02/22-rdf-syntax-ns#"
   xmlns:svg="http://www.w3.org/2000/svg"
   xmlns="http://www.w3.org/2000/svg"
   xmlns:sodipodi="http://sodipodi.sourceforge.net/DTD/sodipodi-0.dtd"
   xmlns:inkscape="http://www.inkscape.org/namespaces/inkscape"
   id="svg2"
   version="1.1"
   inkscape:version="0.91 r13725"
   viewBox="0 0 268.5 270.14987"
   preserveAspectRatio="xMidYMid meet"
   xml:space="preserve"
   sodipodi:docname="Eastman_etal_2001.svg"><metadata
     id="metadata8"><rdf:RDF><cc:Work
         rdf:about=""><dc:format>image/svg+xml</dc:format><dc:type
           rdf:resource="http://purl.org/dc/dcmitype/StillImage" /><dc:title></dc:title></cc:Work></rdf:RDF></metadata><defs
     id="defs6" /><sodipodi:namedview
     pagecolor="#000000"
     bordercolor="#666666"
     borderopacity="1"
     objecttolerance="10"
     gridtolerance="10"
     guidetolerance="10"
     inkscape:pageopacity="0"
     inkscape:pageshadow="2"
     inkscape:window-width="3200"
     inkscape:window-height="1691"
     id="namedview4"
     showgrid="false"
     fit-margin-top="0"
     fit-margin-left="0"
     fit-margin-right="0"
     fit-margin-bottom="0"
     inkscape:zoom="5.3940105"
     inkscape:cx="202.5424"
     inkscape:cy="156.51043"
     inkscape:window-x="0"
     inkscape:window-y="0"
     inkscape:window-maximized="1"
     inkscape:current-layer="g10" /><g
     id="g10"
     inkscape:groupmode="layer"
     inkscape:label="Eastman_etal_2001"
     transform="matrix(1.25,0,0,-1.25,-439.71996,927.06451)"><path
       style="fill:#ffffff"
       d="m 505.93362,526.91094 c -0.9225,1.87758 -0.95224,4.18321 -0.0766,5.9367 0.32941,0.65964 0.77474,1.2317 0.98962,1.27125 0.32519,0.0599 0.28853,-0.14121 -0.2187,-1.19933 -0.87989,-1.83556 -0.87245,-4.15159 0.019,-5.90839 0.75552,-1.48891 0.75356,-1.47946 0.30666,-1.47946 -0.18829,0 -0.64729,0.62066 -1.02,1.37923 z m 10.65879,0.10699 c 0.5023,1.24287 0.58254,1.76327 0.49004,3.17823 -0.0704,1.07704 -0.29885,2.05906 -0.62854,2.70189 -0.9078,1.77003 -0.415,2.14402 0.55305,0.41971 1.23513,-2.20006 1.2655,-4.3345 0.0963,-6.76662 -0.79998,-1.66404 -1.21772,-1.28232 -0.51083,0.46679 z m -74.73754,0.30462 c -0.97715,0.42229 -1.2789,1.00971 -1.2789,2.48967 0,1.03857 0.096,1.27452 0.73842,1.81477 1.40669,1.183 3.11826,0.49551 3.47313,-1.39508 0.38276,-2.03911 -1.2343,-3.64333 -2.93265,-2.90936 z m 1.72045,1.08684 c 0.89094,0.98393 0.33652,2.87912 -0.84226,2.87912 -0.96077,0 -1.54787,-0.89375 -1.33435,-2.03129 0.24332,-1.29629 1.37233,-1.73606 2.17661,-0.84783 z m 5.46012,-1.25418 c -0.82116,0.13531 -1.04553,0.82897 -0.96914,2.99622 0.0872,2.47357 0.5245,2.60615 0.62118,0.18833 0.0746,-1.86653 0.30186,-2.40938 1.00849,-2.40938 0.72435,0 1.07572,0.73039 1.2,2.4944 0.0916,1.3008 0.20507,1.70326 0.48,1.70326 0.29074,0 0.37323,-0.45076 0.42874,-2.34287 0.0598,-2.03663 0.0146,-2.36365 -0.34561,-2.50179 -0.23378,-0.0897 -0.45496,-0.0371 -0.50755,0.12055 -0.0695,0.20852 -0.25596,0.20111 -0.73439,-0.0292 -0.35265,-0.16974 -0.88443,-0.26854 -1.18172,-0.21956 z m -12.68399,0.95507 c -1.00698,2.31677 -2.00263,5.44583 -1.79793,5.65041 0.40461,0.40438 0.69013,-0.055 1.60988,-2.59002 0.50213,-1.38397 0.98223,-2.43634 1.0669,-2.3386 0.0847,0.0977 0.51784,1.28409 0.9626,2.63634 0.6232,1.89473 0.90665,2.45863 1.23587,2.45863 0.23496,0 0.42693,-0.081 0.4266,-0.1799 -2.4e-4,-0.0989 -0.44315,-1.42121 -0.98403,-2.93836 -0.54088,-1.51716 -1.03921,-2.94736 -1.10739,-3.17824 -0.22087,-0.7479 -0.99288,-0.4857 -1.4125,0.47974 z m 9.50452,2.30695 c 0,2.03716 0.0951,3.30038 0.25597,3.39974 0.14078,0.087 0.29328,0.12032 0.3389,0.0741 0.0456,-0.0462 0.11943,-1.53959 0.16403,-3.31866 0.0734,-2.92741 0.0412,-3.24237 -0.3389,-3.31575 -0.38328,-0.074 -0.42,0.20229 -0.42,3.16054 z m 7.14347,-0.86775 c -0.11627,2.38974 0.0242,2.9831 0.59441,2.51016 0.20306,-0.16843 0.44559,-0.18344 0.67017,-0.0415 0.51026,0.32254 1.61533,0.27964 1.73101,-0.0672 0.0788,-0.23611 0.23281,-0.23611 0.75129,0 0.92573,0.42155 1.51729,0.36932 2.06965,-0.18273 0.40535,-0.40512 0.48,-0.79955 0.48,-2.53618 0,-1.82905 -0.0464,-2.04763 -0.42,-1.97659 -0.34573,0.0658 -0.44122,0.41881 -0.54,1.99649 -0.11338,1.8109 -0.15235,1.92118 -0.70655,1.99936 -0.88309,0.12458 -1.21345,-0.53625 -1.21345,-2.42731 0,-1.2154 -0.0795,-1.62702 -0.3,-1.55432 -0.19199,0.0633 -0.3432,0.78292 -0.42,1.99888 -0.11326,1.79327 -0.15295,1.90466 -0.70655,1.98275 -0.88021,0.12418 -1.21345,-0.53693 -1.21345,-2.40732 0,-1.22913 -0.082,-1.63322 -0.33137,-1.63322 -0.2514,0 -0.35884,0.56447 -0.44516,2.3387 z m 7.95807,-1.63755 c -1.64769,1.64677 -0.28742,4.61945 1.9658,4.29596 0.65518,-0.0941 1.65266,-1.46663 1.65266,-2.27412 0,-0.53861 -0.0762,-0.56419 -1.68,-0.56419 -1.83841,0 -2.21038,-0.36122 -1.1124,-1.08025 0.58914,-0.38579 1.60232,-0.20547 1.94325,0.34585 0.0866,0.14007 0.3169,0.25466 0.51176,0.25466 0.27512,0 0.29912,-0.10301 0.10741,-0.46102 -0.76963,-1.43727 -2.24275,-1.66199 -3.38848,-0.51689 z m 2.65846,2.64854 c 0,0.44852 -0.63546,0.96791 -1.18422,0.96791 -0.32348,0 -1.21578,-0.88023 -1.21578,-1.19934 0,-0.13192 0.54,-0.23986 1.2,-0.23986 1.03284,0 1.2,0.0656 1.2,0.47129 z m 5.52,-0.009 0,3.37572 2.16,0 c 2,0 2.16,-0.0355 2.16,-0.47973 0,-0.43709 -0.16,-0.47973 -1.8,-0.47973 l -1.8,0 0,-0.95947 0,-0.95947 1.68,0 c 1.33333,0 1.68,-0.0742 1.68,-0.3598 0,-0.28594 -0.34878,-0.3598 -1.69904,-0.3598 l -1.69903,0 0.079,-1.49562 c 0.0672,-1.27107 0.016,-1.5078 -0.34096,-1.57672 -0.38395,-0.0741 -0.42,0.20867 -0.42,3.29462 z m 5.44,-3.18063 c -0.27867,0.27852 -0.18207,4.59548 0.10683,4.77393 0.14676,0.0906 0.34918,0.0317 0.44981,-0.13108 0.14015,-0.22664 0.32991,-0.19967 0.81072,0.11519 0.56106,0.36742 0.64302,0.37132 0.77146,0.0368 0.17785,-0.46321 -0.0578,-0.87702 -0.49937,-0.87702 -0.65133,0 -1.07945,-1.02006 -1.07945,-2.57197 0,-1.3899 -0.15154,-1.75409 -0.56,-1.34585 z m 3.1537,0.25984 c -0.62445,0.72673 -0.68715,0.96737 -0.41028,1.57468 0.29264,0.64193 1.12997,1.12167 1.96787,1.1275 0.29079,0.002 0.68376,0.10173 0.87328,0.22158 0.28556,0.1806 0.2908,0.28266 0.0306,0.59599 -0.43318,0.52166 -1.29445,0.47343 -1.81518,-0.10165 -0.55909,-0.61745 -1.07338,-0.62619 -0.91361,-0.0155 0.26583,1.01595 1.55972,1.58095 2.70593,1.1816 0.78101,-0.27211 0.95982,-0.75738 0.9644,-2.61726 0.002,-0.73219 0.13288,-1.46079 0.29128,-1.6191 0.45456,-0.4543 -0.1436,-0.94609 -0.64494,-0.53025 -0.29306,0.24309 -0.51213,0.25153 -0.98146,0.0378 -0.86636,-0.39452 -1.65183,-0.33958 -2.0679,0.14463 z m 2.38496,0.82823 c 0.16574,0.13747 0.30134,0.46673 0.30134,0.7317 0,0.41889 -0.1124,0.46351 -0.86142,0.34203 -1.19432,-0.1937 -1.59771,-0.56378 -1.27382,-1.16863 0.19672,-0.36736 0.4001,-0.43913 0.89362,-0.31533 0.35141,0.0882 0.77454,0.27275 0.94028,0.41023 z m 2.81527,-0.61912 c -1.2153,1.31061 -0.84243,3.64604 0.69886,4.37716 0.59758,0.28346 0.80092,0.2771 1.47949,-0.0463 0.86287,-0.41125 1.27834,-1.24955 0.83546,-1.6857 -0.21168,-0.20847 -0.39794,-0.11484 -0.76386,0.38394 -0.56141,0.76527 -1.164,0.84239 -1.72668,0.22098 -0.44712,-0.49379 -0.52356,-1.75557 -0.14876,-2.45551 0.36904,-0.68918 1.91156,-0.55896 1.91156,0.16136 0,0.18378 0.216,0.33414 0.48,0.33414 0.84339,0 0.51152,-1.04668 -0.49716,-1.56801 -0.98642,-0.50981 -1.60917,-0.43352 -2.26891,0.27795 z m 4.92607,-0.43764 c -0.60044,0.20109 -0.71249,0.57453 -0.71633,2.38733 -0.002,0.997 -0.10608,1.73904 -0.24367,1.73904 -0.132,0 -0.24,0.16191 -0.24,0.3598 0,0.19789 0.108,0.3598 0.24,0.3598 0.132,0 0.24,0.33173 0.24,0.73718 0,0.57266 0.0937,0.71934 0.42,0.65719 0.23245,-0.0443 0.45721,-0.34249 0.50332,-0.66782 0.0458,-0.3233 0.26183,-0.71927 0.48,-0.87992 0.36683,-0.27012 0.36507,-0.30435 -0.0233,-0.45483 -0.57614,-0.22323 -0.63228,-3.46954 -0.06,-3.46954 0.43459,0 0.48262,-0.6232 0.06,-0.77853 -0.165,-0.0607 -0.462,-0.056 -0.66,0.0103 z m 5.05974,-0.019 c -1.3654,0.53931 -1.86321,2.59671 -0.9756,4.03208 1.19122,1.92639 3.83586,0.84683 3.83586,-1.56581 0,-1.7345 -1.48065,-3.01119 -2.86026,-2.46626 z m 1.65182,1.25116 c 0.13664,0.25519 0.24844,0.80198 0.24844,1.21511 0,1.12274 -0.39066,1.67907 -1.17906,1.67907 -0.89492,0 -1.2864,-0.51097 -1.2864,-1.67907 0,-0.52328 0.13596,-1.11514 0.30212,-1.31524 0.43605,-0.52512 1.61304,-0.46357 1.9149,0.10014 z m 15.12844,-1.16839 c 0,0.1968 0.14605,0.57074 0.32456,0.83096 0.17851,0.26023 0.89064,1.55254 1.58251,2.87181 1.3398,2.55473 1.59761,2.93368 1.83469,2.69674 0.0824,-0.0823 -0.17347,-0.72277 -0.56852,-1.42321 -0.39506,-0.70044 -1.11814,-2.02911 -1.60684,-2.9526 -0.99738,-1.88473 -1.5664,-2.61987 -1.5664,-2.0237 z m -20.16,2.3835 c 0,2.23876 0.032,2.39867 0.48,2.39867 0.448,0 0.48,-0.15991 0.48,-2.39867 0,-2.23875 -0.032,-2.39867 -0.48,-2.39867 -0.448,0 -0.48,0.15992 -0.48,2.39867 z m 7.2,-0.0176 c 0,1.98786 0.0638,2.41625 0.36,2.41625 0.198,0 0.36,-0.11406 0.36,-0.25347 0,-0.14207 0.23442,-0.0894 0.5334,0.11993 0.7517,0.52622 1.31644,0.46534 1.99751,-0.21536 0.52783,-0.52753 0.58909,-0.78946 0.58909,-2.5186 0,-1.5555 -0.0698,-1.92984 -0.36,-1.92984 -0.28345,0 -0.36,0.3349 -0.36,1.57491 0,1.84055 -0.28024,2.50283 -1.05906,2.50283 -0.89362,0 -1.21985,-0.62896 -1.23147,-2.37428 -0.009,-1.29437 -0.0848,-1.5953 -0.42,-1.65982 -0.36408,-0.0701 -0.40947,0.18903 -0.40947,2.33744 z m 15.85742,-1.74907 c -0.62625,0.79571 -0.62831,1.29592 -0.008,1.96129 0.92868,0.99627 2.63064,0.39598 2.63064,-0.92784 0,-1.52393 -1.70711,-2.19663 -2.62258,-1.03345 z m 1.62358,0.29829 c 0.17655,0.11184 0.28455,0.46099 0.24,0.77589 -0.0973,0.688 -1.08318,0.80309 -1.48092,0.17288 -0.45729,-0.72455 0.47259,-1.43551 1.24092,-0.94877 z m -5.5018,2.49543 c -1.06029,0.81361 -1.03075,2.0988 0.0639,2.78207 0.64545,0.40287 1.71319,-0.0212 2.08014,-0.82606 0.62687,-1.37507 -0.98494,-2.84549 -2.14409,-1.95601 z m 1.55926,1.04221 c 0.18845,0.4908 -0.25821,1.04899 -0.8394,1.04899 -0.58213,0 -1.01538,-0.78724 -0.63983,-1.16259 0.40629,-0.40606 1.30625,-0.33695 1.47923,0.11359 z m -20.69515,1.58869 c 0.0422,0.29683 0.23869,0.5397 0.43669,0.5397 0.198,0 0.39451,-0.24287 0.43669,-0.5397 0.059,-0.41538 -0.0416,-0.5397 -0.43669,-0.5397 -0.39512,0 -0.49572,0.12432 -0.43669,0.5397 z m -103.8907,14.3793 c -1.25788,0.6074 -1.70452,3.59197 -0.79214,5.29332 l 0.48046,0.89595 -0.72046,0 -0.72047,0 0,2.26457 c 0,1.25098 -0.10742,2.33094 -0.24,2.41283 -0.132,0.0815 -0.24,0.30378 -0.24,0.49389 0,0.26338 0.35037,0.34564 1.47214,0.34564 l 1.47214,0 -0.15334,35.44031 c -0.0843,19.49217 -0.20627,41.32303 -0.27096,48.51304 -0.0647,7.19 -0.18436,31.1764 -0.26595,53.30311 l -0.14833,40.23037 22.04715,0.0719 c 12.12593,0.0395 39.42561,0.098 60.66595,0.13001 30.27127,0.0456 38.69819,0.12235 38.98607,0.35517 0.29669,0.23994 0.33054,0.23601 0.17615,-0.0204 -0.15835,-0.26301 4.74466,-0.2879 28.59831,-0.1452 16.88272,0.101 28.84297,0.0835 28.9189,-0.0424 0.0712,-0.11803 0.19578,-14.51666 0.27682,-31.99694 0.0811,-17.48029 0.20066,-38.36668 0.26582,-46.41421 0.0652,-8.04753 0.17384,-32.76579 0.24152,-54.92947 0.0677,-22.16369 0.18798,-41.78179 0.26732,-43.59578 l 0.14426,-3.29816 -21.61547,0 c -11.88851,0 -23.48365,-0.0497 -25.76698,-0.11045 -2.28334,-0.0607 -30.23352,-0.17774 -62.11152,-0.25999 -31.878,-0.0822 -60.012,-0.16746 -62.52,-0.18938 l -4.56,-0.0399 -0.12,-1.19933 c -0.11957,-1.19499 -0.12336,-1.19961 -1.04673,-1.27538 l -0.92673,-0.076 0.54683,-0.58174 c 0.38608,-0.41073 0.5784,-0.96223 0.65422,-1.87599 0.14292,-1.72241 -0.28539,-2.94737 -1.23233,-3.52446 -0.85012,-0.51808 -1.0176,-0.5347 -1.76265,-0.17493 z m 1.71378,1.20544 c 0.45274,0.64602 0.48987,2.70043 0.0641,3.54463 -0.33828,0.67065 -1.21585,0.90658 -1.74367,0.46877 -0.41404,-0.34343 -0.48665,-3.3574 -0.0983,-4.08254 0.33703,-0.6294 1.31506,-0.59136 1.77795,0.0691 z m 0.61932,8.14892 c 0.52486,0.88328 0.95429,1.66585 0.95429,1.73904 0,0.0732 -1.026,0.13307 -2.28,0.13307 -1.254,0 -2.28,-0.059 -2.28,-0.13111 0,-0.0721 0.50635,-1.00848 1.12521,-2.08082 0.81939,-1.41979 1.17971,-1.85681 1.32571,-1.60792 0.11027,0.18798 0.62993,1.06446 1.15479,1.94774 z m 7.19429,0.79271 c 0,0.58634 0.10857,0.83953 0.36,0.83953 0.25143,0 0.36,-0.25319 0.36,-0.83953 l 0,-0.83954 4.2,0 4.2,0 0,0.58653 c 0,0.52954 -0.11076,0.59363 -1.14,0.65963 l -1.14,0.0731 -0.0723,1.39149 c -0.0832,1.60084 0.15635,1.57009 -2.98817,0.38357 -1.02328,-0.38611 -2.42728,-0.85522 -3.12,-1.04246 -0.69272,-0.18725 -2.33949,-0.71733 -3.65949,-1.17796 l -2.4,-0.83751 2.7,-0.0182 2.7,-0.0182 0,0.83954 z m 18.04551,0.005 c 0.0964,1.09285 0.53252,1.09354 0.62892,9.6e-4 l 0.0744,-0.84355 4.06557,0.0337 4.06557,0.0337 0,1.52444 c 0,1.19518 0.0778,1.52447 0.36,1.52447 0.28373,0 0.36,-0.33626 0.36,-1.58711 0,-1.52883 0.0198,-1.5818 0.54,-1.44247 0.297,0.0796 2.187,0.14611 4.2,0.14791 l 3.66,0.003 0,0.83954 c 0,0.46174 0.108,0.83953 0.24,0.83953 0.132,0 0.24,-0.37779 0.24,-0.83953 l 0,-0.83954 4.2,0 4.2,0 0,0.70544 c 0,0.388 0.108,0.77216 0.24,0.8537 0.14283,0.0882 0.24,-0.1974 0.24,-0.70545 l 0,-0.85369 4.2,0 4.2,0 0,0.83954 c 0,0.46174 0.108,0.83953 0.24,0.83953 0.132,0 0.24,-0.37779 0.24,-0.83953 l 0,-0.83954 4.2,0 4.2,0 0,1.57912 c 0,1.15619 0.0804,1.55261 0.3,1.48013 0.18576,-0.0613 0.32721,-0.66265 0.37145,-1.57912 l 0.0714,-1.48013 4.06855,0 4.06855,0 0,0.83954 c 0,0.58633 0.10857,0.83953 0.36,0.83953 0.25143,0 0.36,-0.2532 0.36,-0.83953 l 0,-0.83954 4.2,0 4.2,0 0,0.83954 c 0,1.05809 0.42383,1.10652 0.52479,0.06 l 0.0752,-0.77957 4.14,-0.0656 4.14,-0.0656 0,0.8452 c 0,1.06229 0.42354,1.11526 0.52479,0.0656 0.0653,-0.67673 0.16227,-0.77759 0.73521,-0.76457 0.363,0.008 2.226,0.0352 4.14,0.06 l 3.48,0.045 0,1.4392 c 0,0.79955 0.10667,1.4392 0.24,1.4392 0.13333,0 0.24,-0.63965 0.24,-1.4392 l 0,-1.4392 4.2,0 4.2,0 0,0.7196 c 0,0.47973 0.12,0.7196 0.36,0.7196 0.24,0 0.36,-0.23987 0.36,-0.7196 l 0,-0.7196 4.08,0 4.08,0 0,0.7196 c 0,0.47973 0.12,0.7196 0.36,0.7196 0.24,0 0.36,-0.23987 0.36,-0.7196 l 0,-0.7196 4.2,0 4.2,0 0,0.7196 c 0,0.39578 0.108,0.7196 0.24,0.7196 0.132,0 0.24,-0.32382 0.24,-0.7196 l 0,-0.7196 4.18855,0 4.18855,0 0.0715,1.49917 c 0.0393,0.82454 0.17945,1.49916 0.31145,1.49916 0.132,0 0.27215,-0.67462 0.31145,-1.49916 l 0.0715,-1.49917 4.05335,0 4.05334,0 0.0752,0.77957 c 0.0414,0.42876 0.18321,0.77956 0.31521,0.77956 0.132,0 0.27384,-0.3508 0.31521,-0.77956 l 0.0752,-0.77957 4.1848,0 4.18479,0 0,0.70544 c 0,0.388 0.108,0.77216 0.24,0.85369 0.14283,0.0882 0.24,-0.1974 0.24,-0.70544 l 0,-0.85369 4.18479,0 4.1848,0 0.0752,0.76109 c 0.10963,1.10941 0.67521,1.17936 0.67521,0.0835 l 0,-0.87444 3.54,0.12711 c 1.947,0.0699 3.837,0.1306 4.2,0.13486 l 0.66,0.008 0,3.23821 0,3.2382 -0.84,0 c -0.462,0 -0.84,0.10794 -0.84,0.23986 0,0.13193 0.378,0.23987 0.84,0.23987 l 0.84,0 0,3.35813 0,3.35814 -0.86,0 c -1.09416,0 -0.99704,0.56688 0.11583,0.67612 l 0.77887,0.0765 -0.0693,2.87185 c -0.0381,1.57951 -0.12694,2.96443 -0.19735,3.07759 -0.0704,0.11316 -0.38956,0.24361 -0.70922,0.28989 -0.89028,0.1289 -0.92177,0.68382 -0.0388,0.68382 l 0.74,0 0,3.2382 0,3.2382 -0.72,0 c -0.48,0 -0.72,0.11994 -0.72,0.3598 0,0.23987 0.24,0.3598 0.72,0.3598 l 0.72,0 0,3.35814 0,3.35813 -1.44,0 c -0.8,0 -1.44,0.10661 -1.44,0.23987 0,0.13326 0.64,0.23986 1.44,0.23986 l 1.44,0 0,3.22301 0,3.223 -0.78,0.0752 c -0.429,0.0413 -0.78,0.18311 -0.78,0.31503 0,0.13193 0.351,0.2737 0.78,0.31504 l 0.78,0.0752 0,3.20781 0,3.2078 -0.78,0.0752 c -0.49991,0.0482 -0.78,0.20437 -0.78,0.43497 0,0.2306 0.28009,0.38679 0.78,0.43496 l 0.78,0.0752 0,3.223 0,3.223 -0.86,0 c -1.08439,0 -1.00176,0.56624 0.0985,0.67484 0.72963,0.072 0.76152,0.11972 0.76152,1.13936 0,0.58531 -0.0351,1.0642 -0.0781,1.0642 -0.22736,0 -8.73983,-2.93984 -10.84195,-3.74435 -0.792,-0.3031 -2.088,-0.73199 -2.88,-0.95308 -0.792,-0.22109 -2.52,-0.80917 -3.84,-1.30685 -3.579,-1.3494 -7.14821,-2.60945 -8.44731,-2.98219 -0.63398,-0.18191 -2.88069,-0.93977 -4.99269,-1.68414 -2.112,-0.74438 -5.892,-2.0418 -8.4,-2.88316 -2.508,-0.84137 -6.288,-2.1367 -8.4,-2.87851 -9.25343,-3.25015 -14.32399,-5.00906 -16.56,-5.74443 -1.32,-0.43411 -2.994,-1.03002 -3.72,-1.32424 -0.726,-0.29422 -1.88677,-0.68434 -2.57949,-0.86695 -0.69272,-0.1826 -2.11689,-0.66247 -3.16482,-1.06637 -1.50126,-0.57863 -1.92129,-0.84637 -1.98052,-1.26248 -0.0682,-0.47901 -0.2537,-0.54203 -1.99517,-0.6777 -1.9361,-0.15084 -3.66699,-0.65156 -9,-2.60357 -1.518,-0.55562 -6,-2.09896 -9.96,-3.42965 -6.6814,-2.24515 -8.94162,-3.03165 -14.64,-5.09436 -1.188,-0.43003 -2.862,-1.0024 -3.72,-1.27191 -1.8357,-0.57664 -4.32166,-1.44014 -7.32,-2.54259 -1.188,-0.43681 -2.538,-0.92162 -3,-1.07736 -0.462,-0.15573 -3.702,-1.24282 -7.2,-2.41576 -3.498,-1.17293 -7.764,-2.63385 -9.48,-3.24648 -1.716,-0.61264 -3.768,-1.32527 -4.56,-1.58364 -0.792,-0.25837 -3.56929,-1.23779 -6.17175,-2.1765 l -4.73175,-1.70674 -0.0682,-2.30207 -0.0683,-2.30206 -1.26,-0.0725 c -1.15707,-0.0666 -1.26,-0.12047 -1.26,-0.65963 l 0,-0.58714 4.18551,0 4.18551,0 0.0745,0.84455 z m 31.44663,13.36756 0.0679,2.6985 2.7,0.0678 2.7,0.0678 0,-2.76632 0,-2.76632 -2.76786,0 -2.76786,0 0.0679,2.6985 z m 4.98786,-0.06 0,2.1588 -2.28,0 -2.28,0 0,-2.1588 0,-2.1588 2.28,0 2.28,0 0,2.1588 z m -59.41963,-12.32747 c 0.2088,0.0801 0.37963,0.27597 0.37963,0.43531 0,0.33034 1.48237,1.09816 2.12014,1.09816 0.23312,0 0.53587,-0.11195 0.67278,-0.24878 0.16394,-0.16385 0.45393,-0.17088 0.84945,-0.0206 0.49431,0.18783 0.58213,0.35358 0.49645,0.93703 -0.0913,0.62169 -0.008,0.74217 0.67436,0.98005 1.25009,0.43554 1.66682,0.35342 1.66682,-0.32845 0,-0.32982 0.0975,-0.59967 0.21666,-0.59967 0.11917,0 1.17217,0.36901 2.34,0.82003 l 2.12334,0.82004 0.0674,2.8979 0.0674,2.8979 2.64015,0 c 2.06318,0 2.66882,-0.0747 2.77133,-0.34169 0.0932,-0.24276 0.36897,-0.30312 0.95247,-0.20848 0.75753,0.12286 0.82128,0.0851 0.82128,-0.48659 0,-0.47255 -0.19957,-0.71445 -0.84,-1.01819 -0.67389,-0.3196 -0.84,-0.53528 -0.84,-1.09065 0,-0.84051 0.26729,-0.86575 1.97112,-0.18617 1.81364,0.72339 6.27868,2.3185 8.10888,2.89685 1.49578,0.47267 6.27713,2.15863 7.35886,2.59483 0.72632,0.29287 4.45484,1.54158 6.32114,2.11698 0.858,0.26453 3.936,1.31121 6.84,2.32594 2.904,1.01473 7.71,2.68001 10.68,3.70061 2.97,1.02061 6.102,2.13144 6.96,2.46851 0.858,0.33708 2.91,1.04994 4.56,1.58413 6.1424,1.98863 5.71152,1.84084 19.56,6.70923 l 4.08,1.43431 0,2.24269 0,2.24269 2.7,0.0678 2.7,0.0678 0,-1.32713 c 0,-0.72991 0.027,-1.32708 0.06,-1.32704 0.033,5e-5 3.354,1.12656 7.38,2.50336 4.026,1.37681 8.346,2.84893 9.6,3.27139 1.254,0.42245 3.252,1.12714 4.44,1.56598 4.55943,1.68419 7.56859,2.73359 7.83859,2.73359 0.1545,0 1.42403,0.41862 2.82116,0.93027 1.39714,0.51165 3.40425,1.20597 4.46025,1.54292 1.056,0.33695 4.296,1.43866 7.2,2.44824 2.904,1.00959 5.82,1.99843 6.48,2.19742 0.66,0.199 2.01,0.6712 3,1.04934 2.25584,0.86162 4.83933,1.75828 7.32,2.54056 1.056,0.33301 2.892,0.97035 4.08,1.4163 3.29274,1.23603 5.25295,1.91734 8.33987,2.89867 l 2.81986,0.89645 -0.0599,1.33475 c -0.059,1.31627 -0.0707,1.33579 -0.83987,1.40992 -1.06336,0.10247 -0.99094,0.5245 0.09,0.5245 0.8464,0 0.86593,0.0203 0.72,0.74958 -0.0825,0.41227 -0.15,1.92343 -0.15,3.35814 l 0,2.60855 -1.44,0 c -1.12,0 -1.44,0.0799 -1.44,0.3598 0,0.27984 0.32,0.3598 1.44,0.3598 l 1.44,0 0,3.2382 0,3.2382 -0.72,0 c -0.396,0 -0.72,0.0994 -0.72,0.2208 0,0.12145 0.324,0.29194 0.72,0.37886 l 0.72,0.15805 0,3.09921 0,3.09921 -0.58584,0 c -0.3222,0 -0.65029,0.10425 -0.72908,0.23166 -0.0866,0.13998 -0.46344,0.0791 -0.95235,-0.15397 -0.9787,-0.46645 -1.57273,-0.28892 -1.57273,0.47002 0,0.40803 0.23321,0.67392 0.84814,0.967 1.20062,0.57221 1.97993,0.52949 2.07517,-0.11376 0.0422,-0.2849 0.26569,-0.5452 0.49669,-0.57845 0.38277,-0.0551 0.42,0.23533 0.42,3.27646 l 0,3.33691 -0.72,0 c -0.396,0 -0.72,0.10794 -0.72,0.23987 0,0.13192 0.324,0.23986 0.72,0.23986 l 0.72,0 0,3.22301 0,3.223 -0.78,0.0752 c -0.49991,0.0482 -0.78,0.20437 -0.78,0.43497 0,0.2306 0.28009,0.38679 0.78,0.43496 l 0.78,0.0752 0,3.223 0,3.223 -1.58,0 c -1.15683,0 -1.55347,0.0803 -1.48095,0.29983 0.0613,0.18566 0.66302,0.32703 1.58,0.37125 l 1.48095,0.0714 0,3.22676 0,3.22675 -0.84,0 c -0.462,0 -0.84,0.10794 -0.84,0.23987 0,0.13193 0.378,0.23987 0.84,0.23987 l 0.84,0 0,3.35813 0,3.35813 -0.86,0 c -0.57977,0 -0.82753,0.0974 -0.76034,0.29882 0.0548,0.16435 0.25282,0.30982 0.44,0.32326 1.25951,0.0905 1.18034,-0.13325 1.18034,3.33572 l 0,3.2382 -0.84,0 c -0.462,0 -0.84,0.10794 -0.84,0.23987 0,0.13193 0.378,0.23987 0.84,0.23987 l 0.84,0 0,1.21078 0,1.21079 -33.496,-0.0354 c -18.4228,-0.0195 -33.53327,0.002 -33.57882,0.0485 -0.0455,0.0462 -0.11041,10.55413 -0.14413,23.35102 -0.0337,12.79689 -0.1088,23.40199 -0.16686,23.5669 -0.073,0.20749 -0.72241,0.29984 -2.10841,0.29984 l -2.00288,0 -0.0714,-1.44164 c -0.0893,-1.80224 -0.55145,-1.8002 -0.55145,0.002 l 0,1.31926 -4.08,0 -4.08,0 -0.0752,-0.77956 c -0.10157,-1.05287 -0.52479,-0.99513 -0.52479,0.0716 l 0,0.85116 -3.18,-0.0414 c -1.749,-0.0228 -3.639,-0.0967 -4.2,-0.16417 -0.93399,-0.1124 -1.02,-0.18068 -1.02,-0.80974 0,-0.37785 -0.108,-0.687 -0.24,-0.687 -0.132,0 -0.24,0.32382 -0.24,0.7196 l 0,0.7196 -4.2,0 -4.2,0 0,-0.7196 c 0,-0.47973 -0.12,-0.7196 -0.36,-0.7196 -0.24,0 -0.36,0.23987 -0.36,0.7196 l 0,0.7196 -4.06802,0 -4.06803,0 -0.072,-1.36028 c -0.10334,-1.95286 -0.67198,-2.03655 -0.67198,-0.0989 l 0,1.45919 -1.62,1.6e-4 -1.62,1.5e-4 0,-0.89965 c 0,-0.73975 -0.0853,-0.89966 -0.48,-0.89966 -0.39468,0 -0.48,0.15991 -0.48,0.89966 l 0,0.89965 -2.1,-1.5e-4 -2.1,-1.6e-4 0,-0.7196 c 0,-0.39578 -0.108,-0.7196 -0.24,-0.7196 -0.132,0 -0.24,0.32382 -0.24,0.7196 l 0,0.7196 -4.2,0 -4.2,0 0,-0.7196 c 0,-0.39578 -0.108,-0.7196 -0.24,-0.7196 -0.132,0 -0.24,0.32382 -0.24,0.7196 l 0,0.7196 -4.2,0 -4.2,0 0,-0.85369 c 0,-0.50805 -0.0972,-0.79367 -0.24,-0.70544 -0.132,0.0815 -0.24,0.46569 -0.24,0.85369 l 0,0.70544 -4.2,0 -4.2,0 0,-1.4392 c 0,-1.11938 -0.08,-1.4392 -0.36,-1.4392 -0.28,0 -0.36,0.31982 -0.36,1.4392 l 0,1.4392 -4.2,0 -4.2,0 0,-0.85369 c 0,-0.50805 -0.0972,-0.79367 -0.24,-0.70544 -0.132,0.0815 -0.24,0.46824 -0.24,0.85935 l 0,0.71111 -4.13785,-0.0656 -4.13786,-0.0656 -0.12214,-0.69982 c -0.17115,-0.98054 -0.72215,-1.1024 -0.72215,-0.15971 0,0.80487 0.0528,0.78457 -2.04,0.78457 -0.726,0 -2.454,-0.0101 -3.84,-0.0225 l -2.52,-0.0225 0,-0.7196 c 0,-0.39578 -0.108,-0.7196 -0.24,-0.7196 -0.132,0 -0.24,0.32382 -0.24,0.7196 l 0,0.7196 -4.05432,0 c -3.03777,0 -4.07581,-0.0752 -4.14,-0.29983 -0.0471,-0.16491 -0.0524,-1.61553 -0.0118,-3.22361 0.0735,-2.9072 0.0773,-2.92419 0.66747,-2.99833 0.77519,-0.0974 0.7656,-0.5328 -0.0139,-0.63019 l -0.60746,-0.0759 0,-3.08641 0,-3.0864 0.60746,-0.0759 c 0.78628,-0.0982 0.78628,-0.53329 0,-0.63153 l -0.60746,-0.0759 0,-3.3422 0,-3.3422 0.74,0 c 0.91823,0 0.83584,-0.56502 -0.0985,-0.67557 l -0.64149,-0.0759 0,-3.20634 0,-3.20634 0.60746,-0.0759 c 0.33411,-0.0417 0.60746,-0.18384 0.60746,-0.31576 0,-0.13193 -0.27335,-0.27402 -0.60746,-0.31577 l -0.60746,-0.0759 0,-3.22226 0,-3.22227 1.44,0 c 0.8,0 1.44,-0.10661 1.44,-0.23987 0,-0.13326 -0.64,-0.23987 -1.44,-0.23987 l -1.44,0 0,-3.47806 0,-3.47807 0.74,0 c 0.91823,0 0.83584,-0.56502 -0.0985,-0.67557 l -0.64149,-0.0759 0,-3.10234 0,-3.10234 0.72,0 c 0.48,0 0.72,-0.11993 0.72,-0.3598 0,-0.23986 -0.24,-0.3598 -0.72,-0.3598 l -0.72,0 0,-3.2382 0,-3.2382 0.74,0 c 0.93122,0 0.82956,-0.56598 -0.12175,-0.6778 -0.55197,-0.0649 -0.64098,-0.16661 -0.52476,-0.59967 0.077,-0.28684 0.14143,-1.73585 0.14323,-3.22003 l 0.003,-2.6985 0.58584,0 c 0.88246,0 0.99257,-0.46406 0.15007,-0.63246 l -0.73591,-0.1471 0,-3.20822 0,-3.20822 1.32,0 c 1.01333,0 1.32,-0.0836 1.32,-0.3598 0,-0.27621 -0.30667,-0.3598 -1.32,-0.3598 l -1.32,0 0,-3.2382 0,-3.2382 0.72,0 c 0.48,0 0.72,-0.11993 0.72,-0.3598 0,-0.23987 -0.24,-0.3598 -0.72,-0.3598 l -0.72,0 0,-3.2382 0,-3.2382 0.74,0 c 0.91823,0 0.83584,-0.56502 -0.0985,-0.67557 l -0.64149,-0.0759 0,-3.22227 0,-3.22227 0.74,0 c 0.91823,0 0.83584,-0.56502 -0.0985,-0.67557 l -0.64149,-0.0759 0,-3.22226 0,-3.22227 0.72,0 c 0.48,0 0.72,-0.11994 0.72,-0.3598 0,-0.23987 -0.24,-0.3598 -0.72,-0.3598 l -0.72,0 0,-3.2382 0,-3.2382 1.46,0 c 1.93872,0 1.85498,-0.56833 -0.099,-0.67161 l -1.36104,-0.0719 0,-3.21103 0,-3.21103 0.78,-0.0752 c 1.01861,-0.0982 1.00597,-0.53324 -0.0183,-0.63143 l -0.79834,-0.0765 0.12758,-1.24273 c 0.0702,-0.68351 0.13243,-2.12607 0.13835,-3.2057 0.0107,-1.96009 0.0117,-1.96308 0.67076,-2.03887 0.363,-0.0417 0.66,-0.18384 0.66,-0.31577 0,-0.13192 -0.297,-0.27402 -0.66,-0.31576 l -0.66,-0.0759 0,-3.20634 0,-3.20633 0.66,-0.0759 c 0.363,-0.0418 0.66,-0.18384 0.66,-0.31577 0,-0.13192 -0.297,-0.27402 -0.66,-0.31576 l -0.66001,-0.0759 0,-3.32627 0,-3.32627 0.64149,-0.0759 c 0.93435,-0.11055 1.01674,-0.67557 0.0985,-0.67557 l -0.74,0 0,-3.10629 0,-3.1063 1.36104,-0.0719 c 1.95394,-0.10327 2.03768,-0.6716 0.099,-0.6716 l -1.46,0 0,-3.2382 0,-3.2382 0.72,0 c 0.48,0 0.72,-0.11993 0.72,-0.3598 0,-0.23987 -0.24,-0.3598 -0.72,-0.3598 l -0.72,0 0,-3.2382 0,-3.2382 0.72,0 c 0.48,0 0.72,-0.11994 0.72,-0.3598 0,-0.24086 -0.24101,-0.3598 -0.72907,-0.3598 l -0.72907,0 0.11256,-2.09884 c 0.0619,-1.15435 0.11999,-2.60437 0.12907,-3.22226 0.0149,-1.01688 0.0741,-1.13064 0.62397,-1.19934 0.33411,-0.0417 0.60746,-0.18384 0.60746,-0.31576 0,-0.13193 -0.27335,-0.27402 -0.60746,-0.31577 l -0.60746,-0.0759 0,-3.22227 0,-3.22226 0.74,0 c 0.91823,0 0.83584,-0.56502 -0.0985,-0.67557 -0.63076,-0.0746 -0.64149,-0.10562 -0.64149,-1.85297 l 0,-1.77707 0.72,0.14392 c 0.56369,0.11267 0.72,0.0593 0.72,-0.24586 0,-0.25586 0.20615,-0.38979 0.6,-0.38979 0.37333,0 0.6,-0.13592 0.6,-0.3598 0,-0.40371 0.044,-0.41993 0.58037,-0.2142 z m -2.4082,1.87926 c -0.26172,0.68166 0.0222,1.21222 0.68988,1.28924 0.52176,0.0602 0.65795,-0.0226 0.65795,-0.40015 0,-0.79625 -0.26754,-1.23488 -0.75321,-1.23488 -0.25402,0 -0.5216,0.1556 -0.59462,0.34579 z m 10.70783,2.26015 c 0,0.59272 0.14746,0.7433 1.07431,1.09707 1.21002,0.46186 1.56569,0.35897 1.56569,-0.45292 0,-0.42929 -0.22451,-0.64925 -0.96486,-0.94531 -1.38643,-0.55444 -1.67514,-0.50253 -1.67514,0.30116 z m -10.08,-0.003 c 0,0.84508 0.27805,1.23488 0.88088,1.23488 0.52054,0 0.58073,-0.0912 0.51433,-0.77957 -0.0627,-0.64958 -0.18526,-0.79222 -0.73521,-0.85547 -0.52381,-0.0602 -0.66,0.0223 -0.66,0.40015 z m 0.72,2.40856 c 0,0.67377 0.34753,0.98512 1.09963,0.98512 0.229,0 0.34037,-0.27471 0.34037,-0.83954 0,-0.7729 -0.0571,-0.83953 -0.72,-0.83953 -0.63408,0 -0.72,0.0828 -0.72,0.69394 z m 0.96,2.06452 c 0,0.76803 0.0649,0.86369 0.54,0.79625 0.42296,-0.06 0.54,-0.23262 0.54,-0.79625 0,-0.56363 -0.11704,-0.73622 -0.54,-0.79625 -0.47512,-0.0674 -0.54,0.0282 -0.54,0.79625 z m 20.4,1.1938 c 0,0.74417 0.92549,1.38755 1.84449,1.28226 0.92074,-0.10549 0.89684,-0.86818 -0.0445,-1.41958 -1.09439,-0.64106 -1.8,-0.58723 -1.8,0.13732 z m -19.92,0.43996 c 0,0.32243 0.16081,0.71962 0.35736,0.88264 0.19654,0.16303 0.29438,0.39826 0.2174,0.52274 -0.25735,0.41618 0.14292,1.3984 0.56981,1.39823 0.32009,-1.2e-4 0.41543,0.20631 0.41543,0.8995 0,0.80314 0.0708,0.9078 0.66,0.97556 0.56778,0.0653 0.66,-0.01 0.66,-0.53767 0,-0.33746 -0.19537,-0.73551 -0.43416,-0.88455 -0.2975,-0.18569 -0.40362,-0.47902 -0.33711,-0.93188 0.0655,-0.44607 -0.0469,-0.76797 -0.34584,-0.99034 -0.25885,-0.19255 -0.44289,-0.62849 -0.44289,-1.04906 0,-0.60671 -0.10354,-0.73151 -0.66,-0.7955 -0.56068,-0.0645 -0.66,0.0123 -0.66,0.51033 z m 23.76,1.67994 c 0,0.39941 0.23804,0.66869 0.84814,0.95947 1.29838,0.61881 1.79186,0.53842 1.79186,-0.29191 0,-0.56516 -0.14221,-0.74568 -0.75581,-0.95946 -1.26484,-0.44068 -1.88419,-0.34473 -1.88419,0.2919 z m 3.92238,1.49511 c -0.23559,0.6136 0.0953,1.00446 1.21082,1.43024 1.21866,0.46515 1.8268,0.35682 1.8268,-0.32542 0,-0.70264 -0.48762,-0.97233 -2.47194,-1.3672 -0.23756,-0.0473 -0.49212,0.0708 -0.56568,0.26238 z m 3.91762,1.70757 c -0.44291,0.44267 -0.0837,1.03352 0.92492,1.52153 1.28906,0.62368 1.85867,0.49852 1.75115,-0.3848 -0.0592,-0.48662 -0.28863,-0.69856 -1.03607,-0.95722 -1.08186,-0.37437 -1.40918,-0.4102 -1.64,-0.17951 z m -29.44,1.02325 c 0,0.49172 0.14382,0.74906 0.47785,0.85502 0.67645,0.21458 0.96215,-0.0387 0.96215,-0.85301 0,-0.62391 -0.0832,-0.70544 -0.72,-0.70544 -0.63632,0 -0.72,0.0818 -0.72,0.70343 z m 11.78219,2.93516 c -0.80421,1.3421 -1.46219,2.58361 -1.46219,2.75892 0,0.24875 0.68523,0.31876 3.12,0.31876 1.96053,0 3.12,-0.0909 3.12,-0.24464 0,-0.13455 -0.27,-0.6721 -0.6,-1.19456 -0.33,-0.52247 -0.6,-1.00396 -0.6,-1.06998 0,-0.20774 -1.66371,-2.72952 -1.89503,-2.8724 -0.12133,-0.0749 -0.87858,0.96181 -1.68278,2.3039 z m 3.18783,1.09877 0.83482,1.49917 -2.40045,0 -2.40044,0 0.69838,-1.2593 c 0.3841,-0.69261 0.90521,-1.60834 1.15802,-2.03495 l 0.45965,-0.77566 0.4076,0.53579 c 0.22418,0.29468 0.78327,1.21041 1.24242,2.03495 z m -14.25002,-2.37425 c 0,0.84509 0.27805,1.23489 0.88088,1.23489 0.52054,0 0.58073,-0.0912 0.51433,-0.77957 -0.0627,-0.64958 -0.18526,-0.79222 -0.73521,-0.85546 -0.52381,-0.0602 -0.66,0.0223 -0.66,0.40014 z m 32.88,0.11106 c 0,0.39941 0.23804,0.66869 0.84814,0.95947 1.31395,0.62623 1.79186,0.54053 1.79186,-0.32131 0,-0.80163 -0.63543,-1.1934 -1.93562,-1.1934 -0.57631,0 -0.70438,0.10096 -0.70438,0.55524 z m -31.92,2.21076 c 0,0.53166 0.13404,0.89847 0.36,0.98513 0.22302,0.0855 0.36,0.45061 0.36,0.95946 0,0.50886 0.13698,0.87394 0.36,0.95947 0.22475,0.0862 0.36,0.45227 0.36,0.9744 0,0.59855 0.12084,0.8679 0.42504,0.94741 0.33706,0.0881 0.40636,0.30688 0.3348,1.05694 -0.0842,0.88226 -0.0482,0.94586 0.53495,0.94586 0.55077,0 0.62521,-0.0969 0.62521,-0.81387 0,-0.50217 -0.13788,-0.86675 -0.36,-0.95194 -0.22679,-0.087 -0.36,-0.4543 -0.36,-0.99266 0,-0.53836 -0.13321,-0.90568 -0.36,-0.99265 -0.23469,-0.09 -0.36,-0.46311 -0.36,-1.07188 0,-0.67014 -0.10165,-0.9338 -0.36,-0.9338 -0.26,0 -0.36,-0.26652 -0.36,-0.95947 0,-0.86352 -0.06,-0.95947 -0.6,-0.95947 -0.52673,0 -0.6,0.10344 -0.6,0.84707 z m 35.9049,-0.46562 c -0.20299,0.5287 0.0225,0.81205 0.95669,1.20216 1.3036,0.54438 1.77841,0.44805 1.77841,-0.36081 0,-0.56516 -0.14221,-0.74568 -0.75581,-0.95946 -1.06591,-0.37138 -1.80836,-0.32707 -1.97929,0.11811 z m 3.6951,1.90041 c 0,0.47465 0.22416,0.71162 1.05453,1.11483 1.20483,0.58502 1.82547,0.46725 1.82547,-0.3464 0,-0.62748 -1.24106,-1.37122 -2.28814,-1.37122 -0.47213,0 -0.59186,0.12194 -0.59186,0.60279 z m 4.08,1.96933 c 0,0.59838 0.15243,0.78186 0.94709,1.14 1.0778,0.48575 1.69291,0.36187 1.69291,-0.34093 0,-0.5667 -0.79468,-1.14336 -1.87254,-1.35881 -0.72561,-0.14504 -0.76746,-0.11452 -0.76746,0.55974 z m -32.91514,1.42408 c -0.4675,0.77044 -1.19877,2.02146 -1.62505,2.78004 l -0.77504,1.37923 1.51762,0.039 c 0.83468,0.0215 2.2496,0.0603 3.14425,0.0863 0.89466,0.026 1.68399,-0.0455 1.75408,-0.15882 0.0701,-0.11335 -0.46414,-1.20459 -1.18718,-2.42499 -2.05085,-3.46153 -1.83793,-3.33352 -2.82868,-1.70077 z m 2.16485,1.7105 c 0.54466,0.90094 0.99029,1.71254 0.99029,1.80355 0,0.091 -1.02691,0.16549 -2.28203,0.16549 -2.09907,0 -2.264,-0.0337 -2.05707,-0.41977 0.99456,-1.85573 2.00934,-3.40303 2.1677,-3.30521 0.10495,0.0648 0.63645,0.855 1.18111,1.75594 z m 35.14573,-1.55983 c -0.41526,0.66484 -0.2915,1.13025 0.39491,1.48501 1.08435,0.56043 1.92965,0.48281 1.92965,-0.17718 0,-0.8 -1.95481,-1.8998 -2.32456,-1.30783 z m 3.68456,1.76984 c -0.4259,0.42566 -0.12537,1.28487 0.57624,1.64749 1.68704,0.87191 2.68178,-0.34176 1.06265,-1.29653 -0.89461,-0.52755 -1.36205,-0.62764 -1.63889,-0.35096 z m -48.83521,1.09743 c 0.0514,0.53102 0.21647,0.80437 0.5207,0.86203 0.63551,0.12043 0.96045,-0.3053 0.78037,-1.0224 -0.11571,-0.46075 -0.30982,-0.61723 -0.76564,-0.61723 -0.54407,0 -0.60243,0.0848 -0.53543,0.7776 z m 52.67521,0.82151 c -0.088,0.0879 -0.16,0.409 -0.16,0.71344 0,0.6582 1.04817,1.28545 2.14808,1.28545 0.60507,0 0.73192,-0.0962 0.73192,-0.55517 0,-0.79387 -2.20121,-1.96222 -2.72,-1.44372 z m -51.95764,1.20168 c 0.0621,0.54182 0.21317,0.69279 0.75528,0.75487 0.61643,0.0706 0.67063,0.0164 0.6,-0.59966 -0.0621,-0.54182 -0.21317,-0.69279 -0.75528,-0.75487 -0.61643,-0.0706 -0.67063,-0.0164 -0.6,0.59966 z m 56.072,0.92278 c -0.24338,0.24325 0.1091,1.33057 0.49501,1.52698 0.21485,0.10934 0.74163,0.26528 1.17063,0.34653 0.72893,0.13805 0.78,0.10391 0.78,-0.52145 0,-0.52983 -0.17661,-0.75336 -0.84814,-1.07341 -0.86707,-0.41324 -1.37431,-0.50172 -1.5975,-0.27865 z m -48.77467,0.89538 c -0.25317,0.42793 -0.63609,1.10187 -0.85092,1.49765 -0.21484,0.39578 -0.68659,1.18236 -1.04834,1.74795 -0.36175,0.5656 -0.59346,1.13228 -0.51491,1.2593 0.18293,0.29583 6.35448,0.30642 6.35448,0.0109 0,-0.49817 -3.00615,-5.29824 -3.31634,-5.29537 -0.09,7.2e-4 -0.3708,0.35164 -0.62397,0.77957 z m 2.81004,3.59648 c 0.14097,0.38126 -0.0546,0.41977 -2.13143,0.41977 -1.25764,0 -2.2419,-0.081 -2.18723,-0.1799 0.0547,-0.0989 0.56172,-0.96644 1.12677,-1.92777 l 1.02737,-1.74787 1.00466,1.508 c 0.55256,0.8294 1.0745,1.6969 1.15986,1.92777 z m -9.38494,-3.35813 c 0.0664,0.6887 0.15875,0.77956 0.79192,0.77956 0.49907,0 0.74195,-0.13097 0.79982,-0.43129 0.11619,-0.603 -0.3869,-1.12784 -1.08112,-1.12784 -0.51635,0 -0.5769,0.0924 -0.51062,0.77957 z m 59.39521,1.05941 c -0.31911,0.31893 -0.14931,1.02826 0.30422,1.27085 0.25532,0.13657 0.84932,0.2483 1.32,0.2483 0.69207,0 0.85578,-0.0906 0.85578,-0.47357 0,-0.74135 -1.95831,-1.56699 -2.48,-1.04558 z m -58.56,0.23987 c -0.088,0.088 -0.16,0.39855 -0.16,0.69022 0,1.01057 1.26062,1.36751 1.39842,0.39596 0.1222,-0.8615 -0.72221,-1.60211 -1.23842,-1.08618 z m 62.07427,1.67169 c -0.22799,0.59382 0.22982,1.13235 1.25395,1.47504 1.09279,0.36566 1.55178,0.24266 1.55178,-0.41584 0,-0.32049 -0.31899,-0.64504 -0.95044,-0.967 -1.1515,-0.58712 -1.65564,-0.61218 -1.85529,-0.0922 z m -61.51427,0.86508 c 0,0.80837 0.5588,1.4942 1.06062,1.30174 0.29529,-0.11326 0.38896,-0.37588 0.33471,-0.93848 -0.0628,-0.65134 -0.18505,-0.79383 -0.73533,-0.85711 -0.55607,-0.064 -0.66,0.0138 -0.66,0.49385 z m 65.56406,1.5605 c 0.0572,0.49652 0.30489,0.76657 1.00378,1.09438 1.08792,0.5103 1.59275,0.39388 1.59064,-0.36681 -0.002,-0.63038 -1.13289,-1.38676 -2.07387,-1.38676 -0.50904,0 -0.58536,0.0966 -0.52055,0.65919 z m -64.51057,0.1629 c -0.26633,0.69365 0.015,1.45501 0.56651,1.5333 0.4841,0.0687 0.54,-0.0244 0.54,-0.8995 0,-0.82127 -0.0774,-0.97615 -0.48753,-0.97615 -0.26815,0 -0.54669,0.15406 -0.61898,0.34235 z m 68.78651,1.99791 c 0,0.56114 0.1447,0.70633 0.95622,0.95947 1.39861,0.43626 1.68378,0.38576 1.68378,-0.29818 0,-0.45876 -0.20068,-0.68025 -0.86931,-0.95947 -1.32915,-0.55504 -1.77069,-0.48069 -1.77069,0.29818 z m -67.87661,0.57925 c 0.0588,0.61299 0.18809,0.79842 0.55661,0.79842 0.37333,0 0.48,-0.15991 0.48,-0.7196 0,-0.57004 -0.11568,-0.73598 -0.55661,-0.79842 -0.4985,-0.0706 -0.54862,0.005 -0.48,0.7196 z m 71.71661,1.264 c 0,0.7187 0.1515,0.81786 1.5401,1.00809 1.04668,0.14338 1.0999,0.12241 1.0999,-0.43341 0,-0.44379 -0.19144,-0.65327 -0.79704,-0.87214 -1.29485,-0.46796 -1.84296,-0.37949 -1.84296,0.29746 z m -71.18137,0.22319 c -0.26681,0.6949 0.005,1.23017 0.62466,1.23017 0.50301,0 0.59671,-0.113 0.59671,-0.7196 0,-0.56406 -0.11695,-0.7362 -0.54107,-0.7964 -0.31733,-0.045 -0.59865,0.0732 -0.6803,0.28583 z m 74.94137,1.03028 c -0.088,0.0879 -0.16,0.39099 -0.16,0.67343 0,0.365 0.26629,0.63095 0.92064,0.91949 1.32219,0.58303 1.95936,0.53558 1.95936,-0.1459 0,-0.41695 -0.26561,-0.68084 -1.08642,-1.0794 -1.16718,-0.56675 -1.38524,-0.61582 -1.63358,-0.36762 z m -74.1517,0.95117 c -0.32921,0.32902 -0.16262,1.30537 0.2517,1.47521 0.26838,0.11002 0.42,0.43194 0.42,0.89177 0,0.60671 0.10354,0.73151 0.66,0.7955 0.56485,0.065 0.66,-0.0109 0.66,-0.5261 0,-0.3311 -0.20657,-0.7466 -0.45903,-0.92333 -0.25247,-0.17674 -0.49547,-0.64069 -0.54,-1.03099 -0.0772,-0.67643 -0.62304,-1.05149 -0.99267,-0.68206 z m 78.0726,1.70735 c 7.2e-4,0.55572 0.17089,0.7295 1.08,1.10316 l 1.0791,0.44353 0,2.13504 0,2.13504 2.64,0 2.64,0 0,-2.75847 0,-2.75847 -2.28956,0 c -1.81594,0 -2.4842,-0.0992 -3.23044,-0.47973 -1.35496,-0.69087 -1.92022,-0.63788 -1.9191,0.1799 z m -76.51611,2.75847 c 0.0576,0.59749 0.20133,0.79746 0.61521,0.85621 0.47347,0.0672 0.54,-0.0288 0.54,-0.77956 0,-0.75903 -0.0698,-0.85622 -0.61521,-0.85622 -0.5495,0 -0.60717,0.0832 -0.54,0.77957 z m 84.43521,1.14248 c 0,0.5689 1.88173,1.59413 2.49453,1.35911 0.70611,-0.27081 0.45255,-1.11883 -0.44682,-1.4944 -1.22586,-0.51191 -2.04771,-0.45761 -2.04771,0.13529 z m -83.62927,0.44282 c -0.2197,0.69182 0.10292,1.23313 0.73495,1.23313 0.58822,0 0.74506,-0.47553 0.42864,-1.29965 -0.20074,-0.52283 -0.99077,-0.47767 -1.16359,0.0665 z m 87.88025,1.23114 c -0.1575,0.60194 1.0541,1.68106 1.88744,1.68106 0.92127,0 0.79423,-1.07681 -0.19842,-1.6817 -0.99222,-0.60463 -1.5307,-0.60442 -1.68902,7.2e-4 z m -87.24749,1.24377 c 0.0647,0.67366 0.18126,0.80908 0.75302,0.87458 0.63426,0.0727 0.67174,0.0277 0.6,-0.7196 -0.0647,-0.67367 -0.18126,-0.80909 -0.75302,-0.87458 -0.63426,-0.0727 -0.67174,-0.0277 -0.6,0.7196 z m 91.07651,0.35733 c -0.65554,0.65518 0.72709,1.99618 2.06,1.99799 0.52902,7.2e-4 0.66,-0.10862 0.66,-0.55097 0,-0.41695 -0.26561,-0.68084 -1.08642,-1.0794 -1.16718,-0.56674 -1.38524,-0.61582 -1.63358,-0.36762 z m -90.4,1.57518 c 0,0.68185 0.41298,1.14331 1.02321,1.14331 0.35996,0 0.43253,-0.15208 0.372,-0.77957 -0.0627,-0.64957 -0.18526,-0.79222 -0.73521,-0.85546 -0.55546,-0.0639 -0.66,0.014 -0.66,0.49172 z m 94.32,0.97166 c 0,0.60686 1.05732,1.37098 1.89703,1.37098 0.81668,0 0.6714,-1.09996 -0.20511,-1.55297 -1.05647,-0.54602 -1.69192,-0.47767 -1.69192,0.18199 z m -93.6,1.10175 c 0,0.37962 0.162,0.8246 0.36,0.98883 0.198,0.16424 0.36,0.66319 0.36,1.10877 0,0.74028 0.0621,0.81017 0.72,0.81017 0.54977,0 0.72,-0.10879 0.72,-0.46012 0,-0.71028 -0.25795,-1.21895 -0.61814,-1.21895 -0.1921,0 -0.26977,-0.14852 -0.18844,-0.36034 0.0761,-0.19818 0.0706,-0.62994 -0.0121,-0.95946 -0.10988,-0.43753 -0.31107,-0.59913 -0.74589,-0.59913 -0.49596,0 -0.59543,0.11531 -0.59543,0.69023 z m 97.6,0.42915 c -0.61152,0.61118 0.47831,1.59063 2,1.79742 0.49434,0.0672 0.61284,-0.0291 0.67293,-0.54689 0.0623,-0.53705 -0.0692,-0.68527 -0.90486,-1.01943 -1.05534,-0.42203 -1.5167,-0.48233 -1.76807,-0.2311 z m 3.92,2.47561 c 0,0.55201 1.73224,1.75271 2.3577,1.63424 0.22549,-0.0427 0.42974,-0.33885 0.46473,-0.67382 0.0495,-0.47422 -0.11354,-0.68428 -0.78987,-1.01738 -1.17603,-0.57921 -2.03256,-0.55521 -2.03256,0.057 z m -99.9117,0.39449 c -0.34479,0.3446 -0.16896,1.54264 0.2517,1.71508 0.28719,0.11773 0.42,0.43765 0.42,1.0117 0,0.73755 0.0802,0.84876 0.66,0.91544 0.59063,0.0679 0.66,2e-5 0.66,-0.64603 0,-0.44011 -0.17997,-0.84792 -0.46101,-1.04466 -0.26473,-0.18532 -0.49465,-0.67539 -0.54,-1.15101 -0.0753,-0.7894 -0.58761,-1.20338 -0.99069,-0.80052 z m 103.7517,1.61096 c 0,0.4238 0.23445,0.6689 0.94709,0.99007 1.07749,0.48561 1.69291,0.3619 1.69291,-0.34029 0,-0.55481 -1.10049,-1.21302 -2.02808,-1.21302 -0.48216,0 -0.61192,0.11943 -0.61192,0.56324 z m 4.01906,1.65552 c -0.29189,0.86704 0.70062,1.61911 2.13675,1.61911 0.42889,0 0.56419,-0.13244 0.56419,-0.55229 0,-0.44163 -0.22839,-0.63409 -1.14,-0.96065 -1.35966,-0.48706 -1.43108,-0.49191 -1.56094,-0.10617 z m -106.21355,1.79901 c 0.0599,0.72311 0.18059,0.91455 0.61556,0.97629 0.33185,0.0471 0.59927,-0.0748 0.69155,-0.31513 0.23111,-0.60193 -0.31069,-1.56067 -0.88196,-1.56067 -0.4306,0 -0.48934,0.12429 -0.42515,0.89951 z m 110.35449,0.6152 c 0,0.61977 1.24824,1.3637 2.28814,1.3637 0.47047,0 0.59186,-0.12234 0.59186,-0.59645 0,-0.45876 -0.20068,-0.68025 -0.86931,-0.95947 -1.31239,-0.54805 -2.01069,-0.48129 -2.01069,0.19222 z m -109.63764,1.28609 c 0.0621,0.54182 0.21317,0.69279 0.75528,0.75487 0.61643,0.0706 0.67063,0.0164 0.6,-0.59966 -0.0621,-0.54182 -0.21317,-0.69279 -0.75528,-0.75487 -0.61643,-0.0706 -0.67063,-0.0164 -0.6,0.59966 z m 113.47764,0.56086 c 0,0.55788 1.28148,1.43342 2.1,1.43478 0.4316,7.2e-4 0.54,-0.13388 0.54,-0.67051 0,-0.54271 -0.1528,-0.72664 -0.79704,-0.95947 -1.21498,-0.4391 -1.84296,-0.37258 -1.84296,0.1952 z m -112.75651,1.47812 c 0.0647,0.67367 0.18126,0.80909 0.75302,0.87458 0.63426,0.0727 0.67174,0.0277 0.6,-0.7196 -0.0647,-0.67366 -0.18126,-0.80909 -0.75302,-0.87458 -0.63426,-0.0727 -0.67174,-0.0277 -0.6,0.7196 z m 116.77484,0.0992 c -0.63656,0.63621 0.71803,1.77734 2.10981,1.77734 0.88813,0 0.83603,-1.1182 -0.0681,-1.46259 -1.00691,-0.38351 -1.84378,-0.51253 -2.04167,-0.31475 z m -115.93833,1.21765 c -0.28806,0.28791 -0.16779,1.21409 0.19694,1.51662 0.51196,0.42465 1.08306,0.1182 1.08306,-0.58116 0,-0.70011 -0.87537,-1.33986 -1.28,-0.93546 z m 120.08,1.1398 c 0,0.64925 1.25304,1.57869 2.12833,1.57869 0.40801,0 0.51167,-0.14513 0.51167,-0.71638 0,-0.59659 -0.14536,-0.77708 -0.86931,-1.0794 -1.2807,-0.53481 -1.77069,-0.47474 -1.77069,0.21709 z m -119.33556,1.02527 c -0.0555,0.1065 -0.0927,0.46347 -0.0827,0.79329 0.0144,0.47406 0.15992,0.6159 0.69472,0.67716 0.63426,0.0726 0.67174,0.0277 0.6,-0.7196 -0.0579,-0.60365 -0.20206,-0.81498 -0.59386,-0.87078 -0.28455,-0.0405 -0.56274,0.0134 -0.61821,0.11993 z m 123.57556,0.71333 c -0.63903,0.63868 0.55079,1.75903 1.86808,1.75903 0.49598,0 0.61192,-0.11594 0.61192,-0.61191 0,-0.47152 -0.19095,-0.69165 -0.83229,-0.95947 -0.90806,-0.3792 -1.4,-0.43522 -1.64771,-0.18765 z m -123.04,1.59325 c 0,0.3046 0.15857,0.76334 0.35237,1.01943 0.1938,0.25609 0.3558,0.74923 0.36,1.09588 0.004,0.34664 0.16963,0.76463 0.36763,0.92887 0.198,0.16423 0.36,0.60193 0.36,0.97267 0,0.45752 0.15027,0.72173 0.46775,0.82244 0.2834,0.0899 0.41509,0.28556 0.33412,0.49644 -0.0735,0.19143 -0.0642,0.62467 0.0207,0.96276 0.11644,0.46365 0.28498,0.59614 0.68589,0.53916 0.68636,-0.0975 0.8258,-0.98076 0.24627,-1.55996 -0.26843,-0.26828 -0.40504,-0.6937 -0.35709,-1.11198 0.0589,-0.51373 -0.0386,-0.70787 -0.40339,-0.80321 -0.28987,-0.0758 -0.42968,-0.25955 -0.35179,-0.46243 0.20381,-0.53081 -0.13606,-1.53496 -0.51953,-1.53496 -0.21086,0 -0.2934,-0.14193 -0.20954,-0.36034 0.0761,-0.19818 0.0707,-0.62994 -0.0121,-0.95946 -0.20839,-0.82979 -1.34132,-0.86806 -1.34132,-0.0453 z m 126.64,0.0858 c -0.65873,0.65836 0.76193,2.09031 1.9395,1.9549 0.4736,-0.0544 0.68225,-0.22903 0.73736,-0.61694 0.063,-0.4433 -0.12482,-0.62741 -1.03989,-1.01944 -1.22009,-0.5227 -1.39803,-0.55732 -1.63697,-0.31852 z m 3.92152,2.41866 c 0.002,0.74116 1.04222,1.49916 2.05793,1.49916 0.47894,0 0.58055,-0.12024 0.58055,-0.68701 0,-0.58811 -0.148,-0.7435 -1.02802,-1.0794 -1.39914,-0.53403 -1.61222,-0.49868 -1.61046,0.26725 z m 4.07848,2.22229 c 0,0.59308 1.3004,1.43353 2.22,1.43478 0.53576,7.2e-4 0.66,-0.10679 0.66,-0.57119 0,-0.73463 -0.92345,-1.34685 -2.03156,-1.34685 -0.6905,0 -0.84844,0.09 -0.84844,0.48326 z m 4.08,2.04758 c 0,0.47577 0.19212,0.69213 0.86355,0.97252 1.1254,0.46996 1.5972,0.35744 1.69926,-0.40525 0.0949,-0.70906 -0.64431,-1.17918 -1.8541,-1.17918 -0.59974,0 -0.70871,0.0941 -0.70871,0.61191 z m -135.55449,1.24706 c 0.0599,0.72312 0.18059,0.91456 0.61556,0.97629 0.33185,0.0471 0.59927,-0.0748 0.69155,-0.31513 0.23111,-0.60193 -0.31069,-1.56066 -0.88196,-1.56066 -0.4306,0 -0.48934,0.12429 -0.42515,0.8995 z m 139.27755,0.29488 c -0.40082,0.64818 1.18756,1.8354 2.19796,1.64285 0.76451,-0.1457 0.68088,-1.08284 -0.13422,-1.50411 -0.81621,-0.42184 -1.84587,-0.49107 -2.06374,-0.13874 z m -138.84306,1.42454 c 0,0.8241 0.28042,1.21895 0.86568,1.21895 0.49637,0 0.57432,-0.11395 0.57432,-0.83954 0,-0.7729 -0.0571,-0.83953 -0.72,-0.83953 -0.54977,0 -0.72,0.10879 -0.72,0.46012 z m 0.96,2.28643 c 0,0.50699 0.1478,0.91028 0.3815,1.04099 0.20983,0.11737 0.37183,0.28464 0.36,0.37172 -0.13568,0.99904 0.0134,1.35768 0.56434,1.35768 0.3222,0 0.64698,-0.0989 0.72171,-0.21974 0.20653,-0.33399 -0.29313,-1.45933 -0.64795,-1.45933 -0.21959,0 -0.28511,-0.2848 -0.22073,-0.95947 0.0856,-0.89725 0.051,-0.95946 -0.53366,-0.95946 -0.55281,0 -0.62521,0.0958 -0.62521,0.82761 z m 1.48479,4.02969 c 0.0574,0.5946 0.1891,0.77956 0.55521,0.77956 0.36611,0 0.49784,-0.18496 0.55521,-0.77956 0.0676,-0.70074 0.0114,-0.77957 -0.55521,-0.77957 -0.56666,0 -0.62281,0.0788 -0.55521,0.77957 z m 0.78678,1.39286 c -0.28865,0.46679 0.1141,1.42557 0.59884,1.42557 0.60044,0 0.81031,-0.3655 0.62761,-1.09303 -0.15211,-0.60572 -0.92751,-0.81596 -1.22645,-0.33254 z m 0.65249,2.56494 c 0.0596,0.5181 0.21755,0.67591 0.73594,0.73553 0.59302,0.0682 0.66,0.001 0.66,-0.65964 0,-0.66088 -0.0747,-0.73553 -0.73594,-0.73553 -0.66126,0 -0.72824,0.0669 -0.66,0.65964 z m 0.76252,1.37977 c -0.0761,0.19818 -0.0706,0.62994 0.0121,0.95946 0.10987,0.43753 0.31106,0.59913 0.74588,0.59913 0.49214,0 0.59543,-0.11651 0.59543,-0.67162 0,-1.06259 -1.02746,-1.73594 -1.35341,-0.88697 z m 0.63342,2.50009 c 0,0.45175 0.16917,0.8391 0.44041,1.00839 0.29168,0.18206 0.40372,0.46673 0.33176,0.84295 -0.12975,0.67832 0.3127,1.2849 0.93722,1.2849 0.31659,0 0.45061,-0.17252 0.45061,-0.58005 0,-0.78566 -0.23378,-1.33892 -0.56568,-1.33873 -0.15703,9e-5 -0.27432,-0.3845 -0.27432,-0.8995 0,-0.80313 -0.0708,-0.9078 -0.66,-0.97556 -0.59267,-0.0681 -0.66,-9.5e-4 -0.66,0.6576 z m 1.68,4.19895 c 0,0.75903 0.0698,0.85622 0.61521,0.85622 0.5495,0 0.60717,-0.0833 0.54,-0.77957 -0.0576,-0.59749 -0.20133,-0.79746 -0.61521,-0.85621 -0.47347,-0.0672 -0.54,0.0288 -0.54,0.77956 z m 0.76551,1.99559 c 0.0646,0.7797 0.1544,0.8995 0.67449,0.8995 0.44379,0 0.62042,-0.14395 0.67842,-0.5529 0.0964,-0.67984 -0.34086,-1.2461 -0.96229,-1.2461 -0.3907,0 -0.45319,0.1439 -0.39062,0.8995 z m 0.67449,1.98643 c 0,0.42506 0.14955,0.78448 0.36,0.86519 0.23469,0.09 0.36,0.4631 0.36,1.07188 0,0.66126 0.10287,0.9338 0.35247,0.9338 0.21493,0 0.29848,0.1406 0.21411,0.36034 -0.0761,0.19818 -0.0706,0.62994 0.0121,0.95946 0.10987,0.43753 0.31106,0.59913 0.74588,0.59913 0.5215,0 0.59543,-0.10517 0.59543,-0.84706 0,-0.53022 -0.13414,-0.89851 -0.35862,-0.9846 -0.19724,-0.0756 -0.29507,-0.2403 -0.21741,-0.36591 0.23917,-0.38677 -0.13223,-1.40043 -0.51311,-1.40043 -0.26466,0 -0.31991,-0.15965 -0.20863,-0.60278 0.17658,-0.70313 -0.2387,-1.31615 -0.89161,-1.31615 -0.34171,0 -0.45061,0.17571 -0.45061,0.72713 z m 2.44551,6.16704 c 0.0521,0.62724 0.20097,0.92146 0.49449,0.97706 0.34429,0.0652 0.42,-0.0966 0.42,-0.89751 0,-0.82668 -0.0761,-0.97705 -0.49449,-0.97705 -0.42448,0 -0.48394,0.12705 -0.42,0.8975 z m 0.71928,2.04086 c 0.0576,0.5975 0.20133,0.79747 0.61521,0.85622 0.47347,0.0672 0.54,-0.0288 0.54,-0.77957 0,-0.75903 -0.0698,-0.85621 -0.61521,-0.85621 -0.5495,0 -0.60717,0.0832 -0.54,0.77956 z m 0.55526,1.37915 c -0.0909,0.14697 -0.099,0.53093 -0.0181,0.85325 0.10783,0.42938 0.3104,0.58604 0.7578,0.58604 0.54435,0 0.60247,-0.0846 0.53543,-0.77957 -0.0566,-0.58616 -0.20356,-0.79785 -0.59256,-0.85325 -0.28455,-0.0405 -0.59171,0.0466 -0.68259,0.19353 z m 0.83995,2.63862 c 0,0.63965 0.08,0.7196 0.72,0.7196 0.46155,0 0.72,-0.12211 0.72,-0.34018 0,-0.70526 -0.31016,-1.09902 -0.86568,-1.09902 -0.47813,0 -0.57432,0.12052 -0.57432,0.7196 z m 0.48,1.64352 c 0,0.84509 0.27805,1.23488 0.88088,1.23488 0.52054,0 0.58073,-0.0912 0.51433,-0.77957 -0.0627,-0.64957 -0.18526,-0.79222 -0.73521,-0.85546 -0.52381,-0.0602 -0.66,0.0223 -0.66,0.40015 z m 0.96,2.2976 c 0,0.59303 0.10834,0.85621 0.35247,0.85621 0.21493,0 0.29848,0.14061 0.21411,0.36034 -0.20484,0.53353 0.11394,1.5586 0.48471,1.5586 0.21441,0 0.2837,0.20102 0.20719,0.60104 -0.13535,0.70761 0.29573,1.31789 0.93091,1.31789 0.56487,0 0.63128,-1.2306 0.0906,-1.67907 -0.198,-0.16423 -0.36,-0.61268 -0.36,-0.99656 0,-0.43922 -0.1557,-0.76179 -0.42,-0.87013 -0.28719,-0.11773 -0.42,-0.43765 -0.42,-1.01171 0,-0.688 -0.0975,-0.85336 -0.54,-0.91618 -0.47347,-0.0672 -0.54,0.0288 -0.54,0.77957 z m 2.24658,5.29429 c -0.24921,0.64907 0.12749,1.55859 0.64553,1.55859 0.62064,0 0.84385,-0.59036 0.50459,-1.33456 -0.29733,-0.6522 -0.93782,-0.77696 -1.15012,-0.22403 z m 0.72559,2.14425 c -0.26172,0.68166 0.0222,1.21222 0.68988,1.28924 0.52176,0.0602 0.65795,-0.0226 0.65795,-0.40015 0,-0.79625 -0.26754,-1.23488 -0.75321,-1.23488 -0.25402,0 -0.5216,0.1556 -0.59462,0.34579 z m 0.62783,2.39306 c 0,0.70525 0.31016,1.09902 0.86568,1.09902 0.47813,0 0.57432,-0.12052 0.57432,-0.7196 0,-0.63965 -0.08,-0.7196 -0.72,-0.7196 -0.46155,0 -0.72,0.12211 -0.72,0.34018 z m 0.96,2.28167 c 0,0.88745 0.0558,0.97615 0.61449,0.97615 0.56331,0 0.60828,-0.0749 0.54,-0.8995 -0.0598,-0.72254 -0.18073,-0.91458 -0.61449,-0.97615 -0.4841,-0.0687 -0.54,0.0244 -0.54,0.8995 z m 0.76479,1.99558 c 0.0627,0.64958 0.18526,0.79222 0.73521,0.85546 0.52381,0.0602 0.66,-0.0223 0.66,-0.40014 0,-0.84509 -0.27805,-1.23489 -0.88088,-1.23489 -0.52054,0 -0.58073,0.0912 -0.51433,0.77957 z m 0.67521,1.84183 c 0,0.38636 0.162,0.86438 0.36,1.06227 0.198,0.19789 0.36,0.7453 0.36,1.21647 0,0.58478 0.10943,0.85666 0.34479,0.85666 0.21357,0 0.37342,0.29669 0.42,0.77957 0.0574,0.5946 0.1891,0.77957 0.55521,0.77957 0.61339,0 0.78411,-1.10099 0.25303,-1.63178 -0.20517,-0.20505 -0.37303,-0.65377 -0.37303,-0.99715 0,-0.34338 -0.16138,-0.68622 -0.35862,-0.76187 -0.19724,-0.0756 -0.29724,-0.2368 -0.22222,-0.35812 0.075,-0.12132 0.0658,-0.54178 -0.0205,-0.93434 -0.1213,-0.55199 -0.2885,-0.71374 -0.73778,-0.71374 -0.48233,0 -0.58093,0.11922 -0.58093,0.70246 z m -14.16,2.00035 c -0.462,0.69024 -0.88398,1.36293 -0.93773,1.49485 -0.0538,0.13193 -0.35845,0.65469 -0.67711,1.16169 -0.93346,1.48519 -0.74664,1.59678 2.67314,1.59678 1.64636,0 3.04258,-0.0809 3.10271,-0.1799 0.14236,-0.23421 -2.91186,-5.34176 -3.18887,-5.33272 -0.0727,0.002 -0.51014,0.56905 -0.97214,1.2593 z m 1.55371,0.47694 c 0.26054,0.42793 0.77057,1.29076 1.13339,1.91741 l 0.65968,1.13937 -2.4162,0 -2.41619,0 0.66413,-1.13937 c 0.99222,-1.70222 1.64699,-2.69238 1.78148,-2.69401 0.066,-7.2e-4 0.33317,0.34867 0.59371,0.7766 z m 9.52773,2.57233 c -0.28679,0.38769 -0.52144,0.76916 -0.52144,0.8477 0,0.0785 -0.42279,0.76505 -0.93954,1.52556 -1.58646,2.33487 -1.61878,2.29795 2.07954,2.37579 1.94047,0.0408 3.18,-0.0238 3.18,-0.16575 0,-0.31077 -2.63076,-4.75204 -2.99265,-5.05222 -0.20003,-0.16592 -0.43926,-0.0267 -0.80591,0.46892 z m 1.98609,2.35696 1.06442,1.72549 -2.38597,0 c -1.31229,0 -2.38598,-0.0511 -2.38598,-0.11347 0,-0.3994 2.27832,-3.70209 2.4414,-3.5391 0.11094,0.11087 0.68069,0.97806 1.26613,1.92708 z m 3.01247,-1.89213 c 0,0.8241 0.28042,1.21895 0.86568,1.21895 0.49637,0 0.57432,-0.11395 0.57432,-0.83953 0,-0.7729 -0.0571,-0.83953 -0.72,-0.83953 -0.54977,0 -0.72,0.10878 -0.72,0.46011 z m 0.94,1.51879 c -0.18387,0.55131 -0.0555,1.30377 0.27955,1.63863 0.25685,0.25672 0.37322,0.62183 0.29431,0.92341 -0.15842,0.60549 0.30118,1.21586 0.91553,1.21586 0.35575,0 0.45061,-0.17833 0.45061,-0.84706 0,-0.53167 -0.13404,-0.89847 -0.36,-0.98513 -0.198,-0.0759 -0.36,-0.38755 -0.36,-0.69246 0,-0.86926 -0.25209,-1.31322 -0.74568,-1.31322 -0.24987,0 -0.46332,0.027 -0.47432,0.06 z m 1.26349,4.77981 c 0.0647,0.67367 0.18126,0.80909 0.75302,0.87458 0.63426,0.0726 0.67174,0.0277 0.6,-0.7196 -0.0647,-0.67367 -0.18126,-0.80909 -0.75302,-0.87458 -0.63426,-0.0727 -0.67174,-0.0277 -0.6,0.7196 z m 1.08481,1.30851 c -0.0926,0.0925 -0.1683,0.47403 -0.1683,0.84782 0,0.5695 0.0997,0.67963 0.61521,0.67963 0.54922,0 0.60714,-0.0834 0.54,-0.77761 -0.0717,-0.74156 -0.59637,-1.14017 -0.98691,-0.74984 z m 0.5517,2.7333 c 0,0.54721 0.12886,0.79167 0.46339,0.87911 0.27593,0.0721 0.4111,0.25731 0.33412,0.45781 -0.0711,0.18518 -0.0616,0.60631 0.0212,0.93583 0.10987,0.43753 0.31106,0.59913 0.74588,0.59913 0.49596,0 0.59543,-0.11531 0.59543,-0.69023 0,-0.65502 -0.50016,-1.36847 -0.77018,-1.0986 -0.0693,0.0693 -0.11337,-0.28247 -0.0979,-0.78165 0.0254,-0.81998 -0.0356,-0.91491 -0.63191,-0.98349 -0.59678,-0.0686 -0.66,-0.003 -0.66,0.68209 z m 1.68,3.9346 c 0,0.75903 0.0698,0.85621 0.61521,0.85621 0.5495,0 0.60717,-0.0833 0.54,-0.77956 -0.0576,-0.5975 -0.20133,-0.79747 -0.61521,-0.85622 -0.47347,-0.0672 -0.54,0.0288 -0.54,0.77957 z m 0.72,2.17548 c 0,0.73018 0.0763,0.83953 0.58584,0.83953 0.72573,0 0.9134,-0.28024 0.71549,-1.06837 -0.11085,-0.44139 -0.31249,-0.61069 -0.72735,-0.61069 -0.49598,0 -0.57398,0.11409 -0.57398,0.83953 z m 0.72,1.78284 c 0,0.504 0.14293,0.74877 0.50416,0.86336 0.67269,0.21338 1.03196,-0.19193 0.8417,-0.94957 -0.11441,-0.45558 -0.31095,-0.61723 -0.75043,-0.61723 -0.49855,0 -0.59543,0.11446 -0.59543,0.70344 z m 0.88,1.3754 c -0.088,0.088 -0.16,0.46575 -0.16,0.83954 0,0.59522 0.0894,0.67962 0.72,0.67962 0.5913,0 0.72,-0.0986 0.72,-0.55169 0,-0.84 -0.80144,-1.44576 -1.28,-0.96747 z m 0.60479,2.77846 c 0.0576,0.5975 0.20133,0.79747 0.61521,0.85622 0.47347,0.0672 0.54,-0.0288 0.54,-0.77957 0,-0.75903 -0.0698,-0.85622 -0.61521,-0.85622 -0.5495,0 -0.60717,0.0833 -0.54,0.77957 z m 0.79526,1.37915 c -0.0909,0.14697 -0.099,0.53093 -0.0181,0.85325 0.10782,0.42937 0.3104,0.58603 0.7578,0.58603 0.54434,0 0.60247,-0.0846 0.53543,-0.77956 -0.0566,-0.58616 -0.20356,-0.79785 -0.59256,-0.85325 -0.28455,-0.0405 -0.59172,0.0466 -0.6826,0.19353 z m 0.69344,2.02151 c -0.29494,0.76817 0.0128,1.45506 0.68651,1.53254 0.58416,0.0672 0.66,-0.003 0.66,-0.61166 0,-1.06216 -1.02351,-1.76214 -1.34651,-0.92088 z m 0.62651,2.50667 c 0,0.37963 0.162,0.8246 0.36,0.98884 0.198,0.16423 0.36,0.53461 0.36,0.82306 0,0.75472 0.57096,1.44422 1.04529,1.26231 0.58593,-0.22472 0.53204,-1.61466 -0.0687,-1.77166 -0.27593,-0.0721 -0.4111,-0.25732 -0.33412,-0.45782 0.0711,-0.18518 0.0616,-0.60631 -0.0212,-0.93583 -0.10988,-0.43753 -0.31107,-0.59913 -0.74589,-0.59913 -0.49596,0 -0.59543,0.11531 -0.59543,0.69023 z m -44.16,-170.27599 c 0,2.26739 0.0781,2.23252 -2.64774,1.1819 l -1.91226,-0.73703 0,-1.1819 0,-1.1819 2.28,0 2.28,0 0,1.91893 z m 80.35554,31.32214 1.36446,0.55302 0.0725,1.21289 0.0725,1.21289 -2.17254,0 -2.17254,0 0,-1.91294 0,-1.91293 0.73554,0.14702 c 0.40455,0.0809 1.34955,0.39589 2.1,0.70005 z m 76.52447,113.61732 c -0.0837,8.34436 -0.15401,18.54469 -0.15614,22.6674 l -0.004,7.49584 -32.52565,0 -32.52565,0 0.0516,-20.44864 c 0.0284,-11.24675 0.0926,-21.44708 0.14268,-22.6674 l 0.0911,-2.21877 32.5391,0 32.5391,0 -0.15226,15.17157 z M 523.14317,694.9446 c -2.02728,1.02525 -2.26362,4.61671 -0.39322,5.97524 1.02216,0.74241 2.8157,0.66617 3.63693,-0.1546 0.65537,-0.655 0.78888,-1.57004 0.22909,-1.57004 -0.198,0 -0.36,0.10794 -0.36,0.23987 0,0.89999 -1.83713,1.51729 -2.87053,0.96453 -0.9792,-0.52376 -1.25438,-2.7733 -0.4921,-4.02283 0.40942,-0.67113 0.6096,-0.77957 1.4391,-0.77957 0.96156,0 1.47218,0.32925 2.07867,1.34032 0.46939,0.78251 0.82815,0.11535 0.43535,-0.8096 -0.5312,-1.25084 -2.39326,-1.84583 -3.70329,-1.18332 z m 5.53655,0.14913 c -0.43342,0.43318 -0.50375,0.79093 -0.50375,2.56233 0,1.54005 0.0756,2.03387 0.3,1.95971 0.19471,-0.0643 0.3251,-0.72004 0.37151,-1.86824 0.0745,-1.84284 0.30365,-2.39019 1.00068,-2.39019 0.79503,0 1.1801,0.77406 1.2556,2.524 0.0559,1.29572 0.15351,1.67366 0.43221,1.67366 0.29074,0 0.37323,-0.4508 0.42875,-2.34317 l 0.0687,-2.34318 -0.66874,0.0116 c -0.36781,0.006 -1.00906,-0.0562 -1.425,-0.13919 -0.58129,-0.11594 -0.87279,-0.0344 -1.26,0.35264 z m 19.94139,-0.28477 c -0.67324,0.12849 -1.48301,1.38066 -1.48424,2.29511 -4.8e-4,0.36704 0.15347,1.0366 0.34215,1.48792 0.55377,1.32463 2.53466,1.56507 3.40976,0.41388 0.74171,-0.97571 -0.0789,-1.45059 -0.85385,-0.49411 -0.31489,0.38867 -0.57133,0.47743 -1.03982,0.35991 -1.24904,-0.31332 -1.38302,-2.63053 -0.18902,-3.26918 0.40981,-0.2192 0.596,-0.1609 1.10239,0.34522 0.52792,0.52762 1.30749,0.82593 1.30749,0.50031 0,-0.51739 -0.68082,-1.35359 -1.26889,-1.55848 -0.39751,-0.13849 -0.73362,-0.2371 -0.74692,-0.21914 -0.0133,0.018 -0.27388,0.0803 -0.57905,0.13856 z m 6.55486,0.0578 c -0.8232,0.33291 -1.3722,1.14987 -1.49179,2.21991 -0.0912,0.8158 -0.004,1.17006 0.42153,1.70878 0.73074,0.92558 1.38242,1.13381 2.33026,0.74457 l 0.78,-0.32031 0,1.06716 c 0,0.78868 0.094,1.06716 0.36,1.06716 0.30217,0 0.36,-0.51863 0.36,-3.22854 l 0,-3.22855 -0.66,0.0392 c -0.363,0.0216 -0.876,-0.0289 -1.14,-0.11215 -0.264,-0.0833 -0.696,-0.064 -0.96,0.0427 z m 1.56,0.96526 c 0.55932,0.35338 0.48327,2.35233 -0.10587,2.78288 -1.41979,1.0376 -2.61022,-0.57595 -1.77561,-2.40671 0.29397,-0.64483 1.17685,-0.82135 1.88148,-0.37617 z m -46.76327,-0.009 c -0.45058,0.80125 -0.66778,0.95672 -1.42419,1.01944 -0.72451,0.0601 -0.90741,0.1789 -0.97153,0.63119 -0.0558,0.39393 0.061,0.59378 0.39868,0.68204 0.47688,0.12464 0.47688,0.12617 -6e-5,0.93408 -0.26275,0.44508 -0.40878,0.92073 -0.32451,1.05699 0.0921,0.14896 1.34395,0.24776 3.13904,0.24776 3.24425,0 3.31308,-0.0344 2.64555,-1.3203 -0.20201,-0.38916 -0.28677,-0.98514 -0.2086,-1.46662 0.12145,-0.74801 0.083,-0.81108 -0.49483,-0.81108 -0.48932,0 -0.73378,-0.21011 -1.11628,-0.95946 -0.26937,-0.52771 -0.62967,-0.95947 -0.80068,-0.95947 -0.17102,0 -0.55018,0.42545 -0.84259,0.94543 z m 1.97088,1.68759 c 0.61181,1.0524 1.11239,2.02386 1.11239,2.15883 0,0.15227 -0.86515,0.23337 -2.28,0.21372 -1.254,-0.0174 -2.28,-0.1304 -2.28,-0.25106 0,-0.22087 2.14443,-4.0349 2.26861,-4.0349 0.0366,0 0.56718,0.86104 1.179,1.91343 z m 25.98388,-1.67354 0.11029,0.95947 -1.11089,0 c -1.38509,0 -1.36418,0.54226 0.0277,0.7196 0.88805,0.11314 0.94136,0.16634 0.94136,0.93948 0,0.45074 0.135,0.86451 0.3,0.91948 0.20735,0.0691 0.3,-0.20255 0.3,-0.87951 l 0,-0.97945 0.96,0 c 0.69333,0 0.96,-0.0999 0.96,-0.3598 0,-0.25986 -0.26667,-0.3598 -0.96,-0.3598 -0.96,0 -0.96,0 -0.96,-0.95947 0,-0.66707 -0.10343,-0.95947 -0.3394,-0.95947 -0.25435,0 -0.31176,0.24044 -0.22911,0.95947 z m 3.27787,-0.5397 c 0.0689,0.23087 0.52241,1.49917 1.00771,2.81843 0.4853,1.31927 0.94009,2.58757 1.01064,2.81844 0.0711,0.2325 0.3621,0.41976 0.65243,0.41976 0.54934,0 0.81978,-0.57079 2.21223,-4.66898 0.67792,-1.99524 0.66487,-1.80742 0.12562,-1.80742 -0.30862,0 -0.52986,0.29305 -0.73311,0.97105 l -0.29109,0.97105 -1.36689,-0.0716 c -1.36131,-0.0712 -1.36781,-0.0752 -1.58923,-0.97105 -0.16165,-0.65401 -0.34941,-0.8995 -0.68799,-0.8995 -0.33124,0 -0.42948,0.12118 -0.34032,0.41977 z m 3.39253,2.75847 c -0.0937,0.29683 -0.2965,0.90479 -0.45055,1.35102 l -0.2801,0.81133 -0.49796,-1.35103 -0.49796,-1.35102 0.94852,0 c 0.87414,0 0.93514,0.0423 0.77805,0.5397 z m 7.33811,-0.77957 c 0,2.23875 0.032,2.39867 0.48,2.39867 0.448,0 0.48,-0.15992 0.48,-2.39867 0,-2.23876 -0.032,-2.39867 -0.48,-2.39867 -0.448,0 -0.48,0.15991 -0.48,2.39867 z m -50.11594,0.1799 c 0.064,0.55615 0.1889,0.65963 0.79594,0.65963 0.60704,0 0.73191,-0.10348 0.79594,-0.65963 0.0705,-0.61248 0.0136,-0.65963 -0.79594,-0.65963 -0.80956,0 -0.86645,0.0471 -0.79594,0.65963 z m 1.96273,-0.29983 c -0.25192,0.65612 0.10887,1.11631 0.81184,1.03549 0.51985,-0.0598 0.67762,-0.21717 0.73731,-0.73566 0.0684,-0.59398 0.002,-0.65963 -0.66753,-0.65963 -0.43947,0 -0.79996,0.14712 -0.88162,0.3598 z m 1.92,0 c -0.25192,0.65612 0.10887,1.11631 0.81184,1.03549 0.51985,-0.0598 0.67762,-0.21717 0.73731,-0.73566 0.0684,-0.59398 0.002,-0.65963 -0.66753,-0.65963 -0.43947,0 -0.79996,0.14712 -0.88162,0.3598 z m 7.92,0 c -0.24535,0.639 0.10785,1.0794 0.86568,1.0794 0.64837,0 0.72753,-0.0783 0.72753,-0.7196 0,-0.6413 -0.0792,-0.7196 -0.72753,-0.7196 -0.4253,0 -0.78492,0.14947 -0.86568,0.3598 z m 1.92,0 c -0.24535,0.639 0.10785,1.0794 0.86568,1.0794 0.64837,0 0.72753,-0.0783 0.72753,-0.7196 0,-0.6413 -0.0792,-0.7196 -0.72753,-0.7196 -0.4253,0 -0.78492,0.14947 -0.86568,0.3598 z m 2.07321,0.3598 c 0,0.70165 0.0503,0.74515 0.78,0.67483 0.65195,-0.0628 0.78,-0.17362 0.78,-0.67483 0,-0.50122 -0.12805,-0.61201 -0.78,-0.67483 -0.72973,-0.0703 -0.78,-0.0268 -0.78,0.67483 z m 34.485,3.03331 c -0.33972,0.33954 -0.14749,0.80455 0.3326,0.80455 0.33551,0 0.47232,-0.13026 0.42,-0.39989 -0.0857,-0.44147 -0.49536,-0.66175 -0.7526,-0.40466 z m -15.03715,9.18887 c -0.76984,1.08054 -1.2822,3.06288 -1.11214,4.30291 0.20143,1.46881 1.21892,3.62371 1.71101,3.62371 0.2163,0 0.35159,-0.081 0.30062,-0.1799 -0.75371,-1.4634 -1.0118,-2.36214 -1.09723,-3.82088 -0.086,-1.46753 -0.0107,-1.91886 0.50911,-3.05366 0.67297,-1.46914 0.48636,-1.99186 -0.31137,-0.87218 z m 21.84078,-0.58033 c -0.005,0.13649 0.21894,0.89207 0.49708,1.67906 0.61605,1.74309 0.52647,3.96217 -0.22964,5.68852 -0.69354,1.58353 -0.0867,1.53295 0.78368,-0.0653 0.85134,-1.56331 1.04699,-3.38816 0.52955,-4.93908 -0.37076,-1.11126 -1.56226,-2.89262 -1.58067,-2.36318 z m -50.88863,2.61707 0,1.06626 -1.14,0.0731 c -0.97284,0.0624 -1.15125,0.15225 -1.21669,0.61281 -0.071,0.49977 0.0148,0.5397 1.15972,0.5397 l 1.23642,0 -0.14646,1.0794 -0.14647,1.0794 2.76674,0 2.76674,0 0,-1.0794 0,-1.0794 1.44,0 c 1.38918,0 1.44,-0.0219 1.44,-0.62097 0,-0.60811 -0.0299,-0.61929 -1.44044,-0.5397 l -1.44043,0.0813 4.8e-4,-1.13937 4.8e-4,-1.13936 -2.64,0 -2.64,0 0,1.06625 z m 15.72,-0.89337 c -2.3024,0.55573 -3.1494,3.70087 -1.52656,5.66856 0.75477,0.91515 1.86714,1.29197 2.98565,1.0114 0.74506,-0.18689 1.78091,-1.16685 1.78091,-1.68481 0,-0.53242 -0.60419,-0.45675 -0.99073,0.12408 -0.21067,0.31656 -0.69096,0.54317 -1.33341,0.62912 -0.87831,0.11751 -1.08133,0.0511 -1.62,-0.5298 -1.14997,-1.24015 -0.65289,-3.9878 0.77827,-4.30197 0.99555,-0.21854 1.96503,0.2371 2.28021,1.07165 0.33262,0.88071 0.88566,0.94264 0.88566,0.0992 0,-0.67684 -1.17167,-2.02042 -1.76191,-2.02042 -0.19736,0 -0.50267,-0.0411 -0.67846,-0.0914 -0.1758,-0.0503 -0.53563,-0.0393 -0.79963,0.0244 z m 5.22718,0.0718 c -0.29305,0.11785 -0.5953,0.46309 -0.67167,0.76719 -0.21693,0.86385 -0.0234,4.14526 0.24449,4.14526 0.13214,0 0.27214,-0.80365 0.31151,-1.78828 0.0751,-1.87741 0.30122,-2.40939 1.02427,-2.40939 0.75197,0 1.18422,0.9388 1.18422,2.57198 0,1.17854 0.0782,1.50576 0.36,1.50576 0.296,0 0.36,-0.42643 0.36,-2.39867 0,-1.97224 -0.064,-2.39867 -0.36,-2.39867 -0.198,0 -0.36,0.10154 -0.36,0.22564 0,0.12411 -0.297,0.0708 -0.66,-0.11845 -0.75137,-0.39174 -0.71903,-0.38942 -1.43282,-0.10237 z m 16.33756,0.21125 c -0.99379,0.61371 -1.42712,1.86416 -1.04598,3.01838 0.52339,1.58499 2.2514,2.30751 3.30763,1.38299 0.42257,-0.36988 1.01361,-1.68453 1.01361,-2.25456 0,-0.11224 -0.80661,-0.20408 -1.79247,-0.20408 -1.60273,0 -1.77701,-0.0444 -1.64646,-0.41976 0.36402,-1.04659 1.46599,-1.31222 2.23893,-0.5397 0.264,0.26385 0.588,0.47973 0.72,0.47973 0.42107,0 0.25812,-0.61907 -0.3,-1.13974 -0.81224,-0.75773 -1.62187,-0.86262 -2.49526,-0.32326 z m 2.31526,2.85635 c 0,0.10672 -0.14033,0.38582 -0.31183,0.62025 -0.42131,0.57585 -1.5712,0.42034 -2.03022,-0.27457 -0.35533,-0.53794 -0.3521,-0.5397 0.99278,-0.5397 0.7421,0 1.34927,0.0873 1.34927,0.19402 z m 2.94478,-3.14067 c -0.59661,0.11188 -1.57104,1.20625 -1.36735,1.53565 0.21092,0.34107 0.82257,0.24295 0.82257,-0.13197 0,-0.43991 0.82191,-0.70248 1.59327,-0.50898 0.94601,0.2373 0.61078,0.90426 -0.6346,1.26257 -1.67791,0.48274 -2.15905,1.5086 -1.17081,2.4963 0.89992,0.89941 3.09214,0.25197 3.09214,-0.91323 0,-0.43887 -0.65196,-0.39288 -0.9078,0.064 -0.14419,0.2575 -0.47316,0.35309 -1.03193,0.29984 -1.22215,-0.11646 -1.00466,-0.64856 0.46887,-1.14713 1.81677,-0.61469 2.12459,-1.20791 1.17086,-2.25641 -0.58725,-0.64561 -1.2014,-0.85704 -2.03522,-0.70068 z m -11.42478,0.22816 c -0.088,0.088 -0.16,0.96656 -0.16,1.95246 0,1.42298 -0.0866,1.85981 -0.42,2.11882 -0.4,0.31074 -0.4,0.34182 0,0.65256 0.231,0.17945 0.42,0.48654 0.42,0.68242 0,0.46216 0.76498,1.1501 1.2789,1.1501 0.49863,0 0.53088,-0.68488 0.0411,-0.87272 -0.198,-0.0759 -0.36,-0.27689 -0.36,-0.44655 0,-0.16966 0.162,-0.3706 0.36,-0.44654 0.198,-0.0759 0.36,-0.30336 0.36,-0.5054 0,-0.20203 -0.162,-0.36732 -0.36,-0.36732 -0.29177,0 -0.36,-0.38646 -0.36,-2.03887 0,-1.53915 -0.0784,-2.03887 -0.32,-2.03887 -0.176,0 -0.392,0.072 -0.48,0.15991 z m 2.4,0 c -0.25834,0.2582 -0.1839,4.59435 0.0817,4.75841 0.13294,0.0821 0.30798,-0.0233 0.38899,-0.23432 0.13315,-0.34679 0.20128,-0.34825 0.70986,-0.0152 0.75671,0.49554 1.05946,0.46373 1.05946,-0.11132 0,-0.26385 -0.14526,-0.47973 -0.3228,-0.47973 -0.74889,0 -1.17053,-0.90305 -1.17053,-2.50698 0,-1.48227 -0.23359,-1.92364 -0.74667,-1.41085 z m 12.43237,0.13328 c -0.0703,0.1832 -0.0974,1.67635 -0.0601,3.31812 0.0559,2.46334 0.13068,2.98503 0.42776,2.98503 0.25195,0 0.38215,-0.30597 0.4338,-1.01944 0.0707,-0.97677 0.33047,-1.29014 0.6462,-0.77956 0.246,0.39782 1.4585,0.2698 1.8828,-0.19879 0.50724,-0.56018 0.59598,-4.7043 0.0972,-4.53926 -0.19936,0.066 -0.32338,0.75661 -0.36971,2.05885 l -0.0697,1.9596 -0.81613,0 c -0.44887,0 -0.9035,-0.13493 -1.0103,-0.29984 -0.10679,-0.16491 -0.24816,-1.04693 -0.31416,-1.96006 -0.11382,-1.57469 -0.53651,-2.33499 -0.84763,-1.52465 z m -52.25828,2.09159 c -0.16954,0.64799 -0.0173,0.73349 1.30591,0.73349 1.07733,0 1.16,-0.0427 1.16,-0.59967 0,-0.55778 -0.0819,-0.59966 -1.17201,-0.59966 -0.95852,0 -1.19421,0.0848 -1.2939,0.46584 z m 15.82591,-0.30593 c -0.088,0.0879 -0.16,0.3578 -0.16,0.59966 0,0.3597 0.19195,0.43976 1.05432,0.43976 1.03845,0 1.38997,-0.27018 1.17033,-0.8995 -0.10853,-0.31096 -1.78017,-0.42425 -2.06465,-0.13992 z m 19.4213,12.49305 c -0.79061,1.21457 -1.1817,2.82617 -1.00351,4.13522 0.15058,1.10617 1.23121,3.60049 1.55986,3.60049 0.45165,0 0.41751,-0.3671 -0.14916,-1.6042 -0.52175,-1.13901 -0.59228,-1.57103 -0.49628,-3.03998 0.0717,-1.09647 0.29819,-2.07549 0.62985,-2.72217 0.58552,-1.14164 0.61373,-1.26886 0.28135,-1.26886 -0.13013,0 -0.50008,0.40478 -0.82211,0.8995 z m 13.7787,-0.78764 c 0,0.0835 0.17521,0.49047 0.38936,0.90435 0.59074,1.14173 0.71511,4.36677 0.21981,5.70006 -0.64499,1.73626 -0.6816,1.91894 -0.38455,1.91894 0.15433,0 0.61122,-0.70613 1.01531,-1.56917 0.63335,-1.3527 0.72141,-1.77792 0.6383,-3.08235 -0.098,-1.53882 -0.97936,-3.72421 -1.583,-3.92531 -0.16238,-0.0541 -0.29523,-0.03 -0.29523,0.0535 z m -27.36,1.76397 c -1.59002,0.72011 -2.38155,2.26566 -2.054,4.01067 0.22463,1.19672 1.46857,2.48967 2.56237,2.66334 1.10956,0.17617 2.56739,-0.4867 2.88048,-1.30975 0.36204,-0.95171 -0.16079,-1.25903 -0.81592,-0.4796 -1.40881,1.67609 -3.48325,0.83147 -3.57288,-1.4547 -0.0588,-1.49916 0.42696,-2.38821 1.405,-2.57159 1.04269,-0.1955 1.93547,0.19649 2.23383,0.98079 0.26202,0.68879 0.96112,0.817 0.96112,0.17625 0,-1.37667 -2.24063,-2.63106 -3.6,-2.01541 z m 5.04812,0.44707 c -0.43214,0.54907 -0.49652,0.91096 -0.43742,2.45864 0.0543,1.42246 0.14713,1.8148 0.4293,1.8148 0.28,0 0.38667,-0.42643 0.48,-1.91894 l 0.12,-1.91893 0.77177,-0.0746 c 0.89181,-0.0861 0.9857,0.12738 1.08645,2.47089 0.0494,1.1483 0.14613,1.45291 0.48178,1.51675 0.37749,0.0718 0.42,-0.16465 0.42,-2.33637 0,-1.98787 -0.0638,-2.41625 -0.36,-2.41625 -0.198,0 -0.36,0.11406 -0.36,0.25347 0,0.14207 -0.23442,0.0894 -0.5334,-0.11994 -0.78733,-0.55116 -1.52687,-0.45585 -2.09848,0.27043 z m 11.02085,0.0158 c -1.032,0.92166 -1.19847,2.27119 -0.42166,3.4181 0.48948,0.7227 0.7189,0.84942 1.64847,0.91052 1.39374,0.0916 2.14352,-0.62132 2.3225,-2.20837 0.11267,-0.99908 0.0536,-1.15689 -0.7238,-1.93387 -1.03479,-1.03421 -1.8183,-1.08589 -2.82551,-0.18638 z m 2.18681,0.54814 c 0.35082,0.18765 0.46422,0.50574 0.46422,1.30214 0,1.18341 -0.45163,1.80769 -1.30776,1.80769 -0.67859,0 -1.04237,-0.41042 -1.24026,-1.39929 -0.28704,-1.4344 0.852,-2.36941 2.0838,-1.71054 z m 4.90422,-0.63972 c -0.65463,0.53262 -0.72,0.71626 -0.72,2.02256 0,1.96371 0.50376,2.53992 2.08762,2.38781 l 1.12834,-0.10835 0.072,0.98306 c 0.0396,0.54069 0.18002,0.9564 0.31202,0.92379 0.14082,-0.0348 0.2675,-1.38359 0.30655,-3.26407 l 0.0666,-3.20479 -0.66655,-0.0104 c -0.3666,-0.006 -0.93655,-0.079 -1.26655,-0.16291 -0.43531,-0.11069 -0.79763,0.008 -1.32,0.43325 z m 2.16917,0.79465 c 0.30154,0.30137 0.3731,0.67243 0.28328,1.46887 -0.12615,1.11855 -0.43577,1.47626 -1.28306,1.48236 -0.72118,0.005 -1.15848,-0.62724 -1.15848,-1.6754 0,-0.49437 0.14577,-1.07441 0.32393,-1.28896 0.41973,-0.50546 1.32191,-0.499 1.83433,0.0131 z m -4.73545,1.93547 c -0.0798,3.30953 -0.0362,3.72526 0.37585,3.58848 0.17851,-0.0593 0.29312,-1.20409 0.3372,-3.36828 0.0561,-2.7559 0.0105,-3.2785 -0.28628,-3.2785 -0.28843,0 -0.36655,0.55984 -0.42677,3.0583 z m -36.19372,-1.7462 0,1.07223 -3.06,0.0671 c -2.87761,0.0631 -3.06,0.0957 -3.06,0.54687 0,0.45102 0.18236,0.48375 3.04655,0.54677 l 3.04654,0.067 0.0735,1.01237 0.0734,1.01237 2.7,0.0678 2.7,0.0678 0,-1.08726 0,-1.08725 3.12,0 3.12,0 0,-0.59967 0,-0.59967 -3.12,0 -3.12,0 0,-1.0794 0,-1.0794 -2.76,0 -2.76,0 0,1.07224 z m 5.04,0.24703 0,0.83953 -2.28,0 -2.28,0 0,-0.83953 0,-0.83953 2.28,0 2.28,0 0,0.83953 z m 0,2.75847 0,0.7196 -2.28,0 -2.28,0 0,-0.7196 0,-0.7196 2.28,0 2.28,0 0,0.7196 z M 418.35765,548.11348 c -1.03306,0.50107 -1.48434,3.73011 -0.72611,5.19554 1.07491,2.07749 3.56517,0.9814 3.87762,-1.70674 0.30295,-2.60639 -1.30373,-4.38502 -3.15151,-3.4888 z m 1.81843,1.04523 c 0.4399,0.52976 0.5776,2.33529 0.25307,3.3181 -0.50043,1.51546 -2.01381,1.37274 -2.31241,-0.21807 -0.19818,-1.05579 -7.2e-4,-2.64267 0.38704,-3.10957 0.37755,-0.45466 1.29116,-0.44945 1.6723,0.01 z m 2.49434,-0.97954 c -0.20494,0.53376 0.0595,1.09934 0.51396,1.09934 0.27459,0 0.36191,-0.18203 0.30753,-0.64113 -0.087,-0.73427 -0.60464,-1.02302 -0.82149,-0.45821 z m 31.42065,0.0225 c -0.92193,0.38742 -1.35575,1.45306 -1.33846,3.28775 0.01,1.04457 0.14394,1.62098 0.48301,2.07621 1.35928,1.82497 3.51894,0.85079 3.66137,-1.65157 0.10101,-1.77465 -0.0165,-2.37717 -0.59818,-3.06812 -0.73485,-0.87283 -1.28312,-1.03283 -2.20774,-0.64427 z m 1.6366,1.13609 c 0.3728,0.69618 0.34796,3.44138 -0.0353,3.90293 -0.16235,0.19552 -0.60389,0.35547 -0.98121,0.35547 -0.54449,0 -0.72343,-0.1361 -0.86723,-0.65963 -0.272,-0.99026 -0.19681,-2.98681 0.13549,-3.598 0.38914,-0.71572 1.36518,-0.71615 1.74825,-7.2e-4 z m -30.9917,-0.69121 c 0,0.77196 0.74599,1.66041 2.0214,2.40744 1.05333,0.61695 1.33523,1.07843 1.14511,1.8746 -0.23952,1.00305 -1.974,0.76471 -2.38667,-0.32796 -0.1532,-0.40565 -0.38642,-0.65837 -0.52727,-0.57136 -0.72279,0.44646 0.2438,2.14199 1.34056,2.35153 0.9558,0.18261 1.97458,-0.26632 2.37925,-1.04844 0.58743,-1.13533 0.24073,-1.76953 -1.65806,-3.033 l -1.71432,-1.14073 1.79774,-0.11993 c 1.46415,-0.0977 1.81256,-0.19783 1.8776,-0.5397 0.0713,-0.3748 -0.15342,-0.41977 -2.09774,-0.41977 -2.12966,0 -2.1776,0.0125 -2.1776,0.56732 z m 33.36,0.0324 c 0,0.43975 0.128,0.59966 0.48,0.59966 0.352,0 0.48,-0.15991 0.48,-0.59966 0,-0.43976 -0.128,-0.59967 -0.48,-0.59967 -0.352,0 -0.48,0.15991 -0.48,0.59967 z m 4.8,0.10796 c 0,0.69306 -0.0284,0.70911 -1.37767,0.77957 -1.73234,0.0905 -1.8739,0.49746 -0.67964,1.95409 0.47152,0.57511 0.85731,1.12126 0.85731,1.21366 0,0.33065 1.32592,1.82144 1.62,1.82144 0.21647,10e-6 0.3,-0.56767 0.3,-2.03886 0,-1.87895 0.0376,-2.03886 0.48,-2.03886 0.2792,0 0.48,-0.15991 0.48,-0.38226 0,-0.21024 -0.216,-0.43871 -0.48,-0.50771 -0.34,-0.0889 -0.48,-0.32718 -0.48,-0.81708 0,-0.45486 -0.12324,-0.69162 -0.36,-0.69162 -0.23865,0 -0.36,0.23854 -0.36,0.70763 z m 0,2.89037 c 0,0.65963 -0.081,1.19739 -0.18,1.19502 -0.099,-0.002 -0.53183,-0.54207 -0.96185,-1.19933 l -0.78184,-1.19502 0.96184,0 0.96185,0 0,1.19933 z m 26.24682,-3.03065 c -0.56888,0.48905 -0.67389,0.78612 -0.76095,2.15264 -0.0556,0.8719 -0.0319,1.86065 0.0527,2.19721 0.40098,1.59675 2.29181,2.11196 3.39292,0.92451 0.52187,-0.56279 0.58854,-0.85021 0.58854,-2.53705 0,-1.78279 -0.0441,-1.94643 -0.70154,-2.60351 -0.85437,-0.8539 -1.68382,-0.89705 -2.57164,-0.1338 z m 2.10379,0.78895 c 0.21326,0.25692 0.32452,0.98614 0.31557,2.0683 -0.0112,1.34999 -0.10076,1.73501 -0.46587,2.00183 -0.57188,0.41794 -0.87159,0.41586 -1.45444,-0.0101 -0.38354,-0.28029 -0.46587,-0.6341 -0.46587,-2.002 0,-1.81934 0.31066,-2.45487 1.2,-2.45487 0.29767,0 0.68945,0.17858 0.87061,0.39684 z m 5.38112,-0.8166 c -0.7636,0.67007 -1.13101,2.41676 -0.80934,3.84762 0.40047,1.78134 1.55882,2.56874 2.93407,1.99444 0.78736,-0.3288 1.27472,-1.21051 0.82324,-1.48938 -0.12938,-0.0799 -0.4772,0.0819 -0.77294,0.35956 -0.71485,0.6712 -1.2083,0.63652 -1.80934,-0.12715 -0.62489,-0.79398 -0.66607,-1.41033 -0.0774,-1.15873 1.61444,0.69006 2.94,-0.0156 2.94,-1.56518 0,-1.25647 -0.18245,-1.63921 -0.97716,-2.04995 -0.94541,-0.48862 -1.53556,-0.43913 -2.25111,0.18877 z m 2.17678,1.02926 c 0.61336,0.93558 0.14052,1.78917 -0.9911,1.78917 -0.66499,0 -0.8971,-0.11889 -1.05361,-0.5397 -0.56398,-1.51636 1.17363,-2.57817 2.04471,-1.24947 z m 34.5278,-1.30299 c -1.34109,0.3675 -1.92408,2.28944 -0.94165,3.10432 0.27517,0.22825 0.26684,0.36433 -0.0521,0.85079 -0.66737,1.01797 0.26232,2.49519 1.57035,2.49519 1.44879,0 2.43277,-1.23499 1.8789,-2.3582 -0.27621,-0.56014 -0.25782,-0.72016 0.14712,-1.28048 0.44918,-0.62152 0.44034,-1.33892 -0.0252,-2.04885 -0.35648,-0.54357 -1.80883,-0.97339 -2.5774,-0.76277 z m 1.56759,1.12815 c 1.13246,0.9165 -0.31906,2.44147 -1.55407,1.63271 -0.70539,-0.46193 -0.77643,-1.00607 -0.21263,-1.62871 0.5034,-0.55594 1.08308,-0.55725 1.7667,-0.004 z m 0.004,3.17868 c 0.19821,0.37016 0.19036,0.58507 -0.0311,0.85178 -0.41378,0.4983 -1.74882,0.34068 -1.85495,-0.219 -0.19799,-1.04407 1.38197,-1.57415 1.88606,-0.63278 z m -41.24491,-3.79323 c 0.0422,0.29683 0.23869,0.5397 0.43669,0.5397 0.198,0 0.39451,-0.24287 0.43669,-0.5397 0.059,-0.41538 -0.0416,-0.5397 -0.43669,-0.5397 -0.39512,0 -0.49572,0.12432 -0.43669,0.5397 z m 31.52501,0.0299 c -1.5503,1.54943 -0.73133,5.90685 1.11019,5.90685 1.62444,0 2.48738,-1.45636 2.31056,-3.89947 -0.0877,-1.21136 -0.2128,-1.5427 -0.76039,-2.01345 -0.85273,-0.73309 -1.92324,-0.73065 -2.66036,0.006 z m 2.13807,0.68315 c 0.46719,0.66664 0.49371,3.24648 0.0395,3.84446 -0.48946,0.64442 -1.44503,0.53167 -1.84535,-0.21774 -0.46585,-0.87206 -0.36637,-3.12149 0.16394,-3.70715 0.5462,-0.60321 1.1847,-0.57193 1.64189,0.0804 z m 2.53361,-0.65304 c 0,0.43976 0.128,0.59967 0.48,0.59967 0.352,0 0.48,-0.15991 0.48,-0.59967 0,-0.43975 -0.128,-0.59966 -0.48,-0.59966 -0.352,0 -0.48,0.15991 -0.48,0.59966 z m 35.925,-0.44475 c -0.0908,0.0907 -0.165,1.11838 -0.165,2.28373 l 0,2.11882 -0.72,0 c -0.90603,0 -0.98238,0.64465 -0.1025,0.86536 0.34727,0.0871 0.71552,0.41256 0.84148,0.74367 0.12318,0.32382 0.35831,0.54402 0.5225,0.48932 0.21813,-0.0727 0.29852,-0.96075 0.29852,-3.29768 0,-2.9936 -0.15392,-3.72401 -0.675,-3.20322 z m -186.21599,9.01999 -0.069,2.21877 -0.71571,0 c -1.02683,0 -1.11586,0.72528 -0.11362,0.92561 0.47464,0.0949 0.80004,0.32871 0.87937,0.63193 0.0693,0.26473 0.27535,0.48132 0.45795,0.48132 0.26628,0 0.33201,-0.64105 0.33201,-3.2382 0,-2.68156 -0.0603,-3.2382 -0.35099,-3.2382 -0.27773,0 -0.3654,0.46318 -0.42,2.21877 z m -26.66901,25.04608 c -0.088,0.0879 -0.16,1.32926 -0.16,2.75847 0,2.43864 0.0295,2.59855 0.48,2.59855 0.40889,0 0.48,-0.15991 0.48,-1.0794 l 0,-1.0794 2.88,0 2.88,0 0,-0.59966 0,-0.59967 -2.88,0 -2.88,0 0,-1.0794 c 0,-1.01973 -0.32544,-1.39378 -0.8,-0.91949 z m -0.16,6.30972 c 0,0.41584 0.15505,0.4865 1.06752,0.4865 l 1.06751,0 -0.23692,0.67926 c -0.32069,0.91943 0.0784,1.90142 0.89954,2.21345 0.35544,0.13506 1.35526,0.21408 2.22182,0.1756 1.26103,-0.056 1.59117,-0.15178 1.65373,-0.47979 0.0678,-0.35558 -0.18593,-0.41906 -1.91752,-0.47973 l -1.99568,-0.0699 -0.0752,-0.77972 c -0.0631,-0.65435 0.0262,-0.81827 0.55563,-1.01943 0.34696,-0.13185 1.27973,-0.23972 2.07281,-0.23972 1.24401,0 1.43091,-0.0576 1.3614,-0.41976 -0.0713,-0.37153 -0.45946,-0.42744 -3.3776,-0.48651 -3.17426,-0.0643 -3.29702,-0.0486 -3.29702,0.41977 z m 19.2,4.18924 0,2.26353 -0.76152,0.0752 c -1.00018,0.0987 -1.13794,0.58854 -0.22207,0.78959 0.40906,0.0898 0.78555,0.35909 0.86888,0.62151 0.0809,0.25468 0.30178,0.46306 0.49088,0.46306 0.28146,0 0.34383,-0.58741 0.34383,-3.2382 0,-2.71848 -0.0578,-3.2382 -0.36,-3.2382 -0.29457,0 -0.36,0.41142 -0.36,2.26354 z m 3.20741,-1.90534 c -0.0831,0.21651 -0.0361,0.50867 0.10459,0.64924 0.36567,0.36547 1.0585,0.0315 0.96298,-0.46426 -0.10639,-0.55214 -0.87544,-0.6854 -1.06757,-0.18498 z m 4.23259,1.88775 0,2.28112 -0.76152,0.0752 c -1.01287,0.1 -1.13341,0.58953 -0.19582,0.79535 0.45778,0.10049 0.8502,0.38822 1.01124,0.74145 0.51286,1.12499 0.6661,0.54042 0.6661,-2.54104 0,-1.71504 0.006,-3.19922 0.0127,-3.29816 0.007,-0.0989 -0.15503,-0.2148 -0.36,-0.25746 -0.31621,-0.0658 -0.37267,0.26803 -0.37267,2.20357 z m -23.4,0.32524 c -1.10908,0.27004 -1.6636,1.37919 -1.38801,2.77627 0.14645,0.74239 1.1057,1.36881 2.09609,1.36881 0.59819,0 0.61192,-0.038 0.61192,-1.69575 0,-1.61702 0.0248,-1.69219 0.53517,-1.6191 0.32968,0.0472 0.62378,0.32951 0.76594,0.73519 0.18867,0.53838 0.13034,0.79431 -0.3197,1.40269 -0.39697,0.53663 -0.4776,0.81698 -0.28912,1.00535 0.35648,0.35629 1.37894,-0.61631 1.54153,-1.46636 0.17465,-0.91311 -0.41652,-2.15959 -1.15784,-2.44128 -0.64617,-0.24554 -1.55529,-0.27051 -2.39598,-0.0658 z m 0.6,1.98628 c 0,1.34131 -0.41262,1.5991 -1.06639,0.66623 -0.4808,-0.68606 -0.47141,-0.80835 0.10639,-1.38583 0.74353,-0.74312 0.96,-0.58086 0.96,0.7196 z m -1.7534,3.28942 c -0.0619,0.10376 -0.12156,0.4585 -0.13259,0.78831 -0.011,0.32982 -0.0502,0.81555 -0.087,1.0794 -0.0411,0.29459 0.0707,0.47974 0.28972,0.47974 0.1962,0 0.39568,-0.21588 0.4433,-0.47974 0.14432,-0.79963 0.47006,-0.95444 2.27124,-1.0794 1.32333,-0.0918 1.72875,-0.20431 1.72875,-0.47973 0,-0.28866 -0.43505,-0.37338 -2.20043,-0.42851 -1.21024,-0.0378 -2.25107,0.0162 -2.31297,0.11993 z m -0.0803,3.06834 c -0.0801,0.20856 -0.0881,0.43664 -0.0179,0.50684 0.0702,0.0702 0.035,0.45063 -0.0783,0.84539 -0.1193,0.41576 -0.11257,0.96325 0.016,1.30122 0.14042,0.36911 0.13233,0.81907 -0.022,1.2248 -0.13419,0.35273 -0.17735,0.94451 -0.0959,1.31507 0.18707,0.85125 1.31358,1.22722 3.35176,1.11864 1.25441,-0.0668 1.44,-0.13855 1.44,-0.55645 0,-0.4327 -0.2,-0.49149 -2.04,-0.59967 -1.83992,-0.10817 -2.04702,-0.16904 -2.11158,-0.62065 -0.11124,-0.77815 0.4252,-1.02951 2.3623,-1.10688 1.39869,-0.0559 1.78928,-0.15001 1.78928,-0.43127 0,-0.2853 -0.41232,-0.37426 -1.99133,-0.42965 -2.12491,-0.0745 -2.48061,-0.29337 -1.98408,-1.22064 0.22274,-0.41595 0.53713,-0.49883 2.11848,-0.55844 1.67358,-0.0631 1.85693,-0.11737 1.85693,-0.54973 0,-0.44026 -0.18302,-0.48542 -2.22406,-0.54876 -1.84854,-0.0574 -2.24863,-0.005 -2.36965,0.31018 z m 2.23091,7.51343 c -0.21846,0.24126 -0.39885,0.80795 -0.40088,1.2593 -0.005,1.037 -0.28895,1.49119 -0.86508,1.38198 -0.67864,-0.12863 -0.75708,-1.52445 -0.10526,-1.8731 0.54731,-0.29275 0.67274,-0.96697 0.17989,-0.96697 -0.80215,0 -1.24587,0.67228 -1.24587,1.88761 0,0.66367 0.12495,1.33155 0.27766,1.48418 0.15271,0.15263 1.06636,0.3232 2.03033,0.37906 1.00997,0.0585 1.8288,0.22467 1.93234,0.39211 0.13967,0.22586 0.24737,0.22291 0.48367,-0.0132 0.24346,-0.24332 0.24435,-0.39924 0.005,-0.78308 -0.21292,-0.34075 -0.22852,-0.61178 -0.054,-0.93772 0.91008,-1.69954 -0.99531,-3.58176 -2.23731,-2.21012 z m 1.60384,1.45313 c -0.0403,0.84141 -0.37808,1.21649 -1.10104,1.22281 -0.47787,0.004 -0.54663,-0.59169 -0.17961,-1.55648 0.17766,-0.46702 0.38119,-0.61192 0.78,-0.55531 0.44769,0.0635 0.53297,0.21497 0.50065,0.88898 z m -5.84104,3.86502 c 0,0.4771 0.10816,0.49108 3.3,0.42653 2.74366,-0.0555 3.3,-0.12739 3.3,-0.42653 0,-0.29915 -0.55634,-0.37105 -3.3,-0.42654 -3.19184,-0.0646 -3.3,-0.0506 -3.3,0.42654 z m 2.73485,4.42069 c -0.75798,0.32977 -1.04557,0.90838 -1.05157,2.11567 -0.004,0.7123 0.73391,1.6191 1.31672,1.6191 0.52986,0 0.43802,-0.66099 -0.13438,-0.96715 -0.34789,-0.18609 -0.47235,-0.4546 -0.42,-0.90617 0.10229,-0.88254 1.17109,-1.38494 2.33478,-1.09748 0.73632,0.18188 0.87021,0.32185 0.93362,0.97597 0.0555,0.57243 -0.0497,0.82979 -0.42,1.02787 -0.55327,0.29594 -0.67059,0.96696 -0.16907,0.96696 0.5213,0 1.59505,-1.13061 1.59505,-1.67952 0,-0.70349 -0.6362,-1.85677 -1.18671,-2.15123 -0.6319,-0.338 -1.90097,-0.29447 -2.79844,0.096 z m 0.4464,4.47774 c -1.07789,0.31776 -1.59594,1.18123 -1.43375,2.38977 0.16456,1.22617 0.48482,1.60098 1.63168,1.90963 2.57999,0.69433 4.44891,-2.369 2.36569,-3.87758 -0.77777,-0.56323 -1.61606,-0.70116 -2.56362,-0.42182 z m 2.04535,1.06964 c 0.68469,0.47931 0.72539,1.66582 0.0692,2.01682 -0.64445,0.34471 -1.9989,0.31053 -2.5105,-0.0634 -0.622,-0.45457 -0.42618,-1.63515 0.33472,-2.01795 0.80581,-0.40539 1.46418,-0.38524 2.1066,0.0645 z m 13.8934,2.90477 c -0.088,0.088 -0.16,1.11338 -0.16,2.27874 l 0,2.11882 -0.8576,0 c -0.6871,0 -0.84176,0.0835 -0.77795,0.41977 0.049,0.25829 0.34326,0.44997 0.76493,0.4983 0.43256,0.0496 0.72977,0.2486 0.80594,0.5397 0.0664,0.25364 0.27007,0.46116 0.45267,0.46116 0.23471,0 0.33488,-0.33391 0.34179,-1.13936 0.005,-0.62666 0.0185,-1.84098 0.029,-2.6985 0.0106,-0.85753 0.006,-1.802 -0.01,-2.09884 -0.0287,-0.53221 -0.27661,-0.69207 -0.58906,-0.37979 z m 3.365,-0.005 c -0.35305,0.35285 -0.16738,1.08005 0.255,0.99875 0.231,-0.0445 0.42,-0.28625 0.42,-0.5373 0,-0.47722 -0.39146,-0.74484 -0.675,-0.46145 z m 1.84766,0.1896 c -0.22946,0.59763 0.63968,2.03749 1.46661,2.42968 1.63562,0.77572 2.2893,2.19276 1.29788,2.81353 -0.61222,0.38333 -1.62968,0.002 -1.79951,-0.67411 -0.0823,-0.32781 -0.31347,-0.59602 -0.51366,-0.59602 -0.28208,0 -0.3295,0.17542 -0.21075,0.77957 0.19984,1.01665 0.72368,1.37923 1.99264,1.37923 1.29298,0 1.99413,-0.62116 1.99413,-1.76665 0,-0.78578 -0.75852,-2.07121 -1.22219,-2.07121 -0.36847,0 -2.13781,-1.18494 -2.13781,-1.43171 0,-0.12449 0.783,-0.25806 1.74,-0.29682 1.35533,-0.0549 1.74,-0.15002 1.74,-0.43027 0,-0.51644 -4.1514,-0.64556 -4.34734,-0.13522 z m -22.59337,2.61762 c -0.0661,2.22943 0.15461,2.43485 2.61604,2.43485 1.70827,0 2.00657,-0.0603 2.07729,-0.41976 0.0723,-0.36763 -0.12587,-0.41977 -1.59539,-0.41977 -2.10514,0 -2.43723,-0.1277 -2.43723,-0.93716 0,-1.00766 0.40777,-1.22164 2.328,-1.22164 1.592,0 1.752,-0.0438 1.752,-0.47973 0,-0.44704 -0.16,-0.47974 -2.34777,-0.47974 l -2.34778,0 -0.0452,1.52295 z m 0.84022,3.55334 c -0.75247,0.27466 -1.02435,1.01803 -0.82389,2.25267 0.13393,0.82486 0.13232,0.82651 -0.81071,0.82651 -0.78491,0 -0.94491,0.0812 -0.94491,0.47973 0,0.45605 0.16,0.47974 3.24,0.47974 2.72,0 3.24,-0.0577 3.24,-0.3598 0,-0.19789 -0.0997,-0.3598 -0.22161,-0.3598 -0.12188,0 -0.0635,-0.31678 0.12977,-0.70395 0.30919,-0.61943 0.30837,-0.8068 -0.007,-1.56066 -0.52029,-1.24453 -2.08905,-1.67962 -3.80186,-1.05444 z m 2.71627,0.92882 c 0.52613,0.28142 0.63257,1.40642 0.17622,1.86252 -0.35342,0.35323 -1.97534,0.37782 -2.60778,0.0395 -0.59733,-0.31951 -0.62616,-1.55253 -0.0442,-1.89129 0.54865,-0.31938 1.88792,-0.32521 2.47578,-0.0108 z m -3.45578,4.22921 c -0.088,0.0879 -0.16,0.29946 -0.16,0.47003 0,0.22289 0.55691,0.32972 1.98,0.37979 l 1.98,0.0697 0.0746,0.77134 c 0.0862,0.89149 -0.12738,0.98522 -2.47459,1.08586 -1.25941,0.054 -1.44,0.1219 -1.44,0.54147 0,0.44026 0.18302,0.48541 2.22406,0.54876 1.92489,0.0597 2.24545,0.0133 2.38317,-0.34542 0.0875,-0.22794 0.0426,-0.45324 -0.0997,-0.50067 -0.17426,-0.0581 -0.14777,-0.30879 0.0811,-0.76721 0.40321,-0.80781 0.13684,-1.76425 -0.60129,-2.15908 -0.51867,-0.27742 -3.68832,-0.35334 -3.94727,-0.0945 z m 0.84934,4.8887 c -0.682,0.27355 -1.31014,1.70184 -1.10598,2.5148 0.15612,0.62171 0.92938,1.31165 1.47004,1.31165 0.48936,0 0.35645,-0.49848 -0.2934,-1.10041 -1.04261,-0.96572 -0.64022,-1.72173 1.03599,-1.94643 1.84364,-0.24715 2.66893,1.05107 1.30401,2.05128 -0.51461,0.3771 -0.59663,0.54788 -0.37232,0.77526 0.38282,0.38806 1.444,-0.28847 1.76146,-1.12298 0.28266,-0.74306 -0.22817,-2.09825 -0.93304,-2.47528 -0.58054,-0.31052 -2.10184,-0.31471 -2.86676,-0.008 z m -1.00934,4.42612 c 0,0.23987 -0.24,0.3598 -0.72,0.3598 -0.57412,0 -0.72,0.10328 -0.72,0.50972 0,0.43842 0.10071,0.48958 0.72,0.36579 0.60557,-0.12104 0.72,-0.0686 0.72,0.32982 0,0.55608 0.4335,0.63408 0.63321,0.11394 0.21313,-0.55511 3.16637,-0.50569 3.58319,0.06 0.2926,0.39708 0.3188,0.39531 0.48465,-0.0326 0.34465,-0.88919 -0.18896,-1.22175 -2.08318,-1.29832 -1.24076,-0.0502 -1.83027,-0.17598 -1.96678,-0.41977 -0.25441,-0.45434 -0.65109,-0.44724 -0.65109,0.0117 z m -1.68,2.98075 c 0,0.34327 0.15413,0.49732 0.4976,0.49732 0.61503,0 0.54526,-0.79392 -0.0804,-0.91434 -0.288,-0.0554 -0.41724,0.0737 -0.41724,0.41702 z m 1.84837,-0.3106 c -0.0926,0.0925 -0.16837,0.31219 -0.16837,0.48809 0,0.24536 0.56293,0.31983 2.4176,0.31983 2.17308,0 2.40947,-0.0425 2.33726,-0.41977 -0.0683,-0.35662 -0.4066,-0.43005 -2.24924,-0.4881 -1.19289,-0.0376 -2.24465,0.007 -2.33725,0.1 z m -0.12418,2.06141 c 0.0591,0.40603 0.40562,0.62567 1.57581,0.99894 0.825,0.26316 1.5,0.54566 1.5,0.62779 0,0.0821 -0.702,0.39701 -1.56,0.69975 -1.17557,0.41478 -1.56,0.66215 -1.56,1.00382 0,0.24937 0.10725,0.45341 0.23834,0.45341 0.60652,0 4.56166,-1.76414 4.56166,-2.03467 0,-0.57283 -0.87722,-1.02178 -3.79581,-1.94267 -1.00952,-0.31853 -1.03389,-0.31362 -0.96,0.19363 z m -1.78765,4.64669 c -0.2253,0.22517 0.0813,0.81608 0.42346,0.81608 0.34214,0 0.64876,-0.59091 0.42346,-0.81608 -0.0789,-0.0789 -0.26946,-0.14338 -0.42346,-0.14338 -0.154,0 -0.34456,0.0645 -0.42346,0.14338 z m 1.74346,0.34504 c 0,0.46257 0.12366,0.48478 2.33722,0.41976 2.00287,-0.0588 2.34872,-0.1287 2.4176,-0.48842 0.0722,-0.37731 -0.16413,-0.41976 -2.33722,-0.41976 -2.27193,0 -2.4176,0.0294 -2.4176,0.48842 z m 0,1.31058 c 0,0.23986 -0.24,0.3598 -0.72,0.3598 -0.56,0 -0.72,0.1066 -0.72,0.47973 0,0.37313 0.16,0.47973 0.72,0.47973 0.48,0 0.72,0.11994 0.72,0.3598 0,0.19789 0.108,0.3598 0.24,0.3598 0.132,0 0.24,-0.16191 0.24,-0.3598 0,-0.28784 0.36,-0.3598 1.8,-0.3598 1.48211,0 1.8,0.0671 1.8,0.37979 0,0.49732 0.57652,0.30117 0.67982,-0.23129 0.16082,-0.82891 -0.41259,-1.10796 -2.27674,-1.10796 -1.35918,0 -1.81069,-0.0848 -1.91629,-0.3598 -0.076,-0.19789 -0.23459,-0.3598 -0.35247,-0.3598 -0.11787,0 -0.21432,0.16191 -0.21432,0.3598 z m 0,2.76638 c 0,0.31394 0.38941,0.57991 1.38,0.94256 0.759,0.27787 1.542,0.56897 1.74,0.6469 0.21137,0.0832 -0.33363,0.35502 -1.32,0.6584 -1.35839,0.41781 -1.69468,0.6187 -1.75669,1.04941 -0.0422,0.29298 -0.0333,0.53268 0.0197,0.53268 0.053,0 1.32952,-0.43499 2.83669,-0.96664 1.81599,-0.64059 2.92624,-1.1754 3.29152,-1.58552 0.60216,-0.6761 0.59129,-1.12269 -0.0303,-1.24317 -0.27087,-0.0525 -0.35496,0.038 -0.26149,0.28144 0.2578,0.67145 -0.78245,0.96933 -1.90581,0.54573 -0.54651,-0.20609 -1.66865,-0.5827 -2.49365,-0.83692 -1.44244,-0.44448 -1.5,-0.44543 -1.5,-0.0249 z m 17.04,3.2127 0,2.29632 -0.72,0 c -0.48,0 -0.72,0.11993 -0.72,0.3598 0,0.19789 0.20816,0.3598 0.46258,0.3598 0.25442,0 0.67496,0.26985 0.93454,0.59967 0.89627,1.13878 1.02105,0.80043 0.94985,-2.57561 -0.0591,-2.8022 -0.11632,-3.18473 -0.48697,-3.25579 -0.37636,-0.0721 -0.42,0.15807 -0.42,2.21581 z m 3.52,-2.10124 c -0.35809,0.35789 -0.14827,1.03942 0.32,1.03942 0.352,0 0.48,-0.15991 0.48,-0.59966 0,-0.56441 -0.43566,-0.80389 -0.8,-0.43976 z m 2.55496,0.37979 c -0.70114,0.77431 -0.86836,1.6191 -0.32048,1.6191 0.23624,0 0.48568,-0.21458 0.5543,-0.47684 0.19042,-0.72776 1.30236,-1.06263 2.00362,-0.6034 0.99774,0.65338 0.61685,2.03971 -0.5604,2.03971 -0.70286,0 -0.73441,0.65911 -0.0365,0.76288 0.63029,0.0937 1.05383,0.71311 0.85024,1.24338 -0.1004,0.2615 -0.43538,0.39241 -1.00414,0.39241 -0.6967,0 -0.89673,-0.11373 -1.08901,-0.61917 -0.12954,-0.34054 -0.36987,-0.57446 -0.53406,-0.51982 -0.53603,0.17838 -0.46412,0.87535 0.15405,1.49318 0.77722,0.77678 2.31214,0.84043 3.02743,0.12554 0.53815,-0.53785 0.63513,-1.66794 0.18201,-2.12082 -0.22683,-0.2267 -0.23042,-0.33957 -0.015,-0.47262 0.52244,-0.32271 0.8173,-1.46837 0.52495,-2.0397 -0.72129,-1.40963 -2.79297,-1.86634 -3.73698,-0.82383 z m -23.19288,6.09453 c -0.0869,0.0868 -0.0477,0.29061 0.0871,0.45289 0.16813,0.20248 0.15446,0.49367 -0.0436,0.92808 -0.20758,0.45534 -0.21544,0.70611 -0.028,0.89345 0.33458,0.3344 0.7824,0.06 0.7824,-0.4795 0,-0.75193 0.53027,-0.99328 2.18232,-0.99328 1.15667,0 1.64248,-0.0942 1.73547,-0.33635 0.071,-0.18499 0.0646,-0.40087 -0.0143,-0.47973 -0.19596,-0.19586 -4.5042,-0.18262 -4.70138,0.0144 z m 2.50998,2.9284 c -0.24637,0.24623 -0.52299,0.94784 -0.61471,1.55913 -0.14593,0.97262 -0.23987,1.11144 -0.75206,1.11144 -0.4941,0 -0.58529,-0.11547 -0.58529,-0.74112 0,-0.47793 0.19176,-0.89779 0.54,-1.1823 0.44725,-0.36541 0.4856,-0.49562 0.2233,-0.75805 -0.50249,-0.50276 -1.4833,0.77876 -1.4833,1.93807 0,1.35947 0.52409,1.70287 2.5989,1.70287 0.9874,0 1.7211,0.10226 1.7211,0.23987 0,0.38688 0.48153,0.27511 0.64461,-0.14963 0.0887,-0.23109 -0.006,-0.47622 -0.23171,-0.60273 -0.337,-0.18849 -0.34147,-0.28945 -0.0385,-0.86981 0.46522,-0.89131 0.43372,-1.3195 -0.15177,-2.06342 -0.58462,-0.74281 -1.24647,-0.80803 -1.87052,-0.18432 z m 1.56702,1.12674 c 0.24962,0.65013 -0.32576,1.54383 -0.99393,1.54383 -0.63382,0 -0.73845,-0.31794 -0.45388,-1.37923 0.17085,-0.63717 1.22055,-0.75651 1.44781,-0.1646 z m -4.12762,3.52273 c -0.0921,0.23751 -0.41219,0.41977 -0.73714,0.41977 -0.41432,0 -0.57432,0.13365 -0.57432,0.47973 0,0.34555 0.16,0.47974 0.57201,0.47974 0.3793,0 0.61642,0.16975 0.70384,0.50387 0.14129,0.53998 0.64415,0.41646 0.64415,-0.15823 0,-0.26818 0.37825,-0.34564 1.68773,-0.34564 1.52269,0 1.70695,0.0519 1.88421,0.53081 0.19604,0.52966 0.19704,0.52974 0.46085,0.0371 0.20389,-0.38077 0.18152,-0.61198 -0.0978,-1.01055 -0.31289,-0.44647 -0.59361,-0.51682 -2.06213,-0.51682 -1.34115,0 -1.76522,-0.0886 -2.00925,-0.41977 -0.29459,-0.39978 -0.31707,-0.39978 -0.47214,0 z m -1.79146,3.29817 c 0,0.31982 0.16,0.47973 0.48,0.47973 0.32,0 0.48,-0.15991 0.48,-0.47973 0,-0.31982 -0.16,-0.47973 -0.48,-0.47973 -0.32,0 -0.48,0.15991 -0.48,0.47973 z m 1.68,0 c 0,0.44775 0.16,0.47973 2.4,0.47973 2.24,0 2.4,-0.032 2.4,-0.47973 0,-0.44775 -0.16,-0.47973 -2.4,-0.47973 -2.24,0 -2.4,0.032 -2.4,0.47973 z m 1.28568,1.43718 c -0.7606,0.30677 -1.28568,1.19399 -1.28568,2.17238 0,1.15514 0.82349,1.92389 2.23067,2.08241 0.92651,0.10437 1.16199,0.0289 1.86295,-0.59705 2.05332,-1.83363 -0.16524,-4.72361 -2.80794,-3.65774 z m 2.59857,1.36131 c 0.5629,0.50914 0.55081,0.92438 -0.0443,1.51911 -0.558,0.55769 -2.07409,0.65087 -2.73472,0.16807 -0.6204,-0.45339 -0.42571,-1.63277 0.33472,-2.02768 0.70941,-0.36841 1.83363,-0.2118 2.44425,0.3405 z m -2.68425,6.70819 c -1.89673,0.75058 -3.12,1.40922 -3.12,1.67988 0,0.41242 -0.0373,0.4174 1.14333,-0.15269 1.39605,-0.67412 4.77607,-0.66899 6.27241,0.01 1.85817,0.8426 1.62786,0.0846 -0.26568,-0.87435 -1.18482,-0.60006 -3.30636,-0.94874 -4.03006,-0.66236 z m -2.88,3.44612 c 0,0.43533 0.16,0.47974 1.72871,0.47974 l 1.72871,0 -0.88871,0.90961 c -0.52307,0.53538 -0.88871,1.14542 -0.88871,1.48277 0,0.54122 0.0438,0.52394 0.7861,-0.30995 0.43235,-0.4857 0.86861,-0.8831 0.96946,-0.8831 0.10086,0 0.73799,0.37329 1.41585,0.82953 l 1.23247,0.82954 -0.70194,0.27139 c -0.38607,0.14927 -1.78194,0.63499 -3.10194,1.07938 -1.49893,0.50464 -2.42913,0.94684 -2.4776,1.17781 -0.0427,0.2034 -0.0427,0.36452 0,0.35806 0.0427,-0.006 1.5896,-0.51919 3.4376,-1.13937 l 3.36,-1.12761 -0.0697,-0.7196 c -0.0762,-0.78727 -0.75716,-1.48933 -1.80125,-1.85708 -0.94744,-0.33372 -0.67895,-0.76026 0.5674,-0.90138 0.75862,-0.0859 1.08185,-0.23906 1.13896,-0.5397 0.0728,-0.38308 -0.205,-0.41977 -3.17785,-0.41977 -3.0976,0 -3.2576,0.0236 -3.2576,0.47973 z m 18.96,7.54061 0,2.26353 -0.78,0.0752 c -0.91102,0.0878 -1.08656,0.7513 -0.23086,0.87261 0.30202,0.0428 0.679,0.28568 0.83773,0.5397 0.15873,0.25402 0.42461,0.46185 0.59086,0.46185 0.2281,0 0.30227,-0.79459 0.30227,-3.2382 0,-2.71849 -0.0578,-3.2382 -0.36,-3.2382 -0.29457,0 -0.36,0.41141 -0.36,2.26354 z m 3.2883,-2.11192 c -0.0926,0.0925 -0.1683,0.36609 -0.1683,0.60796 0,0.31233 0.17869,0.43975 0.61669,0.43975 0.50153,0 0.60237,-0.10033 0.54,-0.53725 -0.0759,-0.53175 -0.66347,-0.8352 -0.98839,-0.51046 z m 4.7967,0.003 c -0.0908,0.0907 -0.165,0.47074 -0.165,0.84454 0,0.66434 -0.0299,0.67962 -1.32753,0.67962 -0.93767,0 -1.36671,0.10204 -1.46094,0.34745 -0.17574,0.45772 3.0538,4.97912 3.34861,4.6881 0.0677,-0.0669 0.15389,-1.02256 0.19145,-2.12375 0.0632,-1.85141 0.11079,-2.01831 0.63279,-2.21667 0.61273,-0.23283 0.51905,-0.69513 -0.14086,-0.69513 -0.29845,0 -0.40754,-0.20341 -0.40584,-0.75674 0.002,-0.72956 -0.33062,-1.10929 -0.67268,-0.76742 z m -0.165,3.56302 c 0,0.7256 -0.0357,1.31927 -0.0793,1.31927 -0.16679,0 -1.60068,-2.13013 -1.60068,-2.37791 0,-0.14334 0.378,-0.26062 0.84,-0.26062 l 0.84,0 0,1.31926 z m -26.88,-1.92944 c 0,0.26681 0.40662,0.36594 1.72183,0.41977 l 1.72184,0.0705 -0.88184,0.93306 c -0.51043,0.54007 -0.88183,1.175 -0.88183,1.50751 0,0.5473 0.0352,0.53438 0.74486,-0.27342 0.40968,-0.46633 0.87012,-0.84788 1.02321,-0.84788 0.15308,0 0.83963,0.37779 1.52567,0.83953 1.45635,0.98022 1.50626,0.99207 1.50626,0.35759 0,-0.32047 -0.4048,-0.73089 -1.20814,-1.22492 -0.97475,-0.59943 -1.15453,-0.80753 -0.93062,-1.07718 0.15264,-0.18382 0.69631,-0.33422 1.20815,-0.33422 0.66721,0 0.93061,-0.10184 0.93061,-0.3598 0,-0.30205 -0.52,-0.3598 -3.24,-0.3598 -2.67668,0 -3.24,0.0607 -3.24,0.34929 z m 7.86,3.86564 c -0.89292,0.48415 -0.90609,1.55345 -0.0276,2.24406 0.8627,0.67823 1.37742,0.62488 2.08548,-0.21613 0.68038,-0.80815 0.62594,-1.50153 -0.16116,-2.05253 -0.62595,-0.43818 -1.05339,-0.43264 -1.89669,0.0246 z m 1.93395,1.10151 c 0.0888,0.76746 -0.52722,1.05517 -1.48225,0.69227 -0.65646,-0.24945 -0.73436,-0.42502 -0.48116,-1.08448 0.10906,-0.28405 0.39011,-0.37207 1.02,-0.31946 0.74098,0.0619 0.88039,0.16706 0.94341,0.71167 z m -10.51395,2.58283 c 0,0.37728 1.26361,1.14826 2.59565,1.5837 1.54683,0.50567 2.92679,0.36164 4.58588,-0.47862 1.94961,-0.98739 2.04288,-1.67245 0.11244,-0.82579 -1.61771,0.7095 -4.08623,0.71595 -5.80285,0.0152 -1.44519,-0.58995 -1.49112,-0.59903 -1.49112,-0.29445 z m 25.90602,27.23139 c -0.33769,0.18521 -0.74038,0.61399 -0.89486,0.95284 -0.26047,0.57135 -0.23766,0.61611 0.31399,0.61611 0.36535,0 0.59485,-0.13705 0.59485,-0.35523 0,-0.39806 1.00446,-0.73056 1.56154,-0.51691 0.64618,0.24783 0.96044,1.27555 0.59736,1.95359 -0.25556,0.47725 -0.50518,0.59761 -1.23946,0.59761 -0.50569,0 -0.91944,-0.10794 -0.91944,-0.23986 0,-0.13193 -0.2133,-0.23987 -0.474,-0.23987 -0.38718,0 -0.45127,0.12083 -0.34991,0.65963 0.0683,0.3628 0.20319,1.14537 0.29985,1.73904 l 0.17574,1.0794 1.61416,0.0709 c 1.4893,0.0654 1.61416,0.033 1.61416,-0.41976 0,-0.43487 -0.15017,-0.4907 -1.32,-0.4907 -0.726,0 -1.32147,-0.081 -1.32328,-0.1799 -0.002,-0.0989 -0.0715,-0.43479 -0.15499,-0.74634 -0.14116,-0.52705 -0.10042,-0.55518 0.58577,-0.40455 0.86968,0.19091 2.06194,-0.3385 2.46735,-1.09561 0.36785,-0.68696 0.0907,-1.95076 -0.55852,-2.54654 -0.72392,-0.66435 -1.83173,-0.84991 -2.59031,-0.43387 z m -6.46602,2.16861 0,2.27874 -0.72,0 c -0.86246,0 -0.99098,0.60615 -0.18,0.84891 0.297,0.0889 0.71418,0.38155 0.92707,0.65033 0.73424,0.927 0.93293,0.29818 0.93293,-2.9526 0,-2.9442 -0.0247,-3.10411 -0.48,-3.10411 -0.44632,0 -0.48,0.15991 -0.48,2.27873 z m 3.36,-1.67906 c 0,0.42158 0.13067,0.59966 0.44,0.59966 0.59003,0 0.73149,-0.17708 0.58591,-0.73349 -0.18625,-0.71181 -1.02591,-0.60229 -1.02591,0.13383 z"
       id="path4134"
       inkscape:connector-curvature="0" /></g></svg>