<?xml version="1.0" encoding="UTF-8" standalone="no"?>
<!-- Created with Inkscape (http://www.inkscape.org/) -->

<svg
   xmlns:dc="http://purl.org/dc/elements/1.1/"
   xmlns:cc="http://creativecommons.org/ns#"
   xmlns:rdf="http://www.w3.org/1999/02/22-rdf-syntax-ns#"
   xmlns:svg="http://www.w3.org/2000/svg"
   xmlns="http://www.w3.org/2000/svg"
   xmlns:sodipodi="http://sodipodi.sourceforge.net/DTD/sodipodi-0.dtd"
   xmlns:inkscape="http://www.inkscape.org/namespaces/inkscape"
   id="svg2"
   version="1.1"
   inkscape:version="0.91 r13725"
   xml:space="preserve"
   viewBox="0 0 259.13638 332.70007"
   preserveAspectRatio="xMidYMid meet"
   sodipodi:docname="Maxwell.svg"><metadata
     id="metadata8"><rdf:RDF><cc:Work
         rdf:about=""><dc:format>image/svg+xml</dc:format><dc:type
           rdf:resource="http://purl.org/dc/dcmitype/StillImage" /><dc:title></dc:title></cc:Work></rdf:RDF></metadata><defs
     id="defs6"><clipPath
       clipPathUnits="userSpaceOnUse"
       id="clipPath1102"><path
         d="m 318.073,89.677 227.058,0 0,99.339 -227.058,0 0,-99.339 z"
         id="path1104"
         inkscape:connector-curvature="0" /></clipPath><clipPath
       clipPathUnits="userSpaceOnUse"
       id="clipPath1384"><path
         d="m 318.073,89.677 227.058,0 0,99.339 -227.058,0 0,-99.339 z"
         id="path1386"
         inkscape:connector-curvature="0" /></clipPath><clipPath
       clipPathUnits="userSpaceOnUse"
       id="clipPath1400"><path
         d="m 318.073,89.677 227.058,0 0,99.339 -227.058,0 0,-99.339 z"
         id="path1402"
         inkscape:connector-curvature="0" /></clipPath><clipPath
       clipPathUnits="userSpaceOnUse"
       id="clipPath1414"><path
         d="m 318.073,89.677 227.058,0 0,99.339 -227.058,0 0,-99.339 z"
         id="path1416"
         inkscape:connector-curvature="0" /></clipPath><clipPath
       clipPathUnits="userSpaceOnUse"
       id="clipPath1442"><path
         d="m 318.073,89.677 227.058,0 0,99.339 -227.058,0 0,-99.339 z"
         id="path1444"
         inkscape:connector-curvature="0" /></clipPath><clipPath
       clipPathUnits="userSpaceOnUse"
       id="clipPath1484"><path
         d="M 0,0 612,0 612,792 0,792 0,0 Z"
         id="path1486"
         inkscape:connector-curvature="0" /></clipPath></defs><sodipodi:namedview
     pagecolor="#0d0d0d"
     bordercolor="#666666"
     borderopacity="1"
     objecttolerance="10"
     gridtolerance="10"
     guidetolerance="10"
     inkscape:pageopacity="0"
     inkscape:pageshadow="2"
     inkscape:window-width="3200"
     inkscape:window-height="1691"
     id="namedview4"
     showgrid="false"
     inkscape:zoom="3.8141415"
     inkscape:cx="135.09957"
     inkscape:cy="187.72662"
     inkscape:window-x="0"
     inkscape:window-y="0"
     inkscape:window-maximized="1"
     inkscape:current-layer="g10"
     fit-margin-top="0"
     fit-margin-left="0"
     fit-margin-right="0"
     fit-margin-bottom="0" /><g
     id="g10"
     inkscape:groupmode="layer"
     inkscape:label="Eapen_etal_2010"
     transform="matrix(1.25,0,0,-1.25,-97.173405,912.6276)"><path
       style="fill:#ffffff"
       d="m 160.96783,526.70201 0,62.76 62.04,0 62.03999,0 0,-62.76 0,-62.75999 -62.03999,0 -62.04,0 z m 44.30374,-58.46269 c 1.38664,0.62973 2.04141,1.64078 2.05326,3.17044 0.005,0.67935 -0.0927,1.302 -0.21779,1.3837 -0.12505,0.0817 -0.35513,0.3912 -0.51131,0.68777 -0.35036,0.66532 -1.93716,1.50216 -2.83834,1.49683 -1.17416,-0.007 -2.53414,-0.9643 -3.15865,-2.22355 -0.51813,-1.04479 -0.54273,-1.24162 -0.27479,-2.19864 0.41569,-1.48471 1.92099,-2.71488 3.36388,-2.74908 0.33,-0.008 1.04268,0.18681 1.58374,0.43253 z m 3.44852,9.13987 c 0.71802,0.26244 1.39388,0.63511 1.50191,0.82816 0.10803,0.19304 0.37147,0.52601 0.58541,0.73997 0.26339,0.26338 0.38899,0.81089 0.38899,1.69567 0,1.2043 -0.0741,1.37931 -0.94551,2.23352 -2.07977,2.0387 -5.35139,1.30274 -6.06985,-1.36541 -0.50655,-1.88119 0.88723,-4.12908 2.56019,-4.12908 0.30063,0 0.5466,-0.108 0.5466,-0.24 0,-0.30504 -0.0936,-0.32055 1.43226,0.23717 z m -10.65222,0.29563 c 1.43119,0.6521 2.09195,3.4134 1.1263,4.70678 -0.90012,1.20562 -1.67426,1.59243 -3.187,1.59243 -1.24198,0 -1.5073,-0.0873 -2.15699,-0.70976 -0.40745,-0.39036 -0.89867,-1.02616 -1.09159,-1.41288 -0.3669,-0.73548 -0.48231,-2.30937 -0.16935,-2.30937 0.0998,0 0.32544,-0.32537 0.50147,-0.72305 0.64942,-1.46714 3.05471,-2.02008 4.97716,-1.14415 z m -7.50828,9.40668 c 0.89896,0.68565 1.60824,1.91196 1.60824,2.78052 0,1.57309 -2.09447,3.6 -3.72,3.6 -0.90494,0 -3.00204,-1.27597 -3.17327,-1.93075 -0.0675,-0.25809 -0.21812,-0.46925 -0.33472,-0.46925 -0.32535,0 -0.25158,-2.13238 0.088,-2.54331 0.84287,-1.01995 1.55971,-1.68696 2.1,-1.95396 0.91721,-0.45331 2.46566,-0.22012 3.43176,0.51675 z m 22.97637,-0.0555 c 1.08122,0.79936 1.52304,1.627 1.52364,2.85417 7.2e-4,1.35096 -0.70504,2.43521 -2.02242,3.10729 -1.27649,0.65121 -2.31936,0.58996 -3.46737,-0.20365 -1.20493,-0.83296 -1.55398,-1.52015 -1.55844,-3.06821 -0.003,-1.05871 0.10313,-1.33807 0.77646,-2.04266 0.429,-0.44892 1.05,-0.94858 1.38,-1.11036 0.82824,-0.40601 2.50404,-0.17544 3.36813,0.46342 z m 53.06663,-0.50537 c 0.87789,0.46985 1.4381,1.04959 1.92556,1.99269 0.54213,1.04888 0.46959,1.9866 -0.24358,3.14871 -0.49445,0.80571 -2.18087,1.8 -3.05299,1.8 -0.89279,0 -2.57685,-1.07077 -3.07689,-1.95637 -0.49214,-0.87161 -0.60371,-2.89134 -0.16775,-3.03666 0.14348,-0.0478 0.26088,-0.22716 0.26088,-0.39848 0,-0.31298 1.24791,-1.37383 1.92,-1.63221 0.60961,-0.23434 1.92625,-0.18982 2.43477,0.0823 z m -7.16129,5.69956 c 1.21731,0.51453 1.70109,1.5382 1.55568,3.29174 -0.0913,1.10031 -0.24101,1.44988 -0.89507,2.08935 -0.6958,0.68027 -0.96886,0.77832 -2.39144,0.85871 -1.58695,0.0897 -1.61674,0.0799 -2.5186,-0.82192 -0.50196,-0.50196 -1.01547,-1.18307 -1.14113,-1.51358 -0.57778,-1.51967 0.57269,-3.61378 2.31708,-4.21764 1.02972,-0.35646 1.63479,-0.29477 3.07348,0.31334 z m 15.70488,2.19422 c 0.41006,0.30317 0.80974,0.80691 0.88818,1.11941 0.0784,0.31252 0.24855,0.56821 0.37803,0.56821 0.12949,0 0.23543,0.486 0.23543,1.08 0,0.594 -0.0843,1.08 -0.18738,1.08 -0.10306,0 -0.3037,0.30814 -0.44586,0.68477 -0.14933,0.39564 -0.57689,0.82571 -1.01261,1.01858 -0.41478,0.1836 -0.75415,0.41545 -0.75415,0.51523 0,0.0998 -0.594,0.18142 -1.32,0.18142 -0.726,0 -1.32,-0.0816 -1.32,-0.18142 0,-0.0998 -0.31255,-0.31976 -0.69455,-0.48885 -0.382,-0.16909 -0.8271,-0.62745 -0.98912,-1.01859 -0.16201,-0.39113 -0.38946,-0.71114 -0.50544,-0.71114 -0.11599,0 -0.21089,-0.38577 -0.21089,-0.85727 0,-0.97407 1.06591,-2.98273 1.58281,-2.98273 0.18545,0 0.33719,-0.10049 0.33719,-0.22331 0,-0.68595 3.01793,-0.52397 4.01836,0.21569 z m -88.62964,1.72614 c 0.33621,0.15319 0.61129,0.34882 0.61129,0.43474 0,0.0859 0.23914,0.41292 0.53143,0.72665 1.16376,1.24915 0.46141,4.02099 -1.2165,4.80095 -0.34921,0.16233 -0.82246,0.39054 -1.05167,0.50714 -0.56433,0.28707 -1.62326,0.2688 -1.62326,-0.028 0,-0.132 -0.189,-0.2436 -0.42,-0.24799 -0.94326,-0.0179 -2.45749,-1.97848 -2.4591,-3.18393 -0.001,-0.9005 0.54082,-1.8954 1.4489,-2.65949 0.62042,-0.52206 0.98606,-0.62859 2.15732,-0.62859 0.77566,0 1.68538,0.12533 2.02159,0.27852 z m 34.52707,7.2e-4 c 0.6614,0.35227 1.03468,0.81955 1.50243,1.8808 0.73653,1.67108 -0.29759,3.68459 -2.22571,4.33359 -1.00452,0.33812 -1.21651,0.33812 -2.23278,0 -1.76662,-0.58776 -2.39972,-1.45389 -2.39972,-3.28296 0,-1.31829 0.72784,-2.5963 1.68,-2.94991 0.8618,-0.32005 3.06091,-0.309 3.67578,0.0185 z m 7.36422,5.23288 c 0.066,0.0896 0.30838,0.23238 0.53862,0.31732 0.74777,0.27586 1.37951,1.636 1.38048,2.97214 7.2e-4,0.98638 -0.12682,1.39337 -0.62044,1.98 -0.34173,0.40613 -0.76473,0.73842 -0.94,0.73842 -0.17526,0 -0.36238,0.13114 -0.41581,0.29142 -0.0609,0.18256 -0.6019,0.29143 -1.44831,0.29143 -1.15087,0 -1.48632,-0.10938 -2.26286,-0.73784 -1.21149,-0.98049 -1.67587,-2.19061 -1.30966,-3.41289 0.29973,-1.00041 1.20521,-2.19212 1.66562,-2.19212 0.1608,0 0.29236,-0.10083 0.29236,-0.22406 0,-0.45038 2.79006,-0.47168 3.12,-0.0238 z m 27.21371,0.28368 c 0.26224,0.24431 0.56165,0.4442 0.66537,0.4442 0.10373,0 0.35336,0.31863 0.55475,0.70808 0.7552,1.46039 0.23634,4.11504 -0.87193,4.46114 -0.30905,0.0965 -0.63658,0.29206 -0.72785,0.43455 -0.0913,0.14249 -0.7441,0.25908 -1.45073,0.25908 -1.47791,0 -2.48113,-0.57251 -3.28641,-1.87548 -0.71782,-1.16147 -0.64058,-2.25745 0.24385,-3.46009 0.40742,-0.55401 0.89342,-1.00728 1.08,-1.00728 0.18658,0 0.33923,-0.10083 0.33923,-0.22406 0,-0.62491 2.72403,-0.41995 3.45372,0.25986 z m -73.20998,1.77872 c 1.30451,0.64602 1.94227,1.68481 1.92139,3.12956 -0.012,0.83092 -0.15293,1.39801 -0.41169,1.65677 -0.21638,0.21639 -0.39343,0.47368 -0.39343,0.57176 0,0.34797 -1.97753,1.22738 -2.76,1.22738 -0.78247,0 -2.76,-0.87941 -2.76,-1.22738 0,-0.0981 -0.18514,-0.36347 -0.41143,-0.58976 -0.62017,-0.62017 -0.5562,-2.68099 0.11237,-3.61991 1.00713,-1.41437 3.12259,-1.93097 4.70279,-1.14842 z m 38.34696,-0.0286 c 0.80171,0.34271 1.69458,1.44345 1.99724,2.46223 0.1845,0.62104 -0.26264,2.4718 -0.59718,2.4718 -0.12691,0 -0.23075,0.14197 -0.23075,0.31548 0,0.45685 -1.83091,1.36452 -2.75245,1.36452 -1.02631,0 -2.85336,-1.03067 -3.20841,-1.80993 -0.56623,-1.24273 -0.27081,-3.22385 0.62393,-4.18425 0.89901,-0.96498 2.72497,-1.23655 4.16762,-0.61985 z m 31.04029,5.59275 c 1.28737,0.7776 1.68123,1.68898 1.50819,3.48988 -0.0973,1.01312 -0.25001,1.32383 -0.92785,1.88847 -1.07526,0.89571 -2.23895,1.21708 -3.3367,0.92149 -1.52659,-0.41107 -2.87463,-2.05358 -2.87463,-3.50258 0,-1.42822 2.20886,-3.45225 3.77022,-3.45475 0.42362,-7.2e-4 1.26097,0.2952 1.86077,0.65749 z m 26.52901,-0.17872 c 0.33,0.25813 0.7219,0.47173 0.87088,0.47467 0.14899,0.003 0.40509,0.32933 0.56912,0.72533 0.16403,0.396 0.39313,0.72 0.50912,0.72 0.11598,0 0.21088,0.54 0.21088,1.2 0,0.66 -0.108,1.2 -0.24,1.2 -0.132,0 -0.24,0.16133 -0.24,0.3585 0,0.48976 -1.80096,1.75742 -2.74959,1.93539 -1.76472,0.33106 -4.21041,-1.69228 -4.21041,-3.48332 0,-1.64692 2.00771,-3.58739 3.72,-3.5954 0.59381,-0.003 1.18887,0.17453 1.56,0.46483 z m -37.44033,2.75968 c 2.60688,2.49756 0.20151,6.78249 -3.36738,5.99863 -0.40597,-0.0892 -1.16432,-0.56754 -1.68521,-1.06305 -0.9042,-0.86015 -0.94707,-0.96835 -0.94707,-2.38999 0,-1.35722 0.0691,-1.5593 0.78,-2.28243 1.01494,-1.03235 1.21952,-1.10237 2.99583,-1.02542 1.27699,0.0553 1.60235,0.16685 2.22383,0.76226 z m -58.75956,1.05115 c 1.64925,0.71499 2.23226,1.56124 2.21256,3.21155 -0.0158,1.32171 -0.0629,1.42424 -1.07458,2.33661 -0.9517,0.8583 -1.18634,0.95458 -2.33386,0.95762 -1.42775,0.004 -1.99862,-0.23409 -3.02509,-1.26056 -0.57319,-0.57318 -0.70829,-0.91718 -0.72212,-1.83868 -0.0244,-1.62414 0.65722,-2.76215 2.01267,-3.36045 1.36105,-0.60076 1.64084,-0.60516 2.93042,-0.0461 z m 38.38939,0.0164 c 2.59657,1.15484 3.03658,3.80118 0.95313,5.73234 -0.82575,0.76539 -0.93076,0.7959 -2.45692,0.71361 -1.4169,-0.0764 -1.6827,-0.17239 -2.38883,-0.86276 -0.69911,-0.68351 -0.80587,-0.95657 -0.88892,-2.27361 -0.0806,-1.27805 -0.0148,-1.59766 0.44997,-2.18695 0.54458,-0.69044 2.15811,-1.57465 2.89157,-1.58458 0.21422,-0.003 0.86222,0.20498 1.44,0.46195 z m 11.82408,1.53882 c 0.34564,0.17932 0.89798,0.61688 1.22743,0.97236 0.5018,0.54145 0.599,0.88257 0.599,2.1022 0,1.37116 -0.0542,1.51008 -0.93177,2.38763 -0.93084,0.93084 -1.40515,1.07884 -3.02754,0.94467 -2.12259,-0.17554 -3.56853,-2.22413 -3.01659,-4.27388 0.23515,-0.87327 0.80275,-1.54801 1.80904,-2.15051 0.6578,-0.39385 2.56681,-0.38383 3.34043,0.0175 z m 26.96658,2.09865 c 1.19841,0.63968 1.73984,1.55492 1.73984,2.94105 0,1.34597 -0.30651,2.01875 -1.27303,2.79426 -0.62048,0.49786 -1.00605,0.6 -2.26489,0.6 -1.48058,0 -1.54129,-0.0254 -2.52135,-1.05543 -0.93589,-0.98359 -1.00296,-1.14461 -0.98531,-2.36555 0.0104,-0.72056 0.12394,-1.37962 0.25227,-1.46457 0.12833,-0.0849 0.33832,-0.34688 0.46664,-0.58208 0.33988,-0.623 1.75134,-1.30904 2.76299,-1.34296 0.48425,-0.0162 1.30095,0.19671 1.82284,0.47529 z m 15.35233,-0.0299 c 0.60758,0.29355 1.10517,0.75158 1.30366,1.2 0.17657,0.39888 0.40266,0.72524 0.50244,0.72524 0.0998,0 0.18141,0.486 0.18141,1.08 0,0.594 -0.0963,1.08 -0.21398,1.08 -0.11769,0 -0.27596,0.24693 -0.35171,0.54873 -0.0757,0.3018 -0.49245,0.8148 -0.92601,1.14 -0.63821,0.47869 -1.0691,0.59127 -2.2631,0.59127 -1.64238,0 -2.11697,-0.28254 -3.11633,-1.85523 -0.71753,-1.12919 -0.70972,-1.97108 0.0294,-3.1744 1.0433,-1.69838 2.99298,-2.23483 4.85417,-1.33561 z m -38.27938,5.29843 c 1.6542,0.75371 2.22106,3.73708 0.99196,5.2207 -1.23031,1.48509 -4.00766,1.61302 -5.40314,0.24889 -1.59035,-1.55461 -1.26305,-4.3278 0.64105,-5.43164 0.60169,-0.34881 3.03412,-0.3733 3.77013,-0.038 z m 8.07653,0.35809 c 0.84087,0.70755 1.47036,1.85284 1.47036,2.67516 0,0.79289 -0.85596,2.39526 -1.50308,2.8138 -1.4083,0.91084 -3.51167,0.75366 -4.75371,-0.35523 -0.71699,-0.64013 -0.81118,-0.87346 -0.89706,-2.22211 -0.0871,-1.36822 -0.0347,-1.57964 0.56938,-2.29758 0.83729,-0.99506 1.32758,-1.19113 3.02606,-1.2101 1.1221,-0.0125 1.48937,0.0923 2.08805,0.59606 z m -61.45243,0.36602 c 0.40494,0.32049 0.74222,0.7177 0.74952,0.8827 0.007,0.165 0.12128,0.3 0.25328,0.3 0.13337,0 0.24,0.6407 0.24,1.44208 0,1.23329 -0.0956,1.54952 -0.66,2.18413 -0.85577,0.96215 -1.75048,1.41379 -2.80078,1.41379 -0.95576,0 -2.45798,-0.74469 -3.06717,-1.52048 -1.28059,-1.6308 -0.43704,-4.19649 1.72795,-5.25563 0.74926,-0.36655 2.79745,-0.0479 3.5572,0.55341 z m 8.04048,0.42744 c 0.92459,0.92459 1.00232,1.10109 1.00232,2.27593 0,0.89297 -0.12553,1.39914 -0.42,1.69362 -0.231,0.231 -0.42,0.51809 -0.42,0.63798 0,0.37642 -1.86326,1.18773 -2.72776,1.18773 -1.13683,0 -2.7032,-0.88945 -3.27598,-1.86024 -0.86351,-1.46353 -0.50705,-3.06759 0.9466,-4.25976 0.90382,-0.74124 1.23947,-0.83814 2.61482,-0.7549 1.13273,0.0685 1.3914,0.19104 2.28,1.07964 z m 11.49085,0.0299 c 0.79821,0.89946 0.91147,1.17702 0.91147,2.23358 0,2.76195 -2.82358,4.36507 -5.26897,2.99152 -1.03377,-0.58065 -1.93385,-2.00545 -1.92708,-3.05048 0.006,-0.93282 0.97994,-2.42669 1.91605,-2.93904 0.62712,-0.34324 1.17162,-0.43478 2.14853,-0.36121 1.18621,0.0893 1.39374,0.19455 2.22,1.12563 z m 11.51355,-0.007 c 1.09865,1.23802 1.35153,2.29939 0.81229,3.40929 -0.53646,1.10418 -0.85819,1.45547 -1.77984,1.94334 -1.0708,0.56682 -2.18608,0.5284 -3.39514,-0.11696 -1.21173,-0.64679 -1.67939,-1.46741 -1.67939,-2.9469 0,-1.26601 0.29782,-1.94039 1.16218,-2.63158 0.93945,-0.75125 1.26152,-0.84268 2.66635,-0.75691 1.19512,0.073 1.38697,0.16828 2.21355,1.09972 z m 56.14446,0.73127 c 1.1807,0.35552 1.6499,0.73719 2.1314,1.73378 0.59127,1.22378 0.6031,1.77353 0.062,2.88354 -1.62308,3.32993 -6.78,2.34348 -6.78,-1.29692 0,-1.84999 1.17349,-3.31904 2.65129,-3.31904 0.25779,0 0.46871,-0.11955 0.46871,-0.26567 0,-0.15805 0.17015,-0.19654 0.42,-0.095 0.231,0.0939 0.70195,0.25557 1.04655,0.35933 z m -83.01707,6.17789 c 0.90995,0.90995 0.97332,1.06193 0.96213,2.30738 -0.0144,1.59613 -0.47364,2.34202 -1.86737,3.0326 -1.23242,0.61066 -2.001,0.60968 -3.30697,-0.004 -1.791,-0.84186 -2.59967,-3.03643 -1.65847,-4.50075 0.94732,-1.47385 1.93442,-1.98841 3.6189,-1.88646 1.12605,0.0681 1.39327,0.19292 2.25178,1.05143 z m 6.77363,-0.76692 c 1.02698,0.53554 2.0569,2.09534 2.0569,3.11515 0,0.30243 -0.243,1.00701 -0.54,1.56572 -0.56538,1.06358 -1.98413,1.90952 -3.20251,1.90952 -1.02467,0 -2.68391,-0.94954 -3.20626,-1.83487 -0.50606,-0.8577 -0.67821,-2.72513 -0.25123,-2.72513 0.132,0 0.24341,-0.135 0.24759,-0.3 0.0111,-0.43785 1.09013,-1.59485 1.72528,-1.84988 0.85248,-0.3423 2.39627,-0.28411 3.17023,0.11949 z m -15.99328,9.11772 c 1.36063,0.40407 2.28646,1.37203 2.51808,2.63267 0.4576,2.49062 -2.05224,4.66867 -4.57665,3.97164 -1.0117,-0.27934 -2.35768,-1.67929 -2.57771,-2.68107 -0.36026,-1.64026 0.64128,-3.26674 2.40646,-3.90799 0.528,-0.19182 0.9674,-0.35637 0.97644,-0.36567 0.009,-0.009 0.57307,0.14839 1.25338,0.35042 z m 19.2781,0.0246 c 3.52487,1.15293 3.02468,6.26476 -0.65007,6.64359 -1.6729,0.17246 -3.083,-0.59453 -3.82405,-2.08 -0.39791,-0.79763 -0.47933,-2.55547 -0.11837,-2.55547 0.12948,0 0.30206,-0.26548 0.3835,-0.58996 0.14212,-0.56628 1.593,-1.45138 2.93597,-1.79109 0.0412,-0.0104 0.61406,0.1574 1.27302,0.37293 z m -21.57938,10.16273 c 0.7951,0.89597 0.91146,1.17928 0.91146,2.2192 0,1.48895 -0.51371,2.387 -1.73984,3.04147 -1.23301,0.65815 -2.32934,0.63834 -3.58099,-0.0647 -1.33271,-0.74857 -1.94291,-1.85628 -1.79734,-3.26274 0.061,-0.58967 0.22959,-1.11167 0.37457,-1.16 0.14498,-0.0483 0.2636,-0.22845 0.2636,-0.40027 0,-0.28818 0.81829,-0.96216 1.68,-1.38372 0.198,-0.0969 0.94884,-0.14016 1.66854,-0.0962 1.19674,0.0731 1.38639,0.16763 2.22,1.10699 z m 29.68803,-0.8911 c 1.10352,0.56741 1.98343,1.94341 1.98343,3.1017 0,1.40364 -0.78966,2.75042 -1.73431,2.9579 -0.38813,0.0852 -0.70569,0.25442 -0.70569,0.37593 0,0.4242 -1.8828,0.21661 -2.8939,-0.31907 -1.03466,-0.54816 -1.89896,-1.89072 -1.89269,-2.94 0.007,-1.15586 1.24563,-2.87136 2.38659,-3.30521 0.64898,-0.24678 2.26816,-0.1738 2.85657,0.12875 z m -35.08062,9.17975 c 1.01703,0.30203 1.34782,0.55155 1.96356,1.48115 0.86442,1.30503 0.91513,1.91244 0.26593,3.18499 -0.68606,1.34478 -1.67131,1.96156 -3.19023,1.99712 -1.40134,0.0328 -2.39422,-0.42583 -3.17521,-1.46673 -0.63107,-0.84109 -0.66301,-3.13102 -0.0522,-3.74185 0.2267,-0.2267 0.41218,-0.49869 0.41218,-0.60444 0,-0.16644 2.0395,-1.184 2.41644,-1.20562 0.075,-0.004 0.68683,0.15562 1.35951,0.35538 z m 34.68606,0.0142 c 1.59328,0.54288 2.33799,1.6025 2.33799,3.32662 0,1.23868 -0.0699,1.40595 -0.96,2.29601 -0.59859,0.59859 -1.20847,0.97652 -1.62,1.00389 -2.17917,0.14493 -3.44831,-0.41505 -4.12939,-1.82198 -0.61348,-1.26726 -0.61187,-1.57105 0.016,-3.03057 0.44866,-1.04294 0.64768,-1.2319 1.74,-1.65199 1.51623,-0.58312 1.29264,-0.57269 2.6154,-0.12198 z m -33.73169,7.77411 c 0.8181,0.49882 1.74968,2.04621 1.74968,2.90628 0,0.68531 -0.92378,2.3033 -1.54892,2.71291 -1.47303,0.96517 -3.64242,0.73398 -4.89843,-0.52202 -0.77607,-0.77607 -0.85805,-0.98478 -0.86498,-2.20194 -0.006,-1.08154 0.10973,-1.49123 0.59233,-2.09395 0.81062,-1.01237 1.32715,-1.23757 2.88,-1.25562 0.90938,-0.0106 1.55963,0.13076 2.09032,0.45434 z m 38.13387,-0.22632 c 1.00907,0.35552 1.86389,1.78938 1.86622,3.13034 0.004,2.51599 -2.69879,4.0661 -5.23945,3.00455 -1.39339,-0.5822 -2.23073,-2.42114 -1.81145,-3.97825 0.22685,-0.84245 1.19603,-1.9693 1.92049,-2.23291 0.6183,-0.22499 2.53636,-0.18017 3.26419,0.0763 z m -30.85003,9.28775 c 0.69215,0.3591 1.30871,0.8451 1.37014,1.08 0.0614,0.2349 0.19296,0.42709 0.29229,0.42709 0.25645,0 0.45997,1.45445 0.3119,2.229 -0.13585,0.71067 -1.3181,2.10481 -2.15271,2.53856 -1.42395,0.74002 -3.69869,-0.0868 -4.59888,-1.67158 -0.79072,-1.39209 -0.5732,-2.78511 0.6151,-3.93918 0.4739,-0.46024 1.06107,-0.8368 1.30482,-0.8368 0.24375,0 0.44318,-0.108 0.44318,-0.24 0,-0.44189 1.14356,-0.2463 2.41416,0.41291 z m 34.36308,-0.11291 c 1.53188,0.74744 2.18498,1.65073 2.20592,3.051 0.0283,1.88826 -1.69759,3.609 -3.61968,3.609 -0.98303,0 -2.56145,-0.86091 -3.02872,-1.65193 -0.49123,-0.83158 -0.5372,-2.77662 -0.0849,-3.59219 0.37963,-0.68452 2.24096,-1.91919 2.92541,-1.94048 0.27239,-0.008 0.99328,0.2276 1.60198,0.5246 z m 7.79027,0.0473 c 0.95403,0.46024 1.32713,0.81406 1.72491,1.63578 0.59902,1.23741 0.61821,1.53425 0.16853,2.60765 -0.82951,1.98007 -3.15481,2.93296 -4.92428,2.01793 -1.28474,-0.66437 -1.9376,-1.70962 -1.92817,-3.08704 0.0108,-1.57391 0.40166,-2.2791 1.70872,-3.08272 1.31306,-0.80731 1.74165,-0.81939 3.25029,-0.0916 z m -23.22561,4.9573 c 1.08849,0.80476 1.54536,1.86284 1.41048,3.26658 -0.11984,1.24718 -0.47629,1.78506 -1.68394,2.54101 -0.96177,0.60203 -2.87577,0.5373 -3.90696,-0.13215 -0.8238,-0.53482 -1.56148,-1.87298 -1.56148,-2.83257 0,-1.30092 1.22365,-2.9591 2.50585,-3.3957 0.81959,-0.27908 2.49885,0.008 3.23605,0.55283 z m 7.22184,-0.30018 c 1.19222,0.63355 1.91626,1.79844 1.91626,3.08303 0,2.15226 -1.39264,3.43259 -3.73372,3.43259 -0.71845,0 -1.30628,-0.108 -1.30628,-0.24 0,-0.132 -0.135,-0.2436 -0.3,-0.24799 -0.84649,-0.0225 -2.36473,-2.60339 -1.88943,-3.21184 0.11178,-0.14309 0.27777,-0.57142 0.36886,-0.95184 0.18399,-0.76842 0.853,-1.44125 1.94057,-1.95165 0.9949,-0.46691 2.01618,-0.43709 3.00374,0.0877 z m -21.395,5.22451 c 0.96215,0.84339 0.99101,0.9121 0.98263,2.34 -0.007,1.15859 -0.12151,1.60634 -0.54,2.10769 -0.66144,0.79242 -2.16405,1.64342 -2.90179,1.64342 -1.41167,0 -3.35722,-1.63261 -3.62097,-3.03854 -0.2224,-1.18548 0.0984,-2.03582 1.13979,-3.02146 0.89012,-0.84245 1.04679,-0.9 2.45001,-0.9 1.38019,0 1.57768,0.0689 2.49033,0.86889 z m 7.66806,-0.0105 c 1.07782,0.94477 1.48734,2.31372 1.04171,3.4822 -0.3261,0.85505 -1.657,2.13937 -2.21697,2.13937 -0.25385,0 -0.46154,0.108 -0.46154,0.24 0,0.37511 -1.28073,0.28178 -2.18312,-0.1591 -2.63346,-1.28661 -3.12581,-3.82451 -1.10523,-5.69711 0.81936,-0.75936 1.01377,-0.8226 2.59709,-0.84485 1.21725,-0.0171 1.44422,0.0648 2.32806,0.83949 z m -46.03679,-43.69876 0,1.8 -12.96,0 -12.96,0 0,3.81432 c 0,3.25677 0.0555,3.83562 0.37963,3.96 0.20879,0.0801 6.03586,0.14568 12.94903,0.14568 l 12.56941,0 0.071,1.60087 c 0.039,0.88048 0.18447,1.63832 0.32319,1.68407 0.26978,0.089 2.65804,-1.85408 7.54778,-6.14086 0.462,-0.40502 0.921,-0.73814 1.02,-0.74025 0.46139,-0.01 0.0874,-0.68042 -0.79933,-1.43311 -0.53731,-0.4561 -1.21735,-1.0501 -1.51119,-1.32 -0.29385,-0.26989 -0.95521,-0.81472 -1.46968,-1.21072 -0.51446,-0.396 -1.15689,-0.9396 -1.4276,-1.20801 -1.05787,-1.04885 -3.198,-2.75199 -3.45808,-2.75199 -0.18113,0 -0.27412,0.61062 -0.27412,1.8 z m 18.23999,126.47999 0,64.19999 60.96,0 60.95999,0 0,-64.19999 0,-64.2 -60.95999,0 -60.96,0 z m 107.32437,-56.0682 c 0.30559,0.11649 0.98582,0.60624 1.51162,1.08833 0.91562,0.83951 0.956,0.93877 0.956,2.34954 0,0.95445 -0.1042,1.50773 -0.296,1.57167 -0.1628,0.0543 -0.296,0.22466 -0.29601,0.37866 0,0.154 -0.37223,0.577 -0.82717,0.94 -1.8534,1.47883 -4.90022,0.41279 -5.42111,-1.89676 -0.31798,-1.40988 -0.0148,-2.51054 0.95757,-3.47682 1.11915,-1.11209 2.20542,-1.41573 3.4151,-0.95462 z m -85.76102,4.2882 c 1.69305,1.6149 1.75286,3.73013 0.14826,5.24346 -1.47364,1.38982 -3.37051,1.32431 -4.90985,-0.16957 -0.94182,-0.91401 -1.07529,-1.30397 -0.97674,-2.85389 0.1101,-1.73162 1.68303,-3.0616 3.66488,-3.09879 0.99181,-0.0186 1.2452,0.0888 2.07345,0.87879 z m 14.25665,3.4424 c 0.495,0.16147 0.90013,0.35749 0.90029,0.43559 1.6e-4,0.0781 0.27016,0.45581 0.6,0.83934 0.84487,0.9824 0.84086,2.79636 -0.009,4.04696 -0.33475,0.49264 -0.72343,0.89571 -0.86372,0.89571 -0.14029,0 -0.6233,0.17473 -1.07334,0.38829 -0.68188,0.32358 -0.94794,0.33954 -1.59627,0.0958 -1.49494,-0.56206 -1.87782,-0.81947 -2.34621,-1.57734 -0.5807,-0.93959 -0.64612,-3.01813 -0.1118,-3.55244 0.198,-0.198 0.36,-0.46608 0.36,-0.59574 0,-0.36312 2.54783,-1.51316 3,-1.35414 0.132,0.0464 0.645,0.21652 1.14,0.37799 z m -27.18,12.69761 c 0,0.132 0.14415,0.24 0.32033,0.24 0.17618,0 0.63518,0.351 1.02,0.78 0.59354,0.66169 0.69967,0.98023 0.69967,2.1 0,1.57965 -0.61791,2.60603 -1.94925,3.23779 -2.24545,1.06554 -5.13075,-0.67979 -5.13075,-3.10362 0,-0.96558 0.85009,-2.42269 1.7309,-2.96687 0.83718,-0.51723 3.3091,-0.73184 3.3091,-0.2873 z m 98.50873,2.18608 c 0.52181,0.14487 1.33001,0.64467 1.796,1.11066 0.76864,0.76864 0.84726,0.9724 0.84726,2.19587 0,1.50746 -0.41569,2.25764 -1.7275,3.11755 -1.90255,1.24716 -4.70427,0.0585 -5.11153,-2.16861 -0.17475,-0.95562 0.14344,-3.08155 0.46121,-3.08155 0.0964,0 0.3896,-0.19964 0.65151,-0.44365 0.39115,-0.36441 1.49667,-0.9001 2.01431,-0.97606 0.066,-0.01 0.54693,0.10092 1.06874,0.24579 z m -67.96808,7.49477 c 1.07242,0.3735 2.09935,1.21365 2.09935,1.71752 0,0.19887 0.108,0.36159 0.24,0.36159 0.132,0 0.24,0.57456 0.24,1.2768 0,1.10993 -0.10873,1.40383 -0.83197,2.24877 -1.79029,2.09155 -4.83549,1.63006 -5.97974,-0.90622 -0.43155,-0.95654 -0.52023,-2.37935 -0.14829,-2.37935 0.132,0 0.24,-0.19717 0.24,-0.43817 0,-0.56901 0.90082,-1.40178 1.74227,-1.61063 0.36425,-0.0904 0.72162,-0.26041 0.79416,-0.37779 0.17811,-0.28818 0.53719,-0.26413 1.60422,0.10748 z m 16.04386,2.14736 c 1.26347,0.84942 2.35895,3.21698 1.68207,3.63532 -0.11737,0.0725 -0.28382,0.41242 -0.36987,0.75529 -0.0861,0.34286 -0.42304,0.91088 -0.74886,1.26226 -0.53879,0.58106 -0.75334,0.63888 -2.37079,0.63888 -1.55183,0 -1.85729,-0.0741 -2.39773,-0.58184 -0.34063,-0.32001 -0.61933,-0.72501 -0.61933,-0.9 0,-0.17499 -0.108,-0.31816 -0.24,-0.31816 -0.13272,0 -0.24,-0.62921 -0.24,-1.40763 0,-1.07925 0.12101,-1.56148 0.51871,-2.06707 1.25761,-1.59879 3.28091,-2.02877 4.7858,-1.01705 z m -46.26313,5.24926 c 0.28524,0.13626 0.78862,0.58425 1.11862,0.99553 0.48002,0.59825 0.6,1.01732 0.6,2.09574 0,1.14687 -0.10741,1.4761 -0.72,2.20688 -1.25839,1.50119 -3.54164,1.67823 -5.03139,0.39012 -1.73769,-1.50248 -1.76314,-3.6101 -0.0628,-5.19815 1.04587,-0.97678 2.66992,-1.17113 4.09555,-0.49012 z m 80.11627,0.4617 c 0.61391,0.31319 1.07711,0.76035 1.24306,1.2 0.14548,0.38543 0.34884,0.70079 0.4519,0.70079 0.31797,0 0.20674,1.90678 -0.15119,2.59192 -0.18622,0.35644 -0.67337,0.96639 -1.08256,1.35543 -0.62673,0.59588 -0.945,0.70935 -2.01951,0.72 -1.03243,0.0102 -1.44007,-0.11277 -2.1389,-0.64542 -0.47486,-0.36195 -1.03372,-0.99954 -1.24192,-1.41688 -0.40548,-0.81281 -0.51869,-2.60505 -0.16455,-2.60505 0.11769,0 0.27504,-0.243 0.34967,-0.54 0.18553,-0.73837 1.9789,-1.86 2.97395,-1.86 0.44083,0 1.24186,0.22464 1.78005,0.49921 z m -60.01519,2.06414 c 0.50722,0.33566 0.98646,0.84123 1.06497,1.12347 0.0785,0.28225 0.24523,0.72918 0.3705,0.99318 0.39141,0.82486 -0.47338,2.75413 -1.58749,3.54155 -2.26036,1.59755 -5.58426,-0.10178 -5.62038,-2.87341 -0.01,-0.75324 0.64966,-2.46814 0.94914,-2.46814 0.0827,0 0.37202,-0.20657 0.64302,-0.45905 0.96432,-0.8984 2.69666,-0.83939 4.18024,0.1424 z m 44.80046,5.37271 c 1.01748,0.3547 1.97708,1.86924 1.97708,3.12045 0,2.53161 -3.1954,4.46701 -5.22845,3.16679 -0.86109,-0.55071 -1.18967,-0.95436 -1.69964,-2.08799 -0.37976,-0.84416 -0.38929,-1.04827 -0.0896,-1.91811 0.40253,-1.16833 0.67149,-1.51669 1.6177,-2.0952 0.80446,-0.49185 2.31067,-0.57367 3.42292,-0.18594 z m 38.14672,0.21502 c 0.74295,0.45299 1.75035,2.10566 1.75035,2.87147 0,0.9651 -0.86328,2.38565 -1.81609,2.98844 -3.60697,2.28195 -7.26604,-2.39618 -4.30702,-5.50654 0.89581,-0.94163 3.114,-1.12089 4.37276,-0.35337 z m -68.97774,6.95108 c 0.56546,0.0234 1.99517,1.42216 2.31596,2.26592 0.55945,1.47145 0.17246,2.86951 -1.10499,3.99192 -0.5805,0.51005 -0.91967,0.6 -2.2624,0.6 -1.52266,0 -1.61102,-0.0334 -2.45428,-0.92752 -1.3137,-1.39292 -1.45422,-3.00066 -0.39257,-4.49161 0.55535,-0.77992 2.28166,-1.68095 2.97057,-1.55046 0.27269,0.0517 0.69016,0.10194 0.92771,0.11175 z m 49.96809,0.4565 c 2.08458,1.72868 2.32799,3.61692 0.70186,5.44474 -0.77246,0.86826 -0.93888,0.9413 -2.34958,1.03113 -1.50382,0.0957 -1.52823,0.0872 -2.57089,-0.90469 -1.02797,-0.97788 -1.05275,-1.03736 -1.05702,-2.53637 -0.004,-1.51197 0.0115,-1.5494 1.05488,-2.49415 0.58258,-0.52753 1.12774,-0.91681 1.21146,-0.86507 0.0837,0.0517 0.30906,-0.009 0.50075,-0.13518 0.46204,-0.3039 1.90713,-0.0391 2.50854,0.45959 z m -76.15989,5.29592 c 1.52705,0.66754 1.96505,1.31831 2.07931,3.08939 0.082,1.27173 0.012,1.62798 -0.45321,2.30698 -0.6292,0.91826 -1.61242,1.34905 -3.07901,1.34905 -1.61323,0 -2.63922,-0.74086 -3.14396,-2.27022 -0.62308,-1.88795 0.12442,-3.54456 2.03677,-4.51391 0.97891,-0.49619 1.34928,-0.49059 2.5601,0.0387 z m 44.8399,-0.2406 c 0,0.11769 0.27275,0.28244 0.6061,0.3661 0.33336,0.0837 0.84636,0.39093 1.14,0.6828 1.6933,1.68308 1.44741,4.04499 -0.56408,5.41836 -0.68531,0.4679 -1.05157,0.54518 -2.20227,0.46467 -1.1179,-0.0782 -1.51705,-0.22764 -2.1,-0.78615 -0.39586,-0.37926 -0.71975,-0.83136 -0.71975,-1.00467 0,-0.1733 -0.108,-0.31509 -0.24,-0.31509 -0.37604,0 -0.28095,-2.00417 0.13462,-2.8372 0.3418,-0.68516 0.78836,-1.0781 2.14641,-1.88869 0.56632,-0.33803 1.79897,-0.40664 1.79897,-0.10013 z m -33.36,9.74602 c 0.16433,0.198 0.40501,0.36 0.53485,0.36 0.72437,0 2.13402,2.94713 1.64402,3.43713 -0.14238,0.14238 -0.25887,0.45687 -0.25887,0.69886 0,0.75035 -1.50261,2.03184 -2.59977,2.21721 -1.84057,0.31096 -3.1542,-0.33753 -3.97294,-1.96129 -0.81477,-1.61587 -0.22515,-3.39425 1.51391,-4.5662 0.95377,-0.64274 2.67498,-0.74458 3.1388,-0.18571 z m 53.22476,0.20887 c 1.55026,0.9851 1.84724,1.47294 1.84724,3.03445 0,1.32308 -0.055,1.45563 -0.97898,2.3614 -1.13557,1.11313 -2.31057,1.43782 -3.69849,1.02199 -1.6601,-0.49738 -2.66044,-2.31488 -2.29332,-4.16671 0.18715,-0.94403 0.75233,-1.65596 1.842,-2.32026 1.07351,-0.65446 2.17951,-0.63116 3.28155,0.0691 z m 33.97818,-0.0462 c 1.20681,0.83312 1.57373,1.30433 1.80009,2.31178 0.72549,3.22895 -2.8325,5.50038 -5.63245,3.59577 -0.98174,-0.66781 -1.38507,-1.76242 -1.23291,-3.34598 0.2358,-2.45407 3.11318,-3.90919 5.06527,-2.56157 z m -20.00295,1.63738 c 0,0.132 0.26563,0.24 0.59029,0.24 0.97448,0 2.52971,2.05697 2.52971,3.34583 0,0.79801 -0.87536,2.32121 -1.65161,2.87395 -1.27617,0.90871 -3.60146,0.62182 -4.70839,-0.58091 -0.42705,-0.46401 -1.08,-1.82629 -1.08,-2.25325 0,-1.25248 1.68375,-3.38562 2.67237,-3.38562 0.2462,0 0.44763,-0.108 0.44763,-0.24 0,-0.132 0.27,-0.24 0.6,-0.24 0.33,0 0.6,0.108 0.6,0.24 z m -29.14005,5.90555 c 1.6386,0.77756 2.3279,3.28139 1.36006,4.94026 -0.52271,0.8959 -1.9184,1.63418 -3.08936,1.63418 -1.23365,0 -2.85063,-0.99043 -3.18557,-1.95123 -0.9301,-2.66809 0.51869,-4.94332 3.17866,-4.9919 0.50805,-0.009 1.28935,0.15663 1.73621,0.36869 z m -50.17994,7.05444 c 0.0816,0.132 0.33389,0.24 0.56068,0.24 0.22679,0 0.77947,0.33532 1.22817,0.74515 0.68981,0.63004 0.83228,0.94344 0.92229,2.02891 0.15118,1.82304 -0.0666,2.41273 -1.19227,3.22815 -1.98298,1.43646 -4.87245,0.6037 -5.484,-1.58053 -0.58765,-2.09888 0.27363,-3.77249 2.32217,-4.51237 1.16738,-0.42163 1.45832,-0.44807 1.64296,-0.14931 z m 76.2401,2.13459 c 1.73587,0.75882 2.5151,2.14727 2.21964,3.95499 -0.15865,0.97068 -1.4988,2.55042 -2.16361,2.55042 -0.18845,0 -0.55052,0.12982 -0.80458,0.28849 -0.34321,0.21433 -0.60454,0.22056 -1.01675,0.0242 -0.30514,-0.14535 -0.90581,-0.39627 -1.33481,-0.5576 -0.429,-0.16134 -0.78,-0.38052 -0.78,-0.48708 0,-0.10656 -0.18719,-0.38094 -0.41598,-0.60973 -0.30622,-0.30622 -0.41705,-0.81809 -0.42,-1.93977 -0.004,-1.4018 0.0565,-1.58037 0.75157,-2.23051 0.71872,-0.67223 2.04056,-1.38623 2.64452,-1.42844 0.15405,-0.0108 0.74805,0.18499 1.32,0.43501 z m -22.49936,9.5471 c 0.66501,0.48614 1.33926,1.9214 1.33926,2.85088 0,0.83567 -0.56988,2.11731 -1.23897,2.7864 -0.48118,0.48118 -0.80015,0.56103 -2.24103,0.56103 -1.92431,0 -2.48791,-0.32955 -3.25804,-1.90508 -0.49352,-1.00964 -0.61783,-2.29492 -0.22196,-2.29492 0.132,0 0.2424,-0.189 0.24533,-0.42 0.007,-0.57875 0.69341,-1.40031 1.55467,-1.86175 0.91137,-0.48829 2.97441,-0.33525 3.82074,0.28344 z m -56.55229,0.0152 c 0.88751,0.56786 1.30241,0.98821 1.66473,1.68658 0.3627,0.69912 0.4122,2.69654 0.0668,2.69654 -0.132,0 -0.24,0.15709 -0.24,0.34909 0,0.58396 -1.14879,1.53956 -2.05524,1.70961 -1.20395,0.22586 -2.6955,-0.0198 -3.26892,-0.53836 -0.64862,-0.58658 -1.39584,-2.08221 -1.39584,-2.7939 0,-0.59517 0.62358,-2.02773 1.06573,-2.44832 1.17751,-1.12011 2.99445,-1.40872 4.16272,-0.66123 z m 15.24733,3.70232 c 0.67196,0.35788 1.01598,0.79337 1.65054,2.08939 0.41308,0.84366 0.45873,1.13618 0.23355,1.49674 -0.15393,0.24649 -0.27987,0.60606 -0.27987,0.79905 0,0.4155 -0.81888,1.30624 -1.73156,1.88351 -2.04129,1.29113 -5.22844,-0.66919 -5.22844,-3.21586 0,-0.83737 0.15992,-1.25667 0.75431,-1.97777 0.41487,-0.50331 0.98187,-1.00707 1.26,-1.11947 0.74817,-0.30235 2.7401,-0.27588 3.34147,0.0444 z m 19.09229,5.89802 c 0.85216,0.48908 1.71193,1.89688 1.71193,2.80317 0,0.82613 -0.61613,2.28716 -1.18996,2.82177 -0.72671,0.67703 -2.40679,1.00184 -3.56662,0.68953 -1.68948,-0.45493 -2.88367,-2.62468 -2.33037,-4.23411 0.32452,-0.94399 1.66014,-2.3626 2.42338,-2.57399 0.72944,-0.20202 2.15491,0.0364 2.95164,0.49363 z m 48.66889,1.486 c 1.06448,0.48334 2.24303,2.1151 2.24303,3.10558 0,0.78506 -0.57002,1.97924 -1.33232,2.7912 -0.62136,0.66183 -0.80657,0.72 -2.29249,0.72 -1.39329,0 -1.70507,-0.0829 -2.25775,-0.6 -1.11803,-1.04613 -2.05263,-3.6 -1.31744,-3.6 0.132,0 0.24,-0.19481 0.24,-0.43292 0,-0.5743 1.42587,-1.93495 2.30249,-2.19717 1.03353,-0.30916 1.31942,-0.28391 2.41448,0.21331 z m 19.40303,0.26036 c 2.18953,1.34799 2.077,4.88542 -0.19433,6.10861 -1.14347,0.6158 -3.17889,0.43023 -4.02916,-0.36734 -0.88897,-0.83387 -1.17656,-1.48651 -1.17614,-2.66907 4.8e-4,-1.4956 0.64379,-2.58682 1.91963,-3.2565 1.21334,-0.63688 2.23398,-0.58282 3.48,0.1843 z m -84.00229,7.22497 c 1.47664,0.40994 2.5223,1.76611 2.5223,3.2713 0,0.76735 -0.90372,2.70015 -1.26251,2.70015 -0.14283,0 -0.46458,0.18542 -0.71499,0.41204 -0.52885,0.4786 -3.09915,0.558 -3.25167,0.10044 -0.05,-0.14986 -0.23928,-0.27248 -0.42071,-0.27248 -0.54063,0 -1.55012,-1.97571 -1.55012,-3.0338 0,-1.22827 1.15412,-2.86853 2.23942,-3.18272 1.04299,-0.30194 1.33457,-0.30134 2.43828,0.005 z m 46.63186,0.80433 c 1.54378,1.37552 1.53014,3.83929 -0.029,5.23585 -0.90636,0.81185 -1.5348,0.98816 -2.95264,0.82835 -0.85832,-0.0968 -1.25099,-0.30497 -1.88935,-1.0019 -1.3861,-1.51327 -1.40569,-3.30635 -0.052,-4.75937 0.98149,-1.05352 1.20594,-1.1377 2.82112,-1.05815 1.06878,0.0526 1.47866,0.19992 2.10189,0.75522 z M 142.91422,657.9956 c -0.0663,0.0663 -0.0773,0.63037 -0.0244,1.25348 0.0529,0.6231 0.036,1.37591 -0.0375,1.67291 l -0.13365,0.54 -12.71542,0 -12.71543,0 0,3.96 0,3.96 12.59155,0 c 14.21285,0 13.10701,-0.16408 12.98659,1.9268 -0.10812,1.87714 0.17795,2.07985 1.38253,0.9797 0.81918,-0.74816 5.01593,-4.45858 6.4688,-5.71917 0.48979,-0.42497 0.89053,-0.86785 0.89053,-0.98419 0,-0.18619 -1.5269,-1.61611 -4.65905,-4.36314 -0.52677,-0.462 -1.13641,-1.002 -1.35476,-1.2 -2.28628,-2.07321 -2.4837,-2.2225 -2.67981,-2.02639 z"
       id="path6381"
       inkscape:connector-curvature="0"
       sodipodi:nodetypes="cccccccccscccccscssccssssssssscsssscsscsscccccsscscccsssscscccscsccsssscssscssssscssssssssssscccsscssssscccsssscsssssccsssccsssssssccssssssssssssssscssscsscssssssscsscssccsccscscsccsssssccscsssssscccssssccccccccssscsssccccsssccsssscccsscsscsssssscsssscsssscscssssssscscscssscccccscscccsssssscssssssccsssssccscsssccscsccsscsscsscsssscscccsscssssssssscscsccsscccscscssssssccssscccsssscsscssssscssssccsssscsssssscsssssscccccscscccscscscsccccccccccccssccsscccssscccsscsscssscccssssssssssssssscscssssssscccsccsscssssscssssscccsscsccsssscscsscssscssssscccsssccssssscccsccccccccccsssccscsscsssssscssssssccscsssccssssssssssssssscssscccssssssccsscccsscccccsssssscsscssssssscccscssssscccssssccsssscssssssscsscssscssscccscssccccsccccccssssssscc" /><text
       xml:space="preserve"
       style="font-style:normal;font-variant:normal;font-weight:normal;font-stretch:normal;font-size:16px;line-height:125%;font-family:'Times New Roman';-inkscape-font-specification:'Times New Roman, ';text-align:center;letter-spacing:0px;word-spacing:0px;text-anchor:middle;fill:#ffffff;fill-opacity:1;stroke:none;stroke-width:1px;stroke-linecap:butt;stroke-linejoin:miter;stroke-opacity:1;"
       x="123.27733"
       y="-645.45667"
       id="text6383"
       sodipodi:linespacing="125%"
       transform="scale(1,-1)"><tspan
         sodipodi:role="line"
         id="tspan6385"
         x="123.27733"
         y="-645.45667">Continuous</tspan><tspan
         sodipodi:role="line"
         x="123.27733"
         y="-625.45667"
         id="tspan6387">Liquid</tspan></text>
<text
       xml:space="preserve"
       style="font-style:normal;font-variant:normal;font-weight:normal;font-stretch:normal;font-size:16px;line-height:125%;font-family:'Times New Roman';-inkscape-font-specification:'Times New Roman, ';text-align:center;letter-spacing:0px;word-spacing:0px;text-anchor:middle;fill:#ffffff;fill-opacity:1;stroke:none;stroke-width:1px;stroke-linecap:butt;stroke-linejoin:miter;stroke-opacity:1;"
       x="120.12154"
       y="-522.8775"
       id="text6383-7"
       sodipodi:linespacing="125%"
       transform="scale(1,-1)"><tspan
         sodipodi:role="line"
         id="tspan6385-5"
         x="120.12154"
         y="-522.8775">&quot;Continuous&quot;</tspan><tspan
         sodipodi:role="line"
         x="120.12154"
         y="-502.8775"
         id="tspan6387-1">Particles</tspan></text>
<text
       xml:space="preserve"
       style="font-style:normal;font-weight:normal;font-size:16px;line-height:125%;font-family:sans-serif;letter-spacing:0px;word-spacing:0px;fill:#000000;fill-opacity:1;stroke:none;stroke-width:1px;stroke-linecap:butt;stroke-linejoin:miter;stroke-opacity:1;"
       x="213.57021"
       y="-621.13336"
       id="text6410"
       sodipodi:linespacing="125%"
       transform="scale(1,-1)"><tspan
         sodipodi:role="line"
         id="tspan6412"
         x="213.57021"
         y="-621.13336"
         style="font-style:normal;font-variant:normal;font-weight:normal;font-stretch:normal;font-family:'Times New Roman';-inkscape-font-specification:'Times New Roman, ';fill:#000000;">Liquid</tspan></text>
<text
       xml:space="preserve"
       style="font-style:normal;font-weight:normal;font-size:16px;line-height:125%;font-family:sans-serif;letter-spacing:0px;word-spacing:0px;fill:#000000;fill-opacity:1;stroke:none;stroke-width:1px;stroke-linecap:butt;stroke-linejoin:miter;stroke-opacity:1;"
       x="231.51358"
       y="-555.29492"
       id="text6410-5"
       sodipodi:linespacing="125%"
       transform="scale(1,-1)"><tspan
         sodipodi:role="line"
         id="tspan6412-0"
         x="231.51358"
         y="-555.29492"
         style="font-style:normal;font-variant:normal;font-weight:normal;font-stretch:normal;font-family:'Times New Roman';-inkscape-font-specification:'Times New Roman, ';fill:#000000;">Liquid</tspan></text>
</g></svg>